<?xml version="1.0" encoding="UTF-8"?>
<svg id="Layer_1" data-name="Layer 1" xmlns="http://www.w3.org/2000/svg" version="1.1" viewBox="0 0 500 107">
  <defs>
    <style>
      .cls-1 {
        fill: #fff;
        stroke-width: 0px;
      }
    </style>
  </defs>
  <g id="surface1">
    <path class="cls-1" d="M152.8,1.1c-12.7.8-18.2,6.9-22.4,11.2-4.4,4.6-6.9,14.4-6.9,14.4V1.2h-49.5c-3.7,0-7.3,1.6-9.9,5.3-2.8,3.6-14.1,22.4-14.1,22.4h195.9V1.1h-93.1ZM399.4,1.1c-12.6.8-18.2,6.9-22.4,11.2-4.4,4.6-6.9,14.4-6.9,14.4v2.3h128.8V1.1h-99.6ZM250.7,1.2v27.8h27.9V1.2h-27.9ZM342.1,1.2v27.8h27.8V1.2h-27.8ZM48.8,30.6L.9,105.9h32.7l46.1-71.9-30.9-3.3ZM251,31v40.5c0-.8,0-2,0-2-.7-4.1-8.6-22.5-25.5-24-10.1-1-100.5-8.2-100.5-8.2,1.8,9.1,5.8,13.7,8.6,16.3,6.3,6,16.2,7.8,16.2,7.8,2.4.2,69.6,5.8,69.6,5.8,2.2,0,6.2.7,6.1,6,0,.7-.6,5.3-5.7,5.3h-97.4v-41.4l-27.1-2c0,0,0,70.8,0,70.8h130.2c22.7-4.5,25-25.2,25-25.2.4-2.3.5-4.3.6-6v5.7c4.4,23.7,25.8,25.5,25.8,25.5,0,0,2.2,0,2.6.2h63.5s27.2-2.2,27.2-28.4l-.2-38.7-27.4-1.7v32.2s-.1,9.3-9.1,9.3h-46.9s-8-.7-8-9.2v-36.7l-27.6-2ZM371.8,39c2.7,9.4,6.3,12.2,9.1,14.8,6.3,6.1,15.7,7.5,15.7,7.5,2.4.2,70.3,5.9,70.3,5.9,2.2,0,6.6.3,6.6,5.6s-.8,3.3-1.8,4.1c0,0-2.4,1.3-4.6,1.3h-96.7l-.3,27.9h99.7c25-1.5,28.6-25.2,28.6-25.2.9-6.2.2-11.3.2-11.3-.7-5.6-8.7-22.6-25.7-24.2-10-1-100.9-6.3-100.9-6.3Z"/>
  </g>
</svg>