<?xml version="1.0" encoding="UTF-8"?>
<svg id="Layer_1" data-name="Layer 1" xmlns="http://www.w3.org/2000/svg" version="1.1" viewBox="0 0 304.3 87.6">
  <defs>
    <style>
      .cls-1 {
        fill: #fff;
        stroke-width: 0px;
      }
    </style>
  </defs>
  <path class="cls-1" d="M291.7,13c-7.9-7.9-19.1-12.7-32-12.7-12.9,0-24.2,4.9-32.1,12.8-5,4.9-8.7,11-10.8,17.8-2.1-6.6-5.7-12.4-10.6-17.1-7.9-7.6-19.1-12.1-32.2-12.1h-33.4v50.1c-2.2-4.5-6-7.7-10.8-10,4.7-3.5,8.5-8.9,8.4-17v-.2c0-6.9-2.8-12.7-7.9-16.7-5-4-12.1-6.1-20.7-6.1h-39.3v50.1c-2.2-4.5-6-7.7-10.8-10,4.7-3.5,8.5-8.9,8.4-17v-.2c0-6.8-2.8-12.7-7.9-16.7-5-4-12.1-6.1-20.7-6.1H0v84.4h40.3c9.3,0,17.3-1.9,23-5.9,3-2.1,5.4-4.9,7-8.2v14h40.3c9.3,0,17.3-1.9,23-5.9,3-2.1,5.4-4.9,7-8.2v14h33.4c13.1,0,24.3-4.6,32.2-12.2,4.9-4.7,8.5-10.5,10.5-17,2.1,6.8,5.8,12.9,10.7,17.9,7.9,7.9,19.1,12.7,32,12.7h0c12.9,0,24.2-4.9,32.1-12.8,8-7.9,12.7-18.8,12.7-30.8v-.2c0-12-4.7-22.8-12.6-30.7ZM21.1,21.1h15.6c3.5,0,6,.7,7.5,1.8,1.5,1.1,2.2,2.4,2.2,4.6v.2c0,2.5-.8,3.8-2.5,4.9-1.7,1.1-4.6,1.7-8.3,1.7h-14.4v-13.2ZM50.9,59.9c0,2.5-.8,3.9-2.5,5-1.7,1.1-4.4,1.8-8.1,1.8h-19.2v-13.9h18.6c4.3,0,7.2.8,8.9,2,1.6,1.2,2.3,2.6,2.3,4.8v.2ZM91.4,21.1h15.6c3.5,0,6,.7,7.5,1.8,1.5,1.1,2.2,2.4,2.2,4.6v.2c0,2.5-.9,3.8-2.6,4.9-1.7,1.1-4.6,1.7-8.3,1.7h-14.4v-13.2ZM121.1,59.9c0,2.5-.8,3.9-2.5,5-1.7,1.1-4.4,1.8-8.1,1.8h-19.2v-13.9h18.6c4.3,0,7.2.8,8.9,2,1.6,1.2,2.3,2.6,2.3,4.8v.2ZM196.2,44.2c-.1,13.4-8.8,22-22.4,22.1h-11.8V21.5h11.8c13.6.1,22.3,9,22.4,22.4v.2ZM281.9,44.2c0,12.9-9.1,23.2-22.3,23.2-13.2,0-22.4-10.5-22.5-23.4v-.2c0-12.9,9.1-23.2,22.3-23.2,13.2,0,22.4,10.5,22.5,23.4v.2h0Z"/>
</svg>