<?xml version="1.0" encoding="UTF-8"?>
<svg id="svg4441" xmlns="http://www.w3.org/2000/svg" xmlns:svg="http://www.w3.org/2000/svg" xmlns:sodipodi="http://sodipodi.sourceforge.net/DTD/sodipodi-0.dtd" xmlns:inkscape="http://www.inkscape.org/namespaces/inkscape" version="1.1" viewBox="0 0 1024 130">
  <defs>
    <style>
      .cls-1 {
        fill-opacity: 0;
        fill-rule: evenodd;
      }

      .cls-1, .cls-2 {
        fill: #fff;
        stroke-width: 0px;
      }
    </style>
  </defs>
  <sodipodi:namedview id="namedview6" bordercolor="#999999" borderopacity="1" inkscape:current-layer="svg4441" inkscape:cx="252.44444" inkscape:cy="143.40741" inkscape:pagecheckerboard="0" inkscape:pageopacity="0" inkscape:pageshadow="0" inkscape:window-height="1001" inkscape:window-maximized="1" inkscape:window-width="1920" inkscape:window-x="-9" inkscape:window-y="-9" inkscape:zoom="1.265625" pagecolor="#ffffff" showgrid="false"/>
  <path id="path3672" class="cls-2" d="M91.2,4.3c0-.2.1-.6,2.2-.6,19.7.8,68.2,4.2,121.4,18.1,69.3,18.1,96.1,33.9,74,38.5-21.9,4.6-107.2,2.3-198.3,60.4-6.4,4-15.9,9.2-39.7,2-9-2.7-20.1-6.6-33.1-13.3-56-29.1,100.4-49,128.1-52.8,31.7-4.3,63.7-7,35-22.7-6.9-3.8-25-13.6-87.3-28.4,0,0-2.4-.5-2.2-1.3h0Z"/>
  <path id="path3688" class="cls-2" d="M366.7,53.3h21.6c14,0,23.3-1.6,24.6-13.2.3-2.9-.2-5.1-1.7-6.9-2.9-3.3-9.4-3.6-22.2-3.6h-15l-7.3,23.6h0ZM373.9,99.9c11,0,24.4.9,25.5-13.7.3-3.6-.6-6.5-2.6-8.6-2.8-3-7.9-4-14.8-4h-21.6l-8.2,26.3h21.6,0ZM402.2,7.7c16.9,0,29.3,3.8,35.8,11,3.9,4.4,5.6,9.9,4.9,16.5-1.3,13.6-7.8,21.1-23.8,27.6l-1.9.7,1.7,1c6.9,4,10.7,11.8,9.8,20.3-3.6,37.1-34.5,37.1-67.3,37.1h-26.5c-5.8,0-12.4.4-14.6-1.9-3.3-3.4-1.3-8.8-1.3-8.8l29.4-94.9c1.7-5.4,4.8-8.4,16.7-8.4h37,0ZM626.4,30.5c-17,.3-27.3,9.6-33.1,30.2l-5.2,18.8c-.7,2.9-1,5.5-.9,7.8.9,7.7,6.8,11.6,17.4,11.8,17.1-.3,27.3-9.6,33.1-30.2l5.2-18.8c.7-2.9,1-5.5.9-7.8-.9-7.7-6.8-11.6-17.5-11.8h0ZM596.3,123.4c-15.2,0-28.5-5.6-35.6-14.9-5.4-7.2-6.8-16.4-4-26.5l5.9-20.8c11.6-40.7,30-55.1,70.6-55.1h1.7c15.3,0,28.6,5.6,35.6,14.9,5.4,7.2,6.8,16.4,4,26.5l-5.9,20.8c-11.6,40.7-24,55.1-70.6,55.1h-1.7,0ZM995.3,30h-24.6c-9.1,0-17.7,1.4-18.7,12.1-.4,4.4,3,6.6,9.8,9.4l20.2,7.3c11.5,4.1,17.5,13.4,16.1,25-3.8,31.7-26.8,38.1-60.2,38.1h-37.8c-1.6,0-2.8-1.4-2.6-3,2.3-19.7,22.8-19.2,22.8-19.2h24.9c13.4,0,20.7-5.1,21.6-15.3.5-4.9-2.5-8.7-9.7-11.9l-20.1-7.2c-11-4.5-16.8-12.5-15.8-22.1,3.3-29.5,24.4-35.4,57.5-35.4h37.3c1.5,0,2.7,1.4,2.4,2.9-1.2,6.1-5.7,19.5-23.1,19.5ZM811.4,121.8c1.6,0,3.4-1.3,3.8-2.8l14.1-45.6c1.5,0,2.9.9,3.6,2.2l20.1,39c2.2,4.4,6.8,7.2,11.7,7.2h20.9c1.4,0,2.3-1.5,1.7-2.7l-25.3-49.5c-.6-1.2-.3-2.7.6-3.6l60.8-56c.9-.8.3-2.3-.9-2.3h-24.6c-4.1,0-8.1,1.6-11,4.6l-48.1,45c-1.3,1.2-3,1.9-4.8,1.9l15.1-48.8c.4-1.3-.6-2.6-2-2.6h-24.1c-1.6,0-3.2,1.1-3.7,2.6l-33.8,109c-.3,1.3.5,2.5,1.9,2.5h24.1ZM746.6,30.5c-17,.3-27.2,9.6-33.1,30.2l-5.2,18.8c-.7,2.9-1,5.5-.9,7.8.9,7.7,6.8,11.6,17.4,11.8,17.1-.3,27.3-9.6,33.2-30.2l5.2-18.8c.7-2.9,1-5.5.9-7.8-.9-7.7-6.8-11.6-17.4-11.8,0,0,0,0,0,0ZM716.4,123.4c-15.3,0-28.6-5.6-35.6-14.9-5.4-7.2-6.8-16.4-4-26.5l5.9-20.8c11.6-40.7,30-55.1,70.6-55.1h1.7c15.2,0,28.5,5.6,35.6,14.9,5.4,7.2,6.8,16.4,4,26.5l-5.9,20.8c-11.6,40.7-24,55.1-70.6,55.1h-1.7ZM489.3,29.6l-9.8,31.5h18.6c14.3,0,26.7,0,28.5-18.5.4-3.5-.4-6.1-2.2-8.2-3-3.4-9-4.8-19.5-4.8h-15.6ZM463.7,16.1c1.7-5.4,4.8-8.4,16.6-8.4h31.8c19.8,0,32.8,3.6,39.6,11.1,4.4,4.9,6.2,11.4,5.4,19.8-2,20.3-12.5,32-35.1,39l-1,.3,15.7,41.2c.5,1.3-.5,2.7-1.9,2.7h-19.5c-5.4,0-10-3.2-11.5-7.9l-11.8-31h-19.3l-11.2,36.1c-.4,1.5-2.2,2.8-3.9,2.8h-24.2c-1.3,0-2.2-1.3-1.8-2.5l32-103.2h0Z"/>
  <path id="path3143" class="cls-1" d="M59,124.4c-17-3.6-43.9-15.3-49.8-21.6-1.8-2-3.3-4.3-3.3-5.3,0-13.5,44.8-27.1,126.8-38.5,45.1-6.3,52.1-7.6,57-10.8,4.4-2.9,2.8-6.9-4.6-11.8-13.1-8.7-38.7-17.8-76.9-27.4-18.8-4.7-18.5-5.4,1.9-3.8,44.9,3.5,87.7,11.5,130.8,24.5,25.7,7.8,46.7,16.7,52.4,22.2,2.9,2.8,3.1,3.9,1.1,5.6-2.2,1.9-6.9,2.9-22.9,4.6-26.6,2.8-38.8,4.6-57.1,8.3-42.2,8.6-81.9,24.2-119.3,46.8-15.3,9.2-21.1,10.4-36.2,7.2Z"/>
  <path id="path3182" class="cls-1" d="M322.2,120.5c-2-.8-3.4-3.1-3.4-5.6s29.7-98.3,31.3-101.4c.7-1.4,2.6-2.9,4.7-3.8,3.4-1.5,4.9-1.6,32.9-1.2,23.2.3,30.2.6,33.3,1.5,12.9,3.9,19.8,10.1,21.3,19.3.7,4-.7,12.1-2.9,16.6-2.5,5.3-8.1,10.3-15.7,14l-6.8,3.3,4.5,4.3c5.6,5.4,7.5,10.6,6.6,18.4-1.6,14.5-8.1,24.1-20.2,29.7-10,4.6-13.6,5-50.5,5.3-19.6.2-34.3,0-35.3-.5h0ZM392.7,97.9c4.5-2.3,6.7-6.5,6.7-12.7,0-3.7-.4-5.3-1.6-6.9-3.4-4.4-5.3-4.8-22.3-5.1-8.6-.2-15.6-.1-15.6,0s-1.8,6.1-4,13.2c-2.2,7.1-4,13-4,13.2s8.4.2,18.8.1c17.2-.2,19-.4,21.9-1.9h0ZM405.9,51.2c5.9-2.7,8.9-9.7,6.9-15.8-1.6-4.8-3.7-5.4-22.5-5.7l-16.6-.3-2.6,8.5c-1.4,4.7-3.1,10.1-3.7,12l-1.1,3.4,18-.3c16.5-.2,18.3-.4,21.7-2Z"/>
  <path id="path2225" class="cls-1" d="M322.2,120.5c-2-.8-3.4-3.1-3.4-5.6s29.7-98.3,31.3-101.4c.7-1.4,2.6-2.9,4.7-3.8,3.4-1.5,4.9-1.6,32.9-1.2,23.2.3,30.2.6,33.3,1.5,12.9,3.9,19.8,10.1,21.3,19.3.7,4-.7,12.1-2.9,16.6-2.5,5.3-8.1,10.3-15.7,14l-6.8,3.3,4.5,4.3c5.6,5.4,7.5,10.6,6.6,18.4-1.6,14.5-8.1,24.1-20.2,29.7-10,4.6-13.6,5-50.5,5.3-19.6.2-34.3,0-35.3-.5h0ZM392.7,97.9c4.5-2.3,6.7-6.5,6.7-12.7,0-3.7-.4-5.3-1.6-6.9-3.4-4.4-5.3-4.8-22.3-5.1-8.6-.2-15.6-.1-15.6,0s-1.8,6.1-4,13.2c-2.2,7.1-4,13-4,13.2s8.4.2,18.8.1c17.2-.2,19-.4,21.9-1.9h0ZM405.9,51.2c5.9-2.7,8.9-9.7,6.9-15.8-1.6-4.8-3.7-5.4-22.5-5.7l-16.6-.3-2.6,8.5c-1.4,4.7-3.1,10.1-3.7,12l-1.1,3.4,18-.3c16.5-.2,18.3-.4,21.7-2Z"/>
  <path id="path2301" class="cls-1" d="M322.2,120.5c-2-.8-3.4-3.1-3.4-5.6s29.7-98.3,31.3-101.4c.7-1.4,2.6-2.9,4.7-3.8,3.4-1.5,4.9-1.6,32.9-1.2,23.2.3,30.2.6,33.3,1.5,12.9,3.9,19.8,10.1,21.3,19.3.7,4-.7,12.1-2.9,16.6-2.5,5.3-8.1,10.3-15.7,14l-6.8,3.3,4.5,4.3c5.6,5.4,7.5,10.6,6.6,18.4-1.6,14.5-8.1,24.1-20.2,29.7-10,4.6-13.6,5-50.5,5.3-19.6.2-34.3,0-35.3-.5h0ZM392.7,97.9c4.5-2.3,6.7-6.5,6.7-12.7,0-3.7-.4-5.3-1.6-6.9-3.4-4.4-5.3-4.8-22.3-5.1-8.6-.2-15.6-.1-15.6,0s-1.8,6.1-4,13.2c-2.2,7.1-4,13-4,13.2s8.4.2,18.8.1c17.2-.2,19-.4,21.9-1.9h0ZM405.9,51.2c5.9-2.7,8.9-9.7,6.9-15.8-1.6-4.8-3.7-5.4-22.5-5.7l-16.6-.3-2.6,8.5c-1.4,4.7-3.1,10.1-3.7,12l-1.1,3.4,18-.3c16.5-.2,18.3-.4,21.7-2Z"/>
  <path id="path2340" class="cls-1" d="M322.2,120.5c-2-.8-3.4-3.1-3.4-5.6s29.7-98.3,31.3-101.4c.7-1.4,2.6-2.9,4.7-3.8,3.4-1.5,4.9-1.6,32.9-1.2,23.2.3,30.2.6,33.3,1.5,12.9,3.9,19.8,10.1,21.3,19.3.7,4-.7,12.1-2.9,16.6-2.5,5.3-8.1,10.3-15.7,14l-6.8,3.3,4.5,4.3c5.6,5.4,7.5,10.6,6.6,18.4-1.6,14.5-8.1,24.1-20.2,29.7-10,4.6-13.6,5-50.5,5.3-19.6.2-34.3,0-35.3-.5h0ZM392.7,97.9c4.5-2.3,6.7-6.5,6.7-12.7,0-3.7-.4-5.3-1.6-6.9-3.4-4.4-5.3-4.8-22.3-5.1-8.6-.2-15.6-.1-15.6,0s-1.8,6.1-4,13.2c-2.2,7.1-4,13-4,13.2s8.4.2,18.8.1c17.2-.2,19-.4,21.9-1.9h0ZM405.9,51.2c5.9-2.7,8.9-9.7,6.9-15.8-1.6-4.8-3.7-5.4-22.5-5.7l-16.6-.3-2.6,8.5c-1.4,4.7-3.1,10.1-3.7,12l-1.1,3.4,18-.3c16.5-.2,18.3-.4,21.7-2Z"/>
  <path id="path2379" class="cls-1" d="M322.2,120.5c-2-.8-3.4-3.1-3.4-5.6s29.7-98.3,31.3-101.4c.7-1.4,2.6-2.9,4.7-3.8,3.4-1.5,4.9-1.6,32.9-1.2,23.2.3,30.2.6,33.3,1.5,12.9,3.9,19.8,10.1,21.3,19.3.7,4-.7,12.1-2.9,16.6-2.5,5.3-8.1,10.3-15.7,14l-6.8,3.3,4.5,4.3c5.6,5.4,7.5,10.6,6.6,18.4-1.6,14.5-8.1,24.1-20.2,29.7-10,4.6-13.6,5-50.5,5.3-19.6.2-34.3,0-35.3-.5h0ZM392.7,97.9c4.5-2.3,6.7-6.5,6.7-12.7,0-3.7-.4-5.3-1.6-6.9-3.4-4.4-5.3-4.8-22.3-5.1-8.6-.2-15.6-.1-15.6,0s-1.8,6.1-4,13.2c-2.2,7.1-4,13-4,13.2s8.4.2,18.8.1c17.2-.2,19-.4,21.9-1.9h0ZM405.9,51.2c5.9-2.7,8.9-9.7,6.9-15.8-1.6-4.8-3.7-5.4-22.5-5.7l-16.6-.3-2.6,8.5c-1.4,4.7-3.1,10.1-3.7,12l-1.1,3.4,18-.3c16.5-.2,18.3-.4,21.7-2Z"/>
</svg>