<svg width="132" height="68" viewBox="0 0 132 68" fill="none" xmlns="http://www.w3.org/2000/svg">
<g clip-path="url(#clip0)">
<path d="M101.708 42.208C105.411 42.4454 109.074 41.8124 112.698 42.7618C118.253 44.2255 118.174 51.1085 115.338 53.6007C114.865 54.0358 114.826 54.4314 114.983 54.9852C115.889 58.3081 116.756 61.6309 117.701 64.9538C117.937 65.7845 118.41 66.5361 118.843 67.4459C118.607 67.4459 118.331 67.525 118.056 67.525C116.283 67.525 114.51 67.4855 112.738 67.525C111.989 67.5646 111.714 67.3273 111.556 66.6152C110.768 63.3319 109.902 60.0486 109.035 56.8049C108.956 56.528 108.799 56.2906 108.562 56.0928C108.287 59.8904 108.287 63.6879 109.232 67.4855C106.632 67.4855 104.19 67.4855 101.748 67.4855C102.811 59.0992 102.851 50.7525 101.708 42.208ZM108.444 43.0387C108.444 47.1527 108.444 51.1876 108.444 55.2226C109.468 55.3017 110.217 54.9061 110.453 53.9963C110.729 52.9677 111.044 51.8997 111.044 50.8316C111.044 48.8537 110.965 46.8363 110.729 44.8584C110.571 43.5134 109.783 43.0387 108.444 43.0387Z" fill="white"/>
<path d="M0 39.5182C1.02417 31.1319 1.02417 22.7852 0 14.3989C2.40286 14.3989 4.84512 14.3989 7.20859 14.3989C6.93286 18.4338 6.69651 22.4687 6.42077 26.5037C6.53894 26.5432 6.65712 26.5828 6.81468 26.5828C7.91764 25.04 8.94181 23.4973 10.0842 21.9941C11.8174 19.7788 12.4476 17.4449 11.1477 14.755C11.1083 14.6363 11.1477 14.5176 11.1477 14.3198C13.3142 14.3198 15.4808 14.3198 17.8048 14.3198C17.5291 14.5572 17.4109 14.7154 17.2534 14.8341C14.8899 16.4164 13.1961 18.6316 11.6204 20.9655C11.4628 21.2029 11.4235 21.5985 11.5022 21.8358C13.1173 26.6619 14.7717 31.5275 16.4261 36.3536C16.7807 37.4216 17.4109 38.4106 18.0018 39.5578C16.6231 39.5578 15.3626 39.5578 14.0627 39.5578C13.1961 39.5578 12.2901 39.5182 11.4235 39.5578C10.7932 39.5973 10.5175 39.3204 10.3205 38.727C9.21755 35.2855 8.0752 31.8835 6.93286 28.442C6.89346 28.3233 6.81468 28.2442 6.7359 28.1255C6.61773 28.1255 6.53894 28.1651 6.42077 28.1651C6.65712 31.8835 6.93286 35.6415 7.20859 39.4391C4.88451 39.5182 2.44226 39.5182 0 39.5182Z" fill="white"/>
<path d="M69.4466 54.9855C69.5254 58.0314 68.9346 61.0774 67.2407 63.8464C65.9408 65.9826 64.2076 67.6044 61.6472 67.9209C58.4959 68.356 56.1718 66.8528 54.5174 64.3607C52.3509 61.1961 51.8388 57.5567 51.9964 53.7987C52.1145 51.1879 52.6266 48.6166 53.9659 46.3618C55.4234 43.7906 57.4323 41.8522 60.5836 41.8127C63.6955 41.7731 65.7833 43.4741 67.3195 46.0454C68.8952 48.7353 69.486 51.7022 69.4466 54.9855ZM63.3804 54.7877C63.3016 54.7877 63.1834 54.7877 63.1047 54.7877C63.1047 52.8889 63.2228 50.9506 63.0653 49.0518C62.9077 47.3112 62.5532 45.5707 62.1987 43.8301C62.0411 43.0785 61.4896 42.4852 60.7018 42.4852C59.8746 42.4852 59.4019 43.1181 59.2049 43.8697C58.8898 45.0564 58.4959 46.2827 58.4565 47.509C58.3777 52.2955 58.3383 57.1216 58.4565 61.9477C58.4959 63.4113 58.9686 64.9145 59.4413 66.3386C59.5988 66.7737 60.2685 67.3275 60.7412 67.3275C61.1745 67.3275 61.726 66.7737 62.0411 66.3386C62.3168 65.943 62.5138 65.3892 62.5532 64.8749C62.8289 61.4334 63.1047 58.1105 63.3804 54.7877Z" fill="white"/>
<path d="M99.1873 48.0235C97.4147 46.006 96.4693 42.9205 92.9241 43.1183C92.9241 46.6785 92.9241 50.2783 92.9241 53.9176C95.1694 54.155 95.6421 51.9397 97.0995 50.8321C97.0995 53.4034 97.0995 55.7768 97.0995 58.4272C96.7844 58.0712 96.5087 57.8734 96.3511 57.5965C95.839 56.8845 95.4057 56.1724 94.8936 55.4999C94.4209 54.867 93.7907 54.511 92.8847 54.7879C92.8847 58.7437 92.8847 62.6995 92.8847 66.6948C94.4997 66.7344 95.9572 66.5366 96.8632 64.9938C97.7692 63.4906 98.6752 61.9479 99.5812 60.4447C99.7387 60.2073 99.8569 59.97 100.014 59.7326C100.093 59.7326 100.172 59.7722 100.251 59.7722C100.211 60.2864 100.172 60.8007 100.133 61.3149C99.8963 63.1742 99.66 65.0334 99.3448 66.8926C99.3054 67.1695 98.8721 67.5651 98.6358 67.5651C94.5785 67.6047 90.4818 67.5651 86.4245 67.5651C86.3851 67.5651 86.3063 67.5255 86.2669 67.486C87.2911 59.1393 87.2911 50.7925 86.2275 42.3272C87.2517 42.3272 88.2759 42.3272 89.3395 42.3272C92.1756 42.3272 94.9724 42.3272 97.8086 42.2876C98.6358 42.2876 99.0297 42.4063 99.0691 43.3952C99.1085 44.938 99.3842 46.4412 99.5418 47.9444C99.4236 47.9048 99.3054 47.9444 99.1873 48.0235Z" fill="white"/>
<path d="M95.4056 20.3327C95.2086 20.0558 95.0511 19.7789 94.8541 19.502C94.0269 18.2362 93.2785 16.9307 92.4119 15.7045C91.8998 14.9529 91.1513 14.399 90.1666 14.5968C89.2212 14.7551 88.8273 15.6253 88.5909 16.456C88.2758 17.6428 88.0394 18.9086 87.9607 20.1349C87.6061 24.9214 87.5273 29.7475 88.1576 34.534C88.3152 35.8394 88.7091 37.1448 89.103 38.4502C89.2212 38.8458 89.7333 39.3205 90.0878 39.3601C90.4423 39.3601 90.9938 38.8854 91.1119 38.5293C91.4665 37.6591 91.7422 36.7097 91.821 35.7999C91.9392 34.6527 91.9392 33.4659 91.7816 32.3583C91.624 31.2507 91.2695 30.2222 90.9544 29.0355C93.1209 29.0355 95.2874 29.0355 97.5327 29.0355C97.3358 30.0244 97.06 30.9342 96.9812 31.8441C96.8631 33.5055 96.8631 35.2065 96.7449 36.8679C96.7055 37.2239 96.5479 37.7382 96.2722 37.936C94.3814 39.1227 92.3725 39.993 90.0484 40.1512C87.9213 40.2699 86.3456 39.2809 84.9669 37.8173C82.958 35.6416 82.052 32.9517 81.6187 30.064C81.146 26.8202 81.3429 23.616 82.4065 20.5305C83.5094 17.3263 85.4002 14.9133 88.8667 14.1221C90.8756 13.6474 92.8845 14.0035 94.8935 14.4386C95.0905 14.4782 95.3268 14.6759 95.3662 14.8342C95.5238 16.6538 95.6419 18.4735 95.7601 20.2932C95.6419 20.2536 95.5238 20.2932 95.4056 20.3327Z" fill="white"/>
<path d="M67.3984 20.8865C67.3984 24.8819 67.3984 28.7586 67.3984 32.6748C67.3984 34.7318 68.068 36.5515 69.2104 38.2129C69.4861 38.6085 69.7224 39.0436 70.077 39.5579C68.4619 39.5579 66.9651 39.5579 65.2712 39.5579C67.0045 35.4043 66.5711 31.132 66.5318 26.9389C66.4924 22.7458 67.162 18.5131 65.3894 14.3595C67.2408 14.3595 68.8952 14.3199 70.5891 14.3991C70.9042 14.3991 71.2981 14.8738 71.4951 15.2298C73.6616 18.9087 75.8281 22.5875 77.9552 26.2664C78.0734 26.4642 78.2309 26.6224 78.3491 26.7807C78.3491 24.6445 78.3885 22.5084 78.3491 20.3723C78.2703 18.1571 77.0098 16.377 75.7887 14.4386C77.4037 14.4386 78.8218 14.4386 80.3975 14.4386C80.1611 15.3089 79.9248 16.1396 79.7278 17.0099C78.94 20.5305 79.3339 24.0907 79.2945 27.6114C79.2551 31.2507 79.2945 34.8505 79.2945 38.4898C79.2945 38.648 79.2945 38.8458 79.2551 38.9645C79.1763 39.2018 79.0582 39.3996 78.9794 39.5974C78.743 39.4392 78.4673 39.3601 78.3491 39.1623C77.1674 37.1448 75.9856 35.1274 74.8039 33.1495C72.4404 29.1146 70.077 25.1192 67.7135 21.0843C67.5953 21.0448 67.5165 21.0052 67.3984 20.8865Z" fill="white"/>
<path d="M69.1709 42.2876C72.401 42.2876 75.5917 42.2876 78.9005 42.2876C78.6248 42.9205 78.3097 43.4743 78.1127 44.0677C77.3643 46.2829 77.7976 48.4982 78.2309 50.6739C78.7036 53.166 79.255 55.6186 79.7671 58.1503C79.8459 58.0316 79.9641 57.9921 80.0035 57.8734C80.6731 54.8275 81.3822 51.7815 82.0518 48.7355C82.5639 46.4016 82.2882 44.2259 80.4762 42.248C82.0912 42.248 83.5093 42.248 85.0455 42.248C84.7698 42.9601 84.4153 43.593 84.2183 44.3051C83.1942 48.0631 82.2094 51.8211 81.264 55.6186C80.358 59.2975 79.5702 63.0159 78.743 66.7344C78.6248 67.2486 78.3884 67.4069 77.8763 67.4464C75.5917 67.5651 75.5917 67.5651 75.119 65.3498C73.7009 59.1393 72.3222 52.9287 70.8253 46.7576C70.4314 45.3336 69.7618 43.8699 69.1709 42.2876Z" fill="white"/>
<path d="M42.5031 14.3989C44.8272 14.3989 47.2695 14.3989 49.7905 14.3989C48.333 22.4687 49.3178 30.499 48.9239 38.5688C49.8299 38.8061 50.5783 38.6083 51.051 37.9754C52.1146 36.5513 53.06 35.0877 54.0448 33.6241C54.3993 33.0702 54.7144 32.4373 55.0295 31.844C55.1083 31.844 55.2265 31.8835 55.3053 31.8835C55.2265 32.7933 55.1477 33.7032 55.0295 34.5734C54.8326 35.958 54.5962 37.3821 54.4781 38.7666C54.3993 39.4391 54.1235 39.6369 53.4933 39.6369C50.0662 39.5973 46.5998 39.5973 43.1728 39.6369C42.4243 39.6369 42.2668 39.5182 42.385 38.6875C42.7001 36.4722 42.9758 34.257 43.0546 32.0417C43.1728 29.0353 43.1728 26.0289 43.0546 23.0621C42.9364 20.1744 42.6607 17.3262 42.5031 14.3989Z" fill="white"/>
<path d="M28.1252 14.3599C30.5675 14.3599 33.0098 14.3599 35.5702 14.3599C34.0733 22.4297 35.0975 30.539 34.7036 38.5693C36.1217 38.7671 36.9489 38.0946 37.5791 37.1848C38.6033 35.642 39.5093 34.0597 40.4547 32.4774C40.5729 32.2796 40.691 32.0818 40.8092 31.8444C40.888 31.884 41.0062 31.884 41.085 31.9236C41.0062 32.7543 40.9274 33.5454 40.8486 34.3762C40.6517 35.8002 40.4547 37.2243 40.2577 38.688C40.179 39.2022 40.0608 39.6374 39.3911 39.6374C35.7278 39.5978 32.0644 39.5978 28.401 39.5978C28.3222 39.5978 28.2828 39.5582 28.1646 39.5187C29.1888 31.1324 29.2282 22.7857 28.1252 14.3599Z" fill="white"/>
<path d="M38.1702 42.2876C40.77 42.2876 43.2122 42.2876 45.7727 42.2876C44.2758 50.3574 45.3394 58.4272 44.9061 66.4575C46.206 66.7739 47.0332 66.1805 47.5847 65.3103C48.6088 63.8071 49.5542 62.1852 50.4996 60.6424C50.6966 60.3655 50.8148 60.0491 51.0117 59.7722C51.0905 59.8117 51.2087 59.8117 51.2875 59.8513C51.1299 61.0776 51.0117 62.2643 50.8542 63.4906C50.736 64.5587 50.6178 65.6663 50.3815 66.6948C50.3027 67.0113 49.9088 67.486 49.6724 67.486C46.0484 67.5255 42.4638 67.5255 38.8398 67.486C38.6823 67.486 38.5247 67.4464 38.2096 67.3673C39.2731 63.2137 39.0762 59.0206 39.0762 54.7879C39.0762 50.6739 39.2337 46.4807 38.1702 42.2876Z" fill="white"/>
<path d="M130.109 42.2874C130.227 44.1466 130.306 45.9267 130.424 47.7068C130.306 47.7463 130.188 47.7463 130.07 47.7859C129.282 46.7178 128.534 45.6102 127.746 44.5817C127.037 43.6719 126.288 42.7621 124.988 42.8016C123.57 42.8016 122.664 43.8301 122.901 45.2542C123.137 46.797 124.082 47.8255 125.146 48.854C127.037 50.7132 129.124 52.4142 130.464 54.7481C132.158 57.6358 132.512 60.6818 131.37 63.8464C130.267 66.8528 127.549 67.9209 124.594 67.8813C123.413 67.8813 122.27 67.5648 121.089 67.367C120.419 67.2484 120.064 66.8528 120.025 66.0616C119.946 64.4002 119.71 62.7388 119.513 61.0773C119.474 60.8004 119.513 60.5235 119.513 60.2466C119.592 60.2071 119.71 60.1675 119.789 60.128C120.064 60.5235 120.34 60.9191 120.616 61.3147C121.876 62.897 123.137 64.5189 124.397 66.1012C124.555 66.2594 124.713 66.4177 124.91 66.5363C125.619 66.9715 126.446 67.4066 127.076 66.8132C127.588 66.3385 127.982 65.5078 128.021 64.7958C128.1 62.6597 126.722 61.1565 125.382 59.6928C124.397 58.5852 123.334 57.5567 122.389 56.4491C120.261 53.9569 119.08 51.1483 119.592 47.7463C119.986 45.096 121.364 43.2763 123.925 42.406C125.973 41.6544 128.021 41.8127 130.109 42.2874Z" fill="white"/>
<path d="M56.6052 14.3989C59.1263 14.3989 61.5685 14.3989 63.9714 14.3989C62.9078 22.7852 62.9078 31.1319 63.9714 39.5182C61.5685 39.5182 59.0475 39.5182 56.6052 39.5182C57.7082 31.1319 57.6688 22.7852 56.6052 14.3989Z" fill="white"/>
<path d="M26.2346 39.5582C23.7529 39.5582 21.3501 39.5582 18.8684 39.5582C19.932 31.1324 19.8926 22.7857 18.8684 14.3599C21.2713 14.3599 23.7135 14.3599 26.1558 14.3599C25.171 22.7857 25.1316 31.0929 26.2346 39.5582Z" fill="white"/>
<path d="M16.7019 42.248C18.12 42.248 19.4987 42.248 20.9562 42.248C20.1683 44.6611 21.2319 46.7972 21.5076 49.2893C22.453 46.7972 22.65 44.5424 21.3501 42.248C22.8863 42.248 24.1862 42.248 25.5649 42.248C24.7377 44.5424 25.6831 46.6785 25.9982 48.8938C26.3528 46.7181 27.5739 44.582 26.4315 42.248C27.0224 42.248 27.5739 42.248 28.086 42.248C27.5739 44.3051 27.0618 46.4016 26.5891 48.4586C26.2346 50.0409 25.8407 51.6628 25.5255 53.2451C25.4074 53.7594 25.3286 54.0758 24.6983 54.0758C24.1075 54.0758 23.9499 53.8385 23.8317 53.2847C23.4772 51.2672 23.0439 49.2498 22.4924 47.2323C22.0197 49.1707 21.5864 51.109 21.1137 53.0473C20.9955 53.5616 20.9955 54.0759 20.2077 54.1154C19.4593 54.155 19.4199 53.6803 19.3017 53.1265C18.7502 50.4761 18.1988 47.8653 17.5685 45.2544C17.4109 44.2655 17.017 43.3161 16.7019 42.248Z" fill="white"/>
<path d="M56.5657 11.9465C56.5657 7.99068 56.5657 4.07445 56.5657 0.0791016C57.5898 0.0791016 58.7322 0.0791016 59.8351 0.0791016C59.717 1.93832 59.5988 3.67887 59.4806 5.53809C60.1503 5.53809 60.7018 5.53809 61.4502 5.53809C61.3714 3.75798 61.2532 1.97788 61.1351 0.0791016C62.1986 0.0791016 63.3804 0.0791016 64.4439 0.0791016C64.4439 3.99533 64.4439 7.91156 64.4439 11.9465C63.3804 11.9465 62.238 11.9465 61.1351 11.9465C61.2138 9.96857 61.332 8.06979 61.4108 6.0919C60.7411 6.0919 60.1897 6.0919 59.4412 6.0919C59.5594 7.99068 59.6382 9.92901 59.7564 11.9069C58.7716 11.9465 57.6292 11.9465 56.5657 11.9465Z" fill="white"/>
<path d="M28.1252 47.9049C28.1646 46.283 28.4798 44.3447 30.016 42.881C31.3947 41.5756 33.2067 41.5361 34.5854 42.9206C36.2004 44.5029 36.5944 46.5995 36.3974 48.7356C36.2792 50.041 35.8853 51.4255 35.2551 52.5332C33.837 54.9462 30.9614 54.9462 29.3858 52.6123C28.5585 51.4255 28.2434 50.3179 28.1252 47.9049ZM33.4824 47.984C33.3643 46.5204 33.3249 45.0172 33.1279 43.5931C33.0885 43.1579 32.5765 42.8019 32.3007 42.4063C32.025 42.8019 31.4735 43.1579 31.4735 43.5535C31.3947 46.5995 31.3947 49.6454 31.4735 52.6914C31.4735 53.1265 32.0644 53.5221 32.3401 53.9177C32.6158 53.5221 32.8916 53.087 33.1673 52.6914C33.2067 52.6123 33.2067 52.4936 33.2067 52.4145C33.2855 50.9113 33.4037 49.4476 33.4824 47.984Z" fill="white"/>
<path d="M108.641 34.0196C108.523 35.7997 108.208 37.5007 106.987 38.8852C105.45 40.6257 103.166 40.5862 101.747 38.7665C99.8173 36.3139 99.7779 31.7252 101.669 29.2331C103.087 27.3343 105.411 27.2552 106.987 28.9957C108.286 30.4198 108.562 32.1999 108.641 34.0196ZM105.687 33.2284C105.529 31.6461 105.45 30.4198 105.253 29.2331C105.175 28.8375 104.702 28.521 104.426 28.2046C104.15 28.521 103.835 28.8375 103.638 29.1935C103.52 29.3517 103.52 29.6286 103.52 29.866C103.441 32.0812 103.363 34.2569 103.363 36.4722C103.363 37.2238 103.481 37.9754 103.717 38.6874C103.835 39.083 104.229 39.3599 104.465 39.6764C104.741 39.3203 105.214 39.0039 105.253 38.6083C105.45 36.7095 105.568 34.7712 105.687 33.2284Z" fill="white"/>
<path d="M65.6651 0C67.3195 0 69.0528 0 70.7466 0C71.3375 0 71.5738 0.197789 71.6132 0.7516C71.6526 1.34497 71.7314 1.97789 71.8101 2.84817C70.7072 1.93834 70.3527 0.356021 68.6982 0.55381C68.6982 2.17568 68.6982 3.83711 68.6982 5.45899C68.777 5.5381 68.8558 5.61722 68.8952 5.69633C69.4467 5.22164 69.9588 4.74695 70.589 4.23269C70.589 5.37987 70.589 6.40838 70.589 7.55556C69.8012 7.15998 69.8012 5.89412 68.6589 6.0128C68.6589 7.83246 68.6589 9.65212 68.6589 11.4322C69.6436 11.7487 70.1951 11.1949 70.6284 10.5224C71.0617 9.88947 71.4556 9.17743 72.0859 8.58406C71.9677 9.61257 71.8495 10.6411 71.6526 11.6696C71.6526 11.7882 71.3375 11.9465 71.1799 11.9465C69.2891 11.9465 67.3983 11.9465 65.6257 11.9465C65.6651 7.95113 65.6651 4.0349 65.6651 0Z" fill="white"/>
<path d="M114.471 35.6023C113.88 34.9298 113.368 34.376 112.895 33.8222C112.816 33.8618 112.738 33.9013 112.659 33.9409C112.659 35.8792 112.659 37.8175 112.659 39.7954C111.635 39.7954 110.492 39.7954 109.311 39.7954C109.783 35.8396 109.783 32.0025 109.271 27.9281C110.729 27.9281 112.226 27.9281 113.683 27.9281C113.919 27.9281 114.156 27.9676 114.353 27.9281C115.062 27.849 115.377 28.1259 115.337 28.8775C115.298 29.4313 115.456 29.9455 115.534 30.6971C114.431 29.906 114.156 28.3632 112.58 28.4819C112.58 30.1038 112.58 31.8047 112.58 33.4662C112.659 33.5453 112.698 33.6244 112.777 33.7035C113.329 33.2288 113.841 32.7146 114.471 32.2003C114.471 33.3079 114.471 34.376 114.471 35.6023Z" fill="white"/>
<path d="M16.0715 45.4127C15.4807 44.5028 14.9292 43.6326 14.3383 42.7227C14.2595 42.7623 14.1808 42.8019 14.1414 42.881C14.1414 46.5599 14.1414 50.2783 14.1414 54.0363C13.1172 54.0363 12.0142 54.0363 10.9901 54.0363C10.9901 50.2783 10.9901 46.5599 10.9901 42.8414C10.9113 42.8019 10.8719 42.7623 10.7931 42.7227C10.2416 43.593 9.65078 44.4633 9.0993 45.3336C9.02052 45.3336 8.98113 45.3336 8.90234 45.3336C8.98113 44.3446 9.05991 43.3161 9.17808 42.248C11.4628 42.248 13.6687 42.248 15.9534 42.248C16.0715 43.3161 16.1503 44.3446 16.2685 45.3731C16.2291 45.4127 16.1503 45.4127 16.0715 45.4127Z" fill="white"/>
<path d="M55.4234 0C55.5416 1.22629 55.6598 2.2548 55.778 3.2833C55.7386 3.32286 55.6598 3.36242 55.6204 3.36242C55.0295 2.41303 54.4386 1.5032 53.8084 0.55381C53.769 0.593368 53.6902 0.632926 53.6508 0.672484C53.6508 4.39092 53.6508 8.10937 53.6508 11.9069C52.7054 11.9069 51.5631 11.9069 50.4995 11.9069C50.4995 8.18848 50.4995 4.43048 50.4995 0.712042C50.4601 0.672484 50.3814 0.632926 50.342 0.593368C49.7511 1.5032 49.1208 2.41303 48.53 3.36242C48.4512 3.36242 48.4118 3.36242 48.333 3.32286C48.4512 2.29436 48.53 1.30541 48.6875 0.276905C48.6875 0.158232 48.9633 0 49.1208 0C51.2086 0 53.2569 0 55.4234 0Z" fill="white"/>
</g>
<defs>
<clipPath id="clip0">
<rect width="132" height="68" fill="white"/>
</clipPath>
</defs>
</svg>
