<?xml version="1.0" encoding="UTF-8"?>
<svg id="svg2" xmlns="http://www.w3.org/2000/svg" xmlns:svg="http://www.w3.org/2000/svg" xmlns:sodipodi="http://sodipodi.sourceforge.net/DTD/sodipodi-0.dtd" xmlns:rdf="http://www.w3.org/1999/02/22-rdf-syntax-ns#" xmlns:inkscape="http://www.inkscape.org/namespaces/inkscape" xmlns:dc="http://purl.org/dc/elements/1.1/" xmlns:cc="http://creativecommons.org/ns#" version="1.1" viewBox="0 0 3624.6 1080">
  <defs>
    <style>
      .cls-1 {
        fill: #fff;
        stroke-width: 0px;
      }
    </style>
  </defs>
  <sodipodi:namedview id="namedview33" bordercolor="#666666" borderopacity="1.0" fit-margin-bottom="0" fit-margin-left="0" fit-margin-right="0" fit-margin-top="0" inkscape:current-layer="svg2" inkscape:cx="1640.6349" inkscape:cy="1640.6349" inkscape:pagecheckerboard="0" inkscape:pageopacity="0.0" inkscape:pageshadow="2" inkscape:window-height="1017" inkscape:window-maximized="1" inkscape:window-width="1920" inkscape:window-x="1912" inkscape:window-y="-8" inkscape:zoom="0.0984375" pagecolor="#ffffff" showgrid="false"/>
  <g id="g10">
    <g id="g12">
      <path id="path14" class="cls-1" d="M314.7,119.3c7-7.8,10.5-18.6,10.5-32.3s-3.5-24.3-10.5-32.2c-7-7.9-16.3-11.9-27.9-11.9s-21,3.9-28,11.9c-7.1,7.9-10.6,18.6-10.6,32.2s3.5,24.5,10.5,32.3c7,7.9,16.4,11.8,28.2,11.8s20.9-3.9,27.9-11.8M224.8,150c-16.1-16.1-24.2-37.1-24.2-63s8.1-46.9,24.2-62.9C241,8,261.6,0,286.8,0s45.6,8,61.7,24.1c16.1,16,24.2,37,24.2,62.9s-8,46.9-24.2,63c-16.1,16-36.7,24.1-61.7,24.1s-45.8-8-62-24.1"/>
      <path id="path16" class="cls-1" d="M459,65.3v106.5h-42.9V2.3h58.1l57.9,106.9V2.3h42.9v169.5h-57.2l-58.8-106.5Z"/>
      <path id="path18" class="cls-1" d="M811.3,40.7h-51.1v131.1h-45.2V40.7h-51.1V2.3h147.4v38.4Z"/>
      <path id="path20" class="cls-1" d="M950.7,119.3c7-7.8,10.5-18.6,10.5-32.3s-3.5-24.3-10.5-32.2c-7-7.9-16.3-11.9-27.9-11.9s-21,3.9-28,11.9c-7.1,7.9-10.6,18.6-10.6,32.2s3.5,24.5,10.5,32.3c7,7.9,16.4,11.8,28.2,11.8s20.9-3.9,27.9-11.8M860.8,150c-16.1-16.1-24.2-37.1-24.2-63s8-46.9,24.2-62.9C877,8,897.6,0,922.8,0s45.5,8,61.7,24.1c16.1,16,24.2,37,24.2,62.9s-8.1,46.9-24.2,63c-16.1,16-36.7,24.1-61.7,24.1s-45.8-8-62-24.1"/>
      <path id="path22" class="cls-1" d="M1142.2,119.7c6.9-7.6,10.4-18.5,10.4-32.7s-3.3-26.9-10-33.8c-6.7-6.9-17.2-10.3-31.5-10.3h-18.3v88.1h18.3c13.9,0,24.3-3.8,31.2-11.4M1109.4,2.3c29.6,0,52.1,7.8,67.5,23.3,15.5,15.6,23.2,36,23.2,61.5s-1.7,22.1-5,32c-3.4,9.9-8.6,18.9-15.5,26.9-6.9,8.1-16.2,14.4-27.9,19-11.7,4.6-25.2,6.9-40.6,6.9h-63.5V2.3h61.9Z"/>
      <path id="path24" class="cls-1" d="M1307.9,57.9l-17.9,47.2h35.7l-17.9-47.2ZM1339.3,141.3h-62.9l-11.5,30.5h-44.1L1287.1,2.3h43.4l66.2,169.5h-45.9l-11.5-30.5Z"/>
      <path id="path26" class="cls-1" d="M1787.1,119.3c7-7.8,10.6-18.6,10.6-32.3s-3.5-24.3-10.6-32.2c-7-7.9-16.3-11.9-27.9-11.9s-21,3.9-28,11.9c-7.1,7.9-10.6,18.6-10.6,32.2s3.5,24.5,10.5,32.3c7,7.9,16.4,11.8,28.2,11.8s20.9-3.9,27.9-11.8M1697.3,150c-16.1-16.1-24.2-37.1-24.2-63s8.1-46.9,24.2-62.9C1713.5,8,1734.1,0,1759.3,0s45.6,8,61.7,24.1c16.1,16,24.2,37,24.2,62.9s-8,46.9-24.2,63c-16.1,16-36.7,24.1-61.7,24.1s-45.8-8-61.9-24.1"/>
      <path id="path28" class="cls-1" d="M1927,65.3v106.5h-43V2.3h58.1l57.9,106.9V2.3h42.9v169.5h-57.1l-58.8-106.5Z"/>
      <path id="path30" class="cls-1" d="M2137.1,107.4v64.4h-45.2V2.3h128v40.7h-82.8v28.3h66.9v36.1h-66.9Z"/>
      <path id="path32" class="cls-1" d="M2262.6,171.8h45.2V2.3h-45.2v169.5Z"/>
      <path id="path34" class="cls-1" d="M2430.2,57.9l-17.8,47.2h35.7l-17.9-47.2ZM2461.7,141.3h-62.9l-11.5,30.5h-44.1L2409.5,2.3h43.4l66.2,169.5h-45.9l-11.5-30.5Z"/>
      <path id="path36" class="cls-1" d="M2597.5,65.3v106.5h-43V2.3h58.1l57.9,106.9V2.3h42.9v169.5h-57.1l-58.8-106.5Z"/>
      <path id="path38" class="cls-1" d="M2756.2,171.8v-33.9l72.8-96.1h-72.8V2.3h128.8v31.7l-73.9,98.3h73.9v39.5h-128.8Z"/>
      <path id="path40" class="cls-1" d="M3009.3,57.9l-17.9,47.2h35.7l-17.9-47.2ZM3040.7,141.3h-62.8l-11.6,30.5h-44.1L2988.5,2.3h43.4l66.2,169.5h-45.9l-11.6-30.5Z"/>
      <path id="path42" class="cls-1" d="M3182.7,2.3h129.1v39.5h-83.9v25.1h68v36.2h-68v28h83.9v40.7h-129.1V2.3Z"/>
      <path id="path44" class="cls-1" d="M121.4,112c-2.5,4.3-5.5,7.9-9.1,10.9-6.8,5.5-15.3,8.2-25.5,8.2s-21.2-3.9-28.2-11.8c-7-7.8-10.5-18.6-10.5-32.3s3.5-24.3,10.6-32.2c7.1-7.9,16.4-11.9,28-11.9s18.5,2.8,25.2,8.5c3.3,2.8,6,6.1,8.3,9.9h50.2l-.7-2.6c-4.8-18.1-14.3-32.4-28.6-43C126.9,5.3,108.8,0,86.8,0S40.6,8,24.7,23.9C8.8,40,.8,61,.8,87s7.9,47.1,23.9,63.1c15.9,16,36.6,23.9,62.1,23.9s39.8-5.2,54-15.6c14.2-10.4,23.6-24.9,28.5-43.6l.5-2.8h-48.3Z"/>
      <path id="path46" class="cls-1" d="M1593.6,112c-2.5,4.3-5.5,7.9-9.1,10.9-6.8,5.5-15.3,8.2-25.6,8.2s-21.1-3.9-28.2-11.8c-7-7.8-10.5-18.6-10.5-32.3s3.6-24.3,10.6-32.2c7.1-7.9,16.4-11.9,28-11.9s18.5,2.8,25.2,8.5c3.3,2.8,6,6.1,8.3,9.9h50.2l-.7-2.6c-4.8-18.1-14.4-32.4-28.6-43C1599,5.3,1580.9,0,1558.9,0s-46.1,8-62,23.9c-15.9,16-23.8,37-23.8,63.1s7.9,47.1,23.8,63.1c15.9,16,36.6,23.9,62,23.9s39.9-5.2,54-15.6c14.2-10.4,23.6-24.9,28.5-43.6l.5-2.8h-48.3Z"/>
      <path id="path48" class="cls-1" d="M3461.8,80.8c-6.7-3.4-13.8-6.4-21.5-8.9-7.7-2.6-14.9-4.5-21.5-5.9-6.6-1.4-12.2-3.5-16.6-6.4-4.5-2.8-6.7-6.6-6.7-11.1s1.6-7.4,4.9-9.7c3.4-2.3,7.9-3.4,13.6-3.4s12.4,1.9,16.3,5.8c1.4,1.4,2.5,3.1,3.4,4.9h46.7c-2.2-12.8-8.1-23-17.7-30.9C3450.4,5.1,3434.1,0,3414.1,0s-35,4.6-46.7,13.7c-11.7,9.1-17.5,21.4-17.5,36.8s1.7,17.6,5,24.4c3.3,6.8,7.6,11.9,12.8,15.4,5.2,3.6,11,6.5,17.4,8.8,6.4,2.4,12.8,4.2,19.1,5.5,6.4,1.4,12.1,2.8,17.3,4.2,5.2,1.4,9.5,3.5,12.8,6.1,3.3,2.6,4.9,6,4.9,10.2,0,8.9-6.6,13.4-19.9,13.4s-24.1-6.1-27.3-18.2h-45.9c2,15.3,8.3,27.6,18.9,36.7,13.1,11.3,31.1,17,54,17s37.9-4.8,49.2-14.3c11.2-9.6,16.9-21.5,16.9-35.6s-2.2-19.6-6.7-27c-4.5-7.4-10-12.9-16.6-16.2"/>
      <path id="path50" class="cls-1" d="M378.4,601.8l-192.6.2v-254.3l-185.9.3v580.1c0,63.5,9.7,83.1,80.9,83.1h105c0-49.3,0-255.5,0-255.5h192.6c0-.1,0,159.4,0,159.4,0,67.9,13,96.3,93.9,96.3h91.8c0-68.1.2-663.4.2-663.4l-185.8-.2v254.1Z"/>
      <path id="path52" class="cls-1" d="M2931.6,490.7h309.7c-30.2,37.9-290.2,364-290.2,364-17.3,22.4-19.6,43.4-19.6,61.1v1.2c0,67.9,13,96.3,93.8,96.3h459.4v-146.5h-257c-17.5,0-24.3.1-29.3-11.3-4.1-11.7,3.6-21.4,17.3-38.3l268.9-339.2v-130.1h-553.1c0-.1,0,142.9,0,142.9Z"/>
      <path id="path54" class="cls-1" d="M3601.9,986.3c-8.8,8.9-19.3,13.3-31.6,13.3s-23-4.4-31.9-13.3c-8.7-8.8-13.1-19.6-13.1-32.3s4.3-22.7,12.9-31.6c8.9-9,19.5-13.6,32.1-13.6s22.8,4.6,31.7,13.6c8.7,9,12.9,19.5,12.9,31.6s-4.3,23.3-13,32.3M3608.7,915.6c-10.7-10.7-23.5-16.1-38.6-16.1s-26.8,4.8-37.6,14.8c-11.1,10.7-16.9,23.9-16.9,39.9s5.2,28.3,15.7,38.7c10.6,10.5,23.4,15.7,38.7,15.7s27.5-5.1,38.1-15.3c11-10.6,16.4-23.6,16.4-39.1s-5.2-28.2-16-38.6"/>
      <path id="path56" class="cls-1" d="M3577,949.8c-1.9,1.5-4.9,2.3-8.7,2.3h-6v-17.7h3.8c4,0,7,.4,9.3,1.2,3.2,1.3,4.8,3.5,4.8,6.9s-1,5.7-3.1,7.2M3594.8,980.9v-7.2c0-6.2-1.8-10.8-5.4-13.7-1.9-1.6-4.7-2.7-8.5-3.5,4.2-.4,7.6-1.7,10.3-4.1,3-2.1,4.2-6,4.2-10.9s-2.7-11.4-8-14.3c-3.3-1.6-7-2.8-11.8-3.1-1,0-5.1-.2-12.7-.2h-16.7v60.4h15.8v-21.5h3.4l3.3.4c2.6,0,4.3.4,5.5.8,2.2.9,3.6,2.4,4.4,4.6.5,1.3.7,3.7,1,7.4.3,3.5.6,6.5,1.1,8.4h15l-.5-1.7c-.3-.7-.3-1.2-.5-1.8"/>
      <path id="path58" class="cls-1" d="M629.8,877.4c0,78,.2,132.1,82,132.1s369.7.2,369.7.2v-142.9h-231c-14.8,0-24.6-2.7-30-8.3-7.4-7.6-8.9-22.3-8.9-41.4s.9-57.6.9-61.2h193.4v-153.8h-193.4v-111.1h269.1v-143.1h-451.8c0,0,0,529.6,0,529.6Z"/>
      <path id="path60" class="cls-1" d="M2877.8,490.9v-143.1s-451.8,0-451.8,0v529.5c0,78,.2,132.1,82,132.1s369.7.2,369.7.2v-142.9h-231c-14.8,0-24.6-2.7-30.1-8.3-7.4-7.6-8.9-22.3-8.9-41.4s.9-57.7.9-61.2h193.4v-153.7h-193.4v-111.1h269.1Z"/>
      <path id="path62" class="cls-1" d="M2019,882.6c-56,0-62.3-41.3-62.3-100.6v-297.2h61c53.3,0,179.7,33.2,179.7,200.8s-121.7,197.1-178.4,197.1M2057.3,348.3h-283.3c0-.1-.3,515.8-.3,515.8,0,81.6,9.2,144.3,124.3,148,33.3,1.1,105.8,2,159.1,0,262.1,0,317.1-172.2,317.1-327.9,0-323.8-242.6-336-316.9-336"/>
      <path id="path64" class="cls-1" d="M1589.4,781.4c10.7-3.3,21.9-7.2,33.7-12.4,33.3-19.5,101.3-61.3,101.3-185s-22.1-134.4-65.5-175.5c-69.6-65.8-168.2-61.2-172.4-60.9h.7c0,0-349.4.1-349.4.1v565.5c0,67.9,13,96.3,93.8,96.3h88.8V484.3h116.7s105.8,1.2,105.8,107-92.6,103.5-92.6,103.5l-93.8,1.1c-3.1,0-6-.4-9.1-.4,0,212.3,172.2,384.4,384.5,384.4,0-120.6-55.6-228.1-142.5-298.6"/>
    </g>
  </g>
</svg>