<?xml version="1.0" encoding="UTF-8"?>
<svg id="Layer_1" data-name="Layer 1" xmlns="http://www.w3.org/2000/svg" version="1.1" viewBox="0 0 2500 2500">
  <defs>
    <style>
      .cls-1 {
        fill-opacity: 0;
      }

      .cls-1, .cls-2 {
        fill: #fff;
        fill-rule: evenodd;
        stroke-width: 0px;
      }
    </style>
  </defs>
  <path class="cls-1" d="M0,0h2500v2500H0V0Z"/>
  <path class="cls-2" d="M2220.1,1224.2c13.7,0,25.4,5,35,15,9.7,9.9,14.5,21.5,14.5,34.9.2,13.3-5,26-14.5,35.3-9.7,9.8-21.3,14.7-35,14.7-13.2.2-25.8-5.1-34.9-14.6-9.8-9.8-14.6-21.5-14.6-35.4s4.8-25.1,14.3-34.9c9.7-10,21.5-15,35.2-15h0ZM2280.1,1273.9c0-16.6-5.9-30.8-17.6-42.5-11.8-11.7-25.9-17.6-42.5-17.6s-29.6,5.4-41.4,16.3c-12.5,11.6-18.7,26.3-18.7,43.8s5.9,31.2,17.4,42.7c11.6,11.6,25.8,17.4,42.7,17.4s30.4-5.7,42-17c12-11.6,18.1-26.1,18.1-43.1h0ZM2231,1261.4c0,3.7-1.1,6.4-3.4,8-2.3,1.6-5.6,2.5-9.7,2.5h-6.6v-19.6h4.2c4.4,0,7.9.5,10.2,1.4,3.5,1.4,5.4,4.1,5.4,7.7h0ZM2211.2,1307.3v-23.4h3.7l3.9.2c2.7.2,4.7.5,5.9,1.1,2.3.7,4.2,2.5,5,4.8.6,1.4.9,4.1,1.1,8.1.1,4,.5,7,.9,9.1h16.4l-.5-1.9c-.2-.7-.4-1.2-.4-1.9,0-.7-.3-1.3-.3-1.9v-6c0-6.7-1.8-11.6-5.7-14.9-2.2-1.6-5.3-2.9-9.3-3.9,4.4-.5,8.4-1.9,11.3-4.5,3.2-2.5,4.8-6.6,4.8-12.2s-3-12.7-9-15.9c-3.4-1.9-7.8-3.1-13.1-3.4-4.6-.1-9.1-.2-13.7-.2h-18.5s0,66.5,0,66.5h17.5ZM1897.9,838.4c0,24.5-24.5,44.3-54.7,44.3s-54.7-19.8-54.7-44.3,24.5-44.4,54.7-44.4c30.2,0,54.7,19.9,54.7,44.4ZM1712.7,514.7c-48.8,177.1-403.1,197.7-603.3,236.2-200.2,38.5-344.1,182.2-492.9,351.7-148.9,169.4-277.3,442.8-287.5,465.9-10.2,23.1-16.7,69.4-37.3,71.9-20.5,2.5-16.6-46.3-16.6-46.3,14.1-241.3,134.7-429.9,134.7-429.9,89.9-3.9,177.1-71.9,141.2-110.4-36-38.5-128.4,48.8-128.4,48.8,0,0-59-5.1-118.1,11.6-59.1,16.7-78.2,93.7-78.2,93.7,0,0-.4,18.7,12.8,5.1,40.4-41.8,118.1-35.9,118.1-35.9-79.5,115.6-136.1,272.1-166.8,367.1-30.9,95-13,148.9,15.3,182.3,28.3,33.4,74.4,53.9,108-46.2,43.8-131.7,192.4-369.6,413.2-582.7,220.8-213.1,533.9-295.2,718.7-354.3,184.9-59,236.2-123.2,264.4-172,28.2-48.8,2.6-56.5,2.6-56.5h0ZM493.9,1080.6c12.2-8.8,25.6-11.3,29.6-5.5,4.1,5.7-2.6,17.5-14.8,26.3-12.3,8.8-25.5,11.2-29.6,5.5-4.1-5.8,2.6-17.5,14.9-26.3ZM784.9,1182.8c0,24.5-24.5,44.3-54.8,44.3s-54.7-19.9-54.7-44.3,24.6-44.4,54.7-44.4,54.8,19.9,54.8,44.4ZM2263.1,940.9c-23.1-25.7-71.7-1.3-89.9,29.5-17.9,30.8-26.8,62.9-56.3,86-29.6,23.2-12.9-20.6-12.9-20.6l113-238.7s-59.2,11.6-77.1,15.4c-18,3.9-33.4,36-33.4,36-83.4-55.2-193.8,65.5-231,145.1-37.2,79.5-93.8,145-106.5,159.2-12.9,14.1-60.5,48.8-24.4-20.5,36-69.4,106.5-227.2,106.5-227.2l-91.1,30.8c-71.9,146.3-145,245.2-177.1,276-26.4,25.4-53.8,5.1-25.7-36,37-53.8,74.5-125.8,101.4-173.3,26.9-47.5,1.3-43.6-11.5-38.5-12.9,5.1-45,11.5-70.6,23.1-25.7,11.6-33.4,9-34.7-14.1-1.3-23.1-5-56.5-43.5-26.9-38.6,29.5-33.3,82-28,88.6,5.3,6.6,34.2,11.2,2.1,46.7-32.2,35.4-5.5,6.8-45.7-31.5-40.3-38.3-129,26.2-167.3,80.6-38.2,54.4-112.8,187.5-153.2,227.8-40.3,40.3-56.5,26.2-36.2-16.1,20.1-42.4,50.3-110.8,82.5-169.3,32.3-58.4,62.6-52.4,62.6-52.4v-18.1c-32.2,0-20.1-30.3-20.1-30.3l66.5-143.1-82.7,16.1s-66.6,143.1-80.6,171.4c-14.1,28.3-32.3,32.2-54.4,34.3-22.2,2-20.1,24.2-12,28.1,8,4.1,28.1,2,28.1,2-26.2,92.8-165.2,231.8-195.4,260-30.4,28.2-60.5,36.3-62.6,2-2.1-34.3,84.7-197.5,112.9-225.7,28.3-28.3,32.3,0,32.3,0-22.2,4-78.8,62.4-48.4,88.7,30.3,26.2,115-34.3,72.7-104.8-42.4-70.6-149.2,44.3-181.4,84.7-32.3,40.3-108.9,197.5-145.1,227.8-36.4,30.2-28.4-18.1-16.2-52.4,12.1-34.3,104.8-207.7,104.8-207.7l-92.8,26.2s-131.5,209.4-90.2,273.9c55.9,87.1,159-90.5,161.9-95.3,2.8-4.8,5.7-19.2,8.6-3.8,2.9,15.4,7.7,20.1,7.7,20.1,67.5,125.2,219.6-84.7,238.8-114.5,19.2-29.8,17.2-9.6,17.2-9.6,0,0-21.1,58.7,32.8,83.7,64.6,30,132.9-100.1,150.2-122.2,17.2-22.2,25,16.3,25,16.3,23.1,66.4,131.9,50.1,176.3-44.3,44.1-94.4,113.5-183.9,113.5-183.9,25.1-25.1,49.1-60.7,79.8-72.2,25.1-9.4,30.9-8.7,8.8,17.3-22.3,26-82.9,82.8-110.8,133.8-27.9,51-18.2,119.4,40.4,120.3,58.8,1,145.4-124.2,154-135.7,8.7-11.5,5.8,2.9,5.8,2.9,0,0-12.4,27.9,19.2,52.9,58.4,45.8,140.6-95.3,143.6-100.1,2.8-4.8,12.5-14.4,13.4-5.7.9,8.6-3.8,49.1,55.9,61.6,59.7,12.5,116.5-90.4,125.5-105.5,9.1-15.2,13.3-6.1,13.3-6.1-9.7,39.3,26.6,66.6,82.3,39.9,55.7-26.6,84.1-111.9,84.1-111.9,12.7-32.1,97.3-54.4.2,64.9-143.3,176-462.1,215.6-770,303-308.2,87.2-639.3,223.3-747.1,278.5s-198.6,177.5-107.2,263.1c91.4,85.7,207.5-27,221.4-40.9,13.9-14,20.1-27.4,13-34.7-7.3-7.2-20.7,8.2-20.7,8.2-67.4,71.2-157.9,3.9-30.9-86.6,229.8-163.6,606.5-285,903.1-390.8,296.5-105.9,450.5-175.2,555.1-268.9,64.4-57.8,71.7-120.7,48.6-146.3h0ZM1401.4,1074.7c-3.4,8.2-16.3,18.6-16.3,18.6-10.4,16.3-4.7,48.8,8.3,60.5,12.7,11.6,4.5,25.6,4.5,25.6-17.5,55.9-66.3,114.1-75.7,128-9.2,14-59.2,57-60.4-3.5-1.2-60.5,111.7-215.3,122.3-226.9,10.3-11.7,20.8-10.5,17.3-2.3ZM2033.1,1005.7c-38.2,67.6-81.9,115.2-97.6,106.4-15.8-8.9,2.7-70.9,41-138.5,38.3-67.6,82.1-115.2,97.8-106.3,15.6,8.9-2.8,70.8-41.2,138.4h0Z"/>
  <path class="cls-2" d="M522.3,637.9c0,5.7-3,10.5-9.2,14.2-5.7,3.6-12.4,5.6-19.1,5.6-4.8,0-9.2-1.4-13.1-4.3-6-4.3-9.1-11.1-9.1-20.3s7.2-21.6,21.8-30.6c7.5-4.6,17.1-8.8,28.7-12.7v48h0ZM249.2,667.4c11.2-1.2,18.6-3.2,21.9-6,3.4-2.8,5-10,5-21.5v-137.7c0-10.8-1.6-17.9-5-21.2-3.3-3.3-10.6-5.4-21.9-6.3v-5.7h86.6v5.7c-11.2.7-18.8,2.5-22.5,5.6-4,3.1-5.9,9.8-5.9,20v148.3c0,3.4.6,6.1,1.8,8,1.2,2,3.7,3.2,7.6,3.7,2.3.3,4.8.5,7.3.6,2.6.1,7.3.2,14.4.2,27.5,0,46-2.2,55.7-6.8,9.6-4.5,19.2-16.1,28-34.6h7.9l-15.1,53.4h-165.9v-5.8ZM444.9,643.6c0,9.5,3.1,17.1,9.5,23.3,6,5.9,14.1,9.2,22.6,9.1,8.2,0,17-2.7,26.2-8.1,5.4-3.2,12-8.2,19.7-14.8.4,6,2,11.2,5,15.6,3.1,4.3,8.1,6.5,15,6.5s11.5-1.9,17.3-5.6c3.6-2.5,7.1-5.7,10.4-9.5v-7.6c-3.8,2.6-6.5,4.3-8,4.9-1.8.7-3.8,1.1-5.7,1-4.2,0-6.9-1.9-8.2-5.6-.8-2.2-1.2-6.3-1.2-12.2v-60.7c0-13.4-1.9-23.6-5.6-30.5-7.1-12.7-20.2-19.1-39.9-19.1s-29.5,3.9-38.3,11.5c-8.7,7.8-13.1,15.1-13.1,22.2s1.2,7,3.6,9.9c2.4,3,5.9,4.5,10.3,4.5s5.4-.7,7.4-2c3.8-2.2,5.6-6.1,5.6-11.7s-.3-2.6-.8-5.5c-.3-2-.6-4.1-.6-6.1,0-4.8,2.2-8.4,6.9-11.2,4.5-2.6,9.5-3.9,14.7-3.9,10.9,0,18,3.3,21.5,10.1,2,4,3,11.2,3,21.4v12.8c-27.7,10.4-46.2,18.6-55.5,24.7-14.6,9.8-21.9,22-21.9,36.7h0ZM1142.7,2013.1c-14.1,0-24.7-6.1-31.7-18.4-7.1-12.2-10.7-26.2-10.7-41.8s3.3-29.2,10-40c6.7-10.9,16-16.3,28.1-16.3s12.7,2.7,19.3,7.8c6.7,5.2,10.1,14.1,10.1,26.7v62.6c0,4-2.3,8.2-7,12.6-4.6,4.5-10.5,6.7-18.1,6.7h0ZM2256.7,1897.6c14.3,0,25,7.5,32.6,22.4,7.4,14.9,11.3,31.3,11.2,48,0,16.3-2.9,29.5-8.8,39.6-6,10.2-14.3,15.1-25.3,15.1s-24.8-7.5-32.6-22.6c-7.8-15.1-11.8-31.8-11.7-48.7,0-21.8,4.9-37.2,14.5-46.1,5.7-5.1,12.4-7.6,20.1-7.6ZM2001.1,1827.5c2.8-3,6.5-4.5,10.8-4.5s7.7,1.5,10.7,4.4,4.4,6.6,4.4,10.8-1.5,7.7-4.4,10.6c-2.8,2.9-6.7,4.5-10.7,4.4-4.3,0-8-1.4-10.8-4.4-2.9-2.8-4.5-6.6-4.4-10.6,0-4.2,1.5-7.7,4.4-10.7ZM1794.3,1903.5c10.4,9.4,15.6,22.6,15.6,39.8h-92.8c1,22.6,6.1,39.2,15.3,49.5,9.3,10.3,20.2,15.5,32.9,15.5s18.9-2.7,26-8c7-5.4,13.4-13,19.4-22.9l5.1,1.8c-4.1,12.4-11.5,23.9-22.5,34.5-11,10.6-24.5,15.9-40.3,15.9s-32.6-6.9-42.7-20.7c-9.8-13.8-14.9-29.6-14.9-47.7s5.7-36.3,17.5-50.5c11.5-14.2,26.7-21.2,45.4-21.2,13.7,0,25.7,4.7,36.1,14ZM1724.3,1914.3c-3,5.3-5.4,12-6.7,19.9h62c-1.2-9.7-2.9-17-5.6-21.8-4.8-8.6-12.9-12.9-24.1-12.9s-19.8,5-25.6,14.8h0ZM1276.8,1899.5c11.2,0,19.4,4.3,24.1,12.9,2.6,4.8,4.5,12.1,5.6,21.8h-61.9c1.4-8,3.5-14.6,6.7-19.9,5.9-9.8,14.4-14.8,25.6-14.8ZM1137.3,1888.5c-17.5,0-32.3,7.6-44.5,22.8-12.1,15.1-18.1,33.3-18.1,54.5s5.1,31.7,15.1,44.6c10.1,12.8,23.2,19.2,39.7,19.2s17.2-2.3,24.2-6.8c3.9-2.6,8.6-7,14-13v18.4l1,1.4,23.2-8.6c13.7-4.7,20.8-7.1,21.5-7.3v-4.8c-1.1.2-2.2.3-3.3.4-1.1,0-2,0-3.2,0-6.7,0-10.9-1.3-12.5-3.8-1.5-2.6-2.3-7.1-2.3-13.4l.2-118.9c0-5.6,0-11.5,0-17.4,0-5.9,0-11.6.1-17.1v-15.4c0,0-.8-.3-.8-.3-3.5,1.3-6.2,2.3-7.8,2.8-3.1,1.2-7.2,2.3-11.4,3.6-4.4,1.3-8.7,2.5-13.2,3.6l-12,3.1v4.8c3-.3,5-.5,5.9-.6.9-.1,1.9-.2,3-.2,4.9,0,8,1.1,9.4,3.3,1.3,2.2,2,6.3,2,12.3v45.8c-3.2-3.3-7-6.2-11.1-8.4-6-3.1-12.6-4.7-19.3-4.6h0ZM2360.7,2024.7c-3-3.1-4.7-7.3-4.7-11.6,0-4.5,1.6-8.4,4.9-11.5,3.1-3.1,7.3-4.8,11.6-4.7,4.4,0,8.3,1.5,11.5,4.7,3.1,3.1,4.8,7,4.8,11.5s-1.7,8.4-4.8,11.6c-3,3.2-7.1,4.9-11.5,4.8-4.4,0-8.7-1.7-11.8-4.8ZM2195,1958.7c0,20.7,6.4,37.9,19.5,51.6,12.7,13.7,28.5,20.6,47.2,20.6s35.2-7.1,47.5-21.5c12.1-14.3,18.3-31.1,18.3-50.4s-6.3-37.9-19.1-50.6c-12.5-12.7-28.4-18.9-47.6-18.9s-35.1,6.6-47.4,20c-12.3,13.4-18.4,29.8-18.4,49.2h0ZM2160.8,1898.7c8.8,6.2,13.2,13,13.2,20.4s-1.2,6.2-3.4,9c-2.2,2.7-5.7,4.1-10.4,4.1-3.3,0-6.6-1.2-9-3.5-2.6-2.3-4.6-5.7-5.8-10.2l-1.8-7c-1.3-5.2-3.4-8.7-6.6-10.9-3.1-2.1-7.4-3.1-12.8-3.1-11.1,0-20.5,4.9-28.2,14.5-7.8,9.8-11.5,22.7-11.5,38.8s4.2,28,12.6,39.7c8.4,11.7,20,17.6,34.3,17.6s19.2-3.3,27.2-10c4.4-3.8,9.5-9.9,15.1-18.2l4.2,2.5c-5.7,11.6-11.4,20.8-17.6,27.5-11.8,12.9-25.6,19.4-41,19.4s-28.7-6-40.5-17.9c-11.5-11.9-17.5-28.1-17.5-48.6s6.4-37.4,19.2-51.8c12.9-14.5,29-21.7,48.5-21.7,12.4,0,22.9,3.1,31.7,9.3h0ZM1977.9,2022.7c10.3-1,16.8-2.7,19.6-5.3,2.6-2.6,3.9-9.6,3.9-21.2v-70.7c0-6.2-.4-10.6-1.2-13.1-1.6-3.9-4.6-6-9.4-6s-2.2,0-3.2.3c-1,.2-3.9,1-8.8,2.3v-3.8l6.2-1.9c17.3-5.4,29.1-9.5,35.9-12.2,2.7-1.1,4.3-1.6,5.3-1.6.3.6.3,1.3.3,2.1v104.6c0,11.2,1.4,18.2,4,21,2.6,2.9,8.7,4.7,18.2,5.4v3.9h-70.7v-3.9h0ZM1891.1,1892.3v3.8c-3.2,0-6.4.5-9.4,1.6-2.5.9-3.9,2.8-3.9,5.7s2.6,7.1,7.8,15.7c2.8,4.4,6.3,9.8,10.6,16.2,5.7-7.8,10-13.9,12.7-18.3,4.8-7.2,7.1-12,7.1-14.1s-1-4.2-3.2-5.1c-1.9-.9-4.7-1.5-8.5-1.8v-3.8h46.9v3.8c-4.8.3-9.5,1.7-13.8,4-4.4,2.3-7.8,5.3-10.4,9.2l-24.6,35.6,39,59.2c4.7,7.6,8.8,12.6,12.1,14.9,3.4,2.2,7.2,3.5,11.6,3.6v3.9h-60.1v-3.9l4.3-.3c2,0,3.9-.8,5.5-2,1.4-1,2.3-2.6,2.2-4.4,0-1.9-1.7-6-5.5-12.4-1.7-3.2-4.3-7.5-7.8-13-2.3-3.8-4.7-7.5-7.2-11.2-3.2-4.8-5.8-8.9-8.2-12.3l-24.2,37.5c-1.8,2.9-3.6,5.9-5.2,8.9-.6,1.1-.9,2.4-1,3.6,0,1.9.8,3.1,2.3,3.7,1.4.6,4.7,1.2,9.8,1.9v3.9h-42.5v-3.9c5.2-1,9.1-2.4,11.6-4,2.6-1.7,5.9-5.6,10.1-11.6l33-49.7-27.1-42.7c-5.7-8.5-9.5-13.6-11.8-15.2-2.1-1.5-6.7-2.7-14-3.3v-3.8h61.7,0ZM1799.9,1840.3c-2,2.2-4.3,4.1-6.9,5.6l-46.1,29.1h-12.1l44-44.2c1.6-1.6,3.5-3.2,6-4.8,2.2-1.7,4.8-2.5,7.4-2.5s4.9.9,6.9,2.7c2.1,1.7,3.3,4.4,3.2,7.1.1,2.5-.7,5-2.2,7h0ZM1427.2,2020.8c12.3-1.3,20.2-4.1,23.6-8.4,3.5-4.4,5.2-14.4,5.2-30.1v-121c0-10.8-1.7-17.8-5.2-21-3.3-3.2-11.1-5.2-23.1-5.7v-5.8h58.7l68.8,149,67.2-149h59.4v5.8c-11.1.8-18.3,2.8-21.7,6.1-3.2,3.2-4.8,10.2-4.8,20.8v132.6c0,10.9,1.6,17.8,4.8,20.8,3.4,3.1,10.6,5.1,21.7,6.1v5.8h-83.7v-5.8c12.1-.9,19.5-3.1,22.5-6.5,3.1-3.4,4.4-11.3,4.4-24v-133.8l-76.5,170h-4l-75.3-163.1v118.9c0,16.3,2.3,26.9,7.1,31.9,3.1,3.2,10,5.4,20.7,6.5v5.8h-69.7v-5.8h0ZM1285.1,1889.5c-18.6,0-33.8,7-45.4,21.2-11.6,14.2-17.5,31-17.5,50.5s5,33.9,15.1,47.7c10,13.8,24,20.7,42.4,20.7s29.3-5.3,40.3-15.9c11.1-10.5,18.5-22,22.4-34.5l-5-1.8c-6,9.9-12.5,17.5-19.6,22.9-6.9,5.3-15.6,8-25.9,8s-23.5-5.2-32.9-15.5c-9.3-10.3-14.4-26.8-15.4-49.5h93c0-17.2-5.2-30.5-15.6-39.8-9.8-9.1-22.8-14.2-36.2-14h0Z"/>
</svg>