<svg width="782" height="275" viewBox="0 0 782 275" fill="none" xmlns="http://www.w3.org/2000/svg">
<path fill-rule="evenodd" clip-rule="evenodd" d="M196.861 0C241.495 0 260.092 20.5025 260.092 67.1322C260.092 113.762 241.495 134.355 196.861 134.355H133.267V0H196.861ZM179.08 29.2116V105.053H186.61C203.211 105.053 211.104 100.698 211.104 67.1322C211.104 33.5661 203.211 29.2116 186.61 29.2116H179.08ZM319.15 81.3752H308.718V134.355H262.904V0H336.024C366.778 0 386.192 7.89257 386.192 35.6527C386.192 56.6088 375.124 66.3158 355.982 69.6724V70.0353C372.584 72.5754 378.844 82.4638 380.839 101.061L382.2 113.49C382.926 120.747 384.378 127.642 385.92 132.813V134.355H339.472C338.292 129.638 337.113 122.925 336.115 113.399L334.754 100.971C333.212 87.5441 330.218 81.3752 319.15 81.3752ZM326.136 29.2116H308.718V54.4315H326.136C334.391 54.4315 338.746 51.0749 338.746 41.8216C338.746 32.3868 334.391 29.2116 326.136 29.2116ZM491.336 103.783H434.817V81.6474H487.344V50.8028H434.817V31.1168H487.797L509.842 134.627H561.824L575.432 51.2564C576.612 44.1803 577.247 38.3743 577.791 28.9395H578.154C578.789 38.465 579.333 44.1803 580.513 51.2564L594.302 134.627H646.828L675.677 0.272219H635.579L625.056 63.3221C623.876 70.3982 623.241 76.2042 622.697 85.639H622.334C621.699 76.1135 621.155 70.3982 619.975 63.3221L609.724 0.272219H554.023L543.59 63.3221C542.41 70.3982 541.775 76.2042 541.231 85.639H540.868C540.233 76.1135 539.689 70.3982 538.51 63.3221L528.077 0.272219H389.004V134.627H491.336V103.783ZM35.9248 168.556H0V137.802H118.57V168.556H82.5545V272.067H35.9248V168.556ZM122.29 272.067H224.621V241.313H168.103V219.178H220.629V188.333H168.103V168.556H224.621V137.802H122.29V272.067ZM406.241 244.851C420.484 244.851 424.022 238.954 424.022 221.173V137.802H470.651V222.716C470.651 260.999 448.153 274.063 406.241 274.063C364.328 274.063 341.83 260.999 341.83 222.716V161.117L318.062 204.028L354.803 272.158H301.823L274.97 217.273V272.158H228.34V137.802H274.97V194.683L303.456 137.802H388.46V221.173C388.46 238.954 391.998 244.851 406.241 244.851ZM521.001 137.802H474.462V272.067H577.156V239.68H521.001V137.802ZM725.482 219.178V241.223H782V272.067H679.578V160.845L649.641 272.067H590.582L554.658 137.712H602.829L617.072 200.762C620.066 214.188 621.245 220.629 622.425 230.155H622.788C623.967 220.72 625.146 214.188 628.14 200.762L642.383 137.712H780.367V168.556H725.482V188.333H778.008V219.178H725.482Z" fill="white"/>
</svg>
