<?xml version="1.0" encoding="UTF-8"?>
<svg id="svg3336" xmlns="http://www.w3.org/2000/svg" xmlns:xlink="http://www.w3.org/1999/xlink" xmlns:rdf="http://www.w3.org/1999/02/22-rdf-syntax-ns#" xmlns:dc="http://purl.org/dc/elements/1.1/" xmlns:cc="http://creativecommons.org/ns#" version="1.1" viewBox="0 0 504 80.4">
  <defs>
    <style>
      .cls-1 {
        clip-path: url(#clippath);
      }

      .cls-2 {
        fill: none;
      }

      .cls-2, .cls-3 {
        stroke-width: 0px;
      }

      .cls-4 {
        clip-path: url(#clippath-1);
      }

      .cls-5 {
        clip-path: url(#clippath-2);
      }

      .cls-3 {
        fill: #fff;
      }
    </style>
    <clipPath id="clippath">
      <rect class="cls-2" x="2" y="1.7" width="505.3" height="76.8"/>
    </clipPath>
    <clipPath id="clippath-1">
      <rect class="cls-2" x="2" y="1.7" width="505.3" height="76.8"/>
    </clipPath>
    <clipPath id="clippath-2">
      <rect class="cls-2" x="2" y="1.7" width="505.3" height="76.8"/>
    </clipPath>
  </defs>
  <g id="g3344">
    <g id="g3532">
      <g class="cls-1">
        <g id="g3534">
          <g id="g3540">
            <path id="path3542" class="cls-3" d="M496.5,69.7c-4,4.2-8.6,6.8-14.3,7.9-3.9.8-7.2.9-11.2.5-5.2-.5-9.5-2.2-13.7-5.3-3.4-2.6-5.9-5.3-8-9-1.7-2.9-2.6-5.5-3.2-8.8-.8-4.5-.6-8.5.6-12.9,2.7-10.1,10.3-17.2,20.5-19.3,5.8-1.2,11-1.1,16.8.4,4.1,1.1,7.4,2.8,10.5,5.7,2,1.8,3.4,3.6,4.6,6,1.5,2.8,2.1,5.5,1.9,8.7h-18.2c-.4-2.4-1.6-4.4-3.5-5.9-2.5-1.9-5.8-2.1-8.6-.4-1.9,1.2-3.1,2.7-3.7,4.8-1.6,5-1.6,9.6-.2,14.6.6,2.1,1.6,3.8,3.2,5.3,1.8,1.7,4.1,2.5,6.6,2.1,1.5-.2,2.8-.9,3.8-2.1,1.1-1.2,1.7-2.5,2-4.1.2-1.1.3-2.1.4-3.2h19.2c.4,5.8-1.5,10.9-5.4,15.1"/>
          </g>
        </g>
      </g>
    </g>
    <path id="path3544" class="cls-3" d="M423,16.1h19.9V2h-19.9v14.1Z"/>
    <path id="path3546" class="cls-3" d="M423,76.6h19.9V23.3h-19.9v53.3Z"/>
    <g id="g3548">
      <path id="path3550" class="cls-3" d="M381.8,28.9c2.6-2.3,5.1-3.9,8.3-5.4,5.1-2.4,10.3-2.8,15.7-1.2,5.8,1.7,10.1,5.8,11.9,11.6.9,2.8,1.3,5.3,1.3,8.2v34.4h-21.2v-30.9c0-1-.1-1.9-.4-2.9-.5-1.8-1.7-3.1-3.4-3.8-3.8-1.6-8-.2-10.1,3.3-.9,1.5-1.3,2.9-1.3,4.6v29.7h-20.5V23.3h19.2l.4,5.6"/>
    </g>
    <g id="g3552">
      <path id="path3554" class="cls-3" d="M146,28.9c2.6-2.3,5.1-3.9,8.3-5.4,5.2-2.4,10.3-2.8,15.7-1.2,5.8,1.7,10.1,5.8,11.9,11.6.9,2.8,1.3,5.3,1.3,8.2v34.4h-21.2v-30.9c0-1-.1-1.9-.4-2.9-.5-1.8-1.7-3.1-3.4-3.8-3.7-1.6-8-.2-10.1,3.3-.9,1.5-1.3,2.9-1.3,4.6v29.7h-20.5V23.3h19.2l.4,5.6"/>
    </g>
    <g id="g3556">
      <g class="cls-4">
        <g id="g3558">
          <g id="g3564">
            <path id="path3566" class="cls-3" d="M271.6,57c1.5.3,2.8.6,4.3,1.1,1.2.4,2.1,1.4,2.3,2.6.3,1.4,0,2.7-1.1,3.7-1,1-2.1,1.6-3.5,1.8-1.9.3-3.5.1-5.3-.5-.9-.3-1.6-.7-2.3-1.3-.9-.8-1.5-1.7-1.9-2.8-.3-1-.4-1.8-.4-2.8h-19.5v1.1c0,1.8.3,3.4.9,5.1,1,2.6,2.3,4.6,4.3,6.5,2.6,2.5,5.4,4,8.9,5,7.2,2.1,13.7,2.5,21.1,1.3,3.5-.5,6.3-1.5,9.5-3.1,1.4-.7,2.5-1.5,3.7-2.5,5.3-4.4,7.2-11.2,5.1-17.7-.8-2.5-2.1-4.4-4-6.1-2.7-2.3-5.4-3.8-8.8-4.8-.7-.2-1.4-.4-2.1-.6-4.2-1.2-7.8-1.9-12.1-2.6-1.1-.2-2.1-.4-3.3-.6-.5-.1-1-.3-1.4-.5-1.2-.5-1.7-2-1.2-3.2,0,0,0-.1,0-.2.6-1.2,1.6-1.9,2.9-2.3,2.2-.6,4.3-.6,6.5.2,2.1.7,3.4,2.6,3.3,4.9h18.8c0-2.3-.4-4.3-1.1-6.4-.8-2.2-2-3.9-3.8-5.3-1.6-1.3-3.1-2.1-5-2.9-1.9-.7-3.5-1.2-5.5-1.5-4.7-.8-8.7-1-13.4-.8-2.7.2-5,.5-7.6,1.1-3.6.8-6.4,2.2-9.3,4.5-2.4,1.9-4,4.1-5.1,7.1-.5,1.3-.7,2.5-.7,3.9-.1,2.3.2,4.3,1.1,6.5,1.6,3.9,4.3,6.7,8.2,8.2,2,.8,3.7,1.3,5.8,1.7,4.1.8,7.6,1.5,11.7,2.2"/>
          </g>
        </g>
      </g>
    </g>
    <g id="g3568">
      <path id="path3570" class="cls-3" d="M38.3,53.6h-13.7v-17.5h8.9c1.7,0,3.1,0,4.8-.1,2.3-.1,4.3-1.2,5.7-3.1.7-1,1.2-2,1.3-3.2.1-1,.2-1.9,0-3-.4-3.9-3.6-6.8-7.5-6.8h-13.3v56.7H2V2h37c1.5,0,2.7,0,4.2.1,9.8.5,17.9,6,22.1,14.9,2.2,4.6,2.9,9.1,2.3,14.2-1.2,10.7-8.7,19.1-19.2,21.4-3.5.8-6.5,1.1-10.1,1.1"/>
    </g>
    <g id="g3572">
      <path id="path3574" class="cls-3" d="M335.6,22.3c-2.1-.3-3.9-.5-6-.5s-3.9.1-6,.5c-6.1,1-11.1,3.4-15.5,7.7-4.8,4.6-7.4,10-8,16.6-.4,4.1,0,7.5,1,11.5,1.7,6,4.8,10.7,9.8,14.5,3.3,2.5,6.5,4,10.5,4.9,2.9.6,5.3.9,8.2.9s5.4-.3,8.2-.9c4-.9,7.3-2.4,10.5-4.9l-11.5-12.5c-1.8,4-6.6,5.8-10.6,4-1.9-.8-3.2-2.2-4-4-.8-1.7-1.2-3.3-1.5-5.1-.6-3.7-.5-7,.2-10.7.4-1.9,1-3.5,2.1-5.2,2.4-3.6,7.2-4.6,10.8-2.2.9.6,1.6,1.3,2.2,2.2,1.1,1.6,1.7,3.2,2.1,5.2.7,3.7.8,7,.2,10.7-.3,1.9-.7,3.4-1.5,5.1l11.5,12.5c5-3.8,8.1-8.4,9.8-14.5,1.1-3.9,1.4-7.4,1-11.5-.6-6.6-3.2-12-8-16.6-4.5-4.3-9.4-6.7-15.5-7.7"/>
    </g>
    <g id="g3576">
      <g class="cls-5">
        <g id="g3578">
          <g id="g3584">
            <path id="path3586" class="cls-3" d="M242.1,72.4c-.3-4.4-.5-8.1-.6-12.5-.1-5.8-.2-10.7-.2-16.5,0-3.1-.4-5.8-1.1-8.8-1-4-3.3-7-6.9-9-2.2-1.2-4.1-1.9-6.6-2.5-7.7-1.6-14.5-1.8-22.2-.4-2.2.4-4,.9-6,1.7-4.7,2-8,5.5-9.5,10.4-.6,1.9-.7,3.6-.5,5.5,0,.4.1.7.3,1l17.9.4c0-1.1.1-2.1.5-3.2.6-1.6,1.7-2.8,3.4-3.4,2.4-.9,4.7-.9,7.2-.1,1.6.5,2.7,1.7,3.2,3.3.3,1,.2,2-.5,2.9-.5.8-1.2,1.3-2,1.6-.5.2-1,.4-1.5.5-2.5.7-4.6,1.1-7.2,1.6-2,.3-3.7.6-5.7,1.1-2.7.5-5,1.1-7.6,2-2.4.8-4.3,1.9-6.2,3.6-2.4,2.2-3.8,4.8-4.3,8.1-.3,2.2-.2,4.1.2,6.2,1.3,5.6,5.1,9.7,10.6,11.3,6.1,1.8,11.8,1.5,17.6-.9,2.9-1.1,5-2.7,7-5.1l-1.3-9.2c-.9,1.4-2,2.4-3.5,3-1.4.6-2.7,1-4.3,1.1-1.3.1-2.4,0-3.7-.3-1-.3-1.8-.8-2.5-1.5-.6-.7-1-1.4-1.2-2.2-.3-1.3.2-2.6,1.2-3.5.7-.6,1.4-1,2.3-1.3,2.1-.8,3.9-1.3,6-1.9,2.6-.7,4.7-1.5,7.1-2.6.2,1.9.2,3.6,0,5.6-.2,1.4-.6,2.6-1.4,3.8l1.3,9.2c.4,1.3.8,2.4,1.2,3.7.3.7.6,1.3,1.1,1.8h19.8c-.8-1.3-1.3-2.6-1.4-4.2"/>
          </g>
          <g id="g3588">
            <path id="path3590" class="cls-3" d="M122.4,72.4c-.3-4.4-.5-8.1-.6-12.5-.1-5.8-.2-10.7-.2-16.5,0-3.1-.4-5.8-1.1-8.8-1-4-3.3-7-6.9-9-2.2-1.2-4.1-1.9-6.6-2.5-7.7-1.6-14.5-1.8-22.2-.4-2.2.4-4,.9-6,1.7-4.7,2-8,5.5-9.5,10.4-.6,1.9-.7,3.6-.5,5.5,0,.4.1.7.3,1l17.9.4c0-1.1.1-2.1.5-3.2.6-1.6,1.7-2.8,3.4-3.4,2.4-.9,4.7-.9,7.2-.1,1.6.5,2.7,1.7,3.2,3.3.3,1,.2,2-.5,2.9-.5.8-1.2,1.3-2,1.6-.5.2-1,.4-1.5.5-2.5.7-4.6,1.1-7.2,1.6-2,.3-3.7.6-5.7,1.1-2.7.5-5,1.1-7.6,2-2.4.8-4.3,1.9-6.2,3.6-2.4,2.2-3.8,4.8-4.3,8.1-.3,2.2-.2,4.1.2,6.2,1.2,5.6,5.1,9.7,10.6,11.3,6.1,1.8,11.8,1.5,17.6-.9,2.8-1.1,5-2.7,7-5.1l-1.3-9.2c-.9,1.4-2,2.4-3.5,3-1.4.6-2.7,1-4.3,1.1-1.3.1-2.4,0-3.7-.3-1-.3-1.8-.8-2.5-1.5-.6-.7-1-1.4-1.2-2.2-.3-1.3.2-2.6,1.2-3.5.7-.6,1.4-1,2.3-1.3,2.1-.8,3.9-1.3,6-1.9,2.6-.7,4.7-1.5,7.1-2.6.2,1.9.2,3.6,0,5.6-.2,1.4-.6,2.6-1.4,3.8l1.3,9.2c.4,1.3.8,2.4,1.2,3.7.2.7.6,1.3,1.1,1.8h19.8c-.8-1.3-1.3-2.6-1.4-4.2"/>
          </g>
        </g>
      </g>
    </g>
  </g>
</svg>