<?xml version="1.0" encoding="UTF-8"?>
<svg id="Layer_1" data-name="Layer 1" xmlns="http://www.w3.org/2000/svg" version="1.1" viewBox="0 0 2500 457">
  <defs>
    <style>
      .cls-1 {
        fill: #fff;
        stroke-width: 0px;
      }
    </style>
  </defs>
  <path class="cls-1" d="M564.2,185.1c-79.5-20.2-94.7-24.1-94.7-47.2s25.8-36.8,48.1-36.8c33.4,0,60.4,9.7,62.5,48.1h67.6c0-73.3-60.9-103.2-127.2-103.2s-118.7,31.1-118.7,96.1,47.6,77.7,94.7,90.2,94.3,18.2,94.3,52.4-37.2,39.6-61.9,39.6c-37.2,0-70.4-16.5-70.4-58.6h-67.4c0,78.2,64.8,112.9,135.2,112.9s132-43.4,132-101.9c0-71-71.2-85.7-94.2-91.5h0ZM893,142.1h-73.8l-79.5,82.6V54.6h-63v317.4h63.3v-79.1l24.4-23,63,102.6h76.3l-96.3-145.9,85.7-84.4ZM1055.4,262.7c0,46-14.7,65.7-48.7,65.7s-40.5-18.7-40.5-56.3v-130h-62.3v141.5c0,56.8,17,94.7,83.9,94.7,28.4.2,54.9-14.2,70.1-38.2h1.4v32h60v-230h-63l-.9,120.6ZM269.9,123C257.5,88.8,341.1,0,187.8,0,57.2,0,45,129.7,39.2,139.9c-8.5,11.3-14.8,24.1-18.7,37.7-3.5,16.8,0,35.2,10.8,35.2,16.1,0-3.7-32.5,16.1-32.5s54.5,40.7,62.5,63.7c-13.4,23-32.2,39.8-46,33.4-16-5.5-26.9-20.2-27.6-37,0-14.9-13.8-14.5-12.4,4.6,1.7,22,13.6,42,32.2,54,20.9,16.6,37.7,37.8,49.2,61.9,6.2,15.2,14.3,23,36.6,23s5.3,19.3,20.5,19.3,6.2-21.4,15.2-21.4,0,20.5,17,20.5c26,0,14.3-32.5,23-37.9,8.8-5.5,119.8-64.8,117.9-138s-53.1-69-65.7-103.3h0ZM160.9,330c-12.5-7.2-27.4-8.8-41.1-4.6-9.9,3.7-19.6-1.8-11.5-26.9,3.6-12.7,9.1-24.9,16.1-36.1,19.4,20.1,37.2,41.5,53.6,64.2.9,7.3-10.8,10.2-17,2.7v.7h0ZM236.8,288.4c-33.3,1-61-25.1-62-58.4s25.1-61,58.4-62,61,25.1,62,58.4v1.3c.5,32.6-25.5,59.5-58.1,60h-.2v.7ZM1927.8,135.9c-28.4-.3-55,14.1-70.1,38.2h-1.4v-32h-60.3v230h62.8v-120.7c0-46,14.7-65.7,48.7-65.7s40.5,18.7,40.5,56.3v129.7h63.3v-141.7c.5-56.3-16.5-94.1-83.4-94.1h0ZM2431,142.1l-50.4,156.8-51.9-157.3h-67.1V54.6h-63v115c-15.5-22.6-41.6-35.6-69-34.3-67.6,0-101.7,57.2-101.7,119.1s33.8,123,103,123c27.7,1.6,54.2-12.1,69-35.7v29.4h60v-225.5l81.8,212c7.5,14.5,1.9,32.4-12.6,40-2.9,1.5-6,2.5-9.2,3-12.3,0-24.6-.8-36.8-2.3v51.9c12.8,1.3,25.8,2.1,38.6,2.1,35.6,4.8,69.4-17.3,79.1-51.9l95.9-258.7-65.7.6ZM2146.3,330.5c-39.1,0-55.4-37.7-55.4-73.8s14.3-72.7,55.4-72.7,54.3,35.7,54.3,72.9-12.4,73.6-54.3,73.6ZM1146,371.9h63.3V54.6h-63.3v317.3ZM1769.4,201.2c0-55.2-55.2-65.3-100.9-65.3s-104.4,17.7-108.1,76.8h63.3c2.1-24.9,17.7-34.7,41.9-34.7s41,3.9,41,31.1-35.8,24.4-74.5,30.1-78.2,17.7-78.2,69,34.7,69,78.2,69c28.6,1.4,56.5-8.9,77.3-28.5.5,7.8,2,15.5,4.4,23h63.9c-6.4-16.2-9.2-33.6-8-51l-.2-119.3ZM1706.2,282.9c4,25.1-13.1,48.7-38.2,52.7-4.2.7-8.6.8-12.8.2-20.5,0-38.6-5.8-38.6-29.4s17.7-29.6,37.2-33.8c18.3-.6,36.2-5.1,52.4-13.4v23.6ZM1239.6,371.9h63.3V54.6h-63.3v317.3ZM1438.7,330.5c-39.6,0-52.4-39.6-52.4-72.4s12.6-74.1,53.6-74.1c23.6-1.7,44.2,15.9,46,39.6h62.5c-3.9-58.6-53.8-87.1-107.9-87.1s-117.3,52.9-117.3,124.4c-3.5,61.5,43.6,114.1,105,117.6,3.3.2,6.6.2,9.9,0,56.6,4.5,106.1-37.7,110.6-94.3h-60c-1.1,26.6-23.5,47.3-50,46.3h0Z"/>
</svg>