<?xml version="1.0" encoding="UTF-8"?>
<svg id="Layer_1" data-name="Layer 1" xmlns="http://www.w3.org/2000/svg" version="1.1" viewBox="0 0 495.8 113.2">
  <defs>
    <style>
      .cls-1 {
        fill: #fff;
        stroke-width: 0px;
      }
    </style>
  </defs>
  <g id="_000000ff" data-name="#000000ff">
    <path class="cls-1" d="M20.1,5.5C27.4,1.5,35.9.2,44.2.7c4.7.2,9.3,1,13.7,2.6,5.8,2.1,11.1,5.6,14.8,10.5,3.8,4.8,6,10.7,6.9,16.7.6,3.6.6,7.3.6,11-8.1,0-16.1,0-24.2,0,0-3.8,0-7.6-1.5-11.2-1-2.8-3-5.3-5.6-6.7-2.5-1.4-5.4-1.9-8.3-1.9-2,0-4,.3-5.8,1.1-2,.9-3.9,2.5-4.7,4.6-1.2,3.1-1.2,6.8.7,9.7,1.6,2.3,4.3,3.7,6.9,4.6,5.8,1.9,11.5,3.8,17.2,5.8,5.6,1.9,11.2,4.3,16,8,4.4,3.3,7.8,7.9,9.4,13.2,1.4,4.5,1.8,9.3,1.4,14-.3,3.3-.8,6.5-2,9.6-2,5.5-5.6,10.5-10.4,13.9-6,4.4-13.4,6.5-20.7,7.2h-11.6c-3-.4-6.1-.8-9.1-1.7-6.8-1.8-13.3-5.4-17.8-10.9-3.4-4.2-5.6-9.2-6.7-14.4-.5-2.1-.7-4.2-.9-6.4-.1-2.3,0-4.6,0-6.9,8.1,0,16.2,0,24.3,0,0,3.2,0,6.5,1,9.6,1,3.1,3,6,5.8,7.7,3.3,2,7.2,2.5,11,2.3,2.8-.2,5.7-.9,7.8-2.7,2-1.7,2.9-4.3,3-6.9,0-2.4-.6-4.9-2.2-6.6-2.2-2.4-5.4-3.4-8.4-4.4-4.3-1.4-8.5-2.7-12.8-4-2.4-.8-4.7-1.5-7-2.4-5.1-1.9-10-4.7-13.7-8.7-2.8-2.9-4.8-6.5-6-10.3-1.1-3.2-1.5-6.6-1.6-10-.3-6.4.9-13,4-18.7,2.8-5.2,7.2-9.5,12.4-12.3Z"/>
    <path class="cls-1" d="M197,1.1c5.7-.7,11.5-.6,17.2.4,4.4.8,8.6,2.2,12.5,4.4,5.7,3.2,10.3,8.2,13,14.2,3.1,6.7,3.9,14.2,3.7,21.4-8.1,0-16.1,0-24.2,0,0-3.5,0-7.2-1.2-10.6-1-3-2.9-5.7-5.7-7.2-3-1.7-6.5-2.2-9.9-2-2.9.2-5.9,1.2-7.8,3.5-2.2,2.8-2.6,6.8-1.4,10.1.9,2.5,3.2,4.2,5.5,5.3,1.9.9,3.9,1.4,5.8,2.1,3.1,1,6.2,2.1,9.2,3.1,3.4,1.1,6.8,2.2,10.1,3.6,5.8,2.4,11.4,5.8,15.3,10.7,2.3,2.9,4,6.3,4.9,9.9.8,3.1,1.1,6.3,1.1,9.5,0,4.4-.7,8.8-2.3,13-2.1,5.6-6,10.6-11,14-5.8,4-12.9,6-19.9,6.7h-11c-6.2-.6-12.4-1.9-17.9-4.8-6-3-10.9-8.1-13.7-14.2-3.2-6.6-3.8-14.1-3.7-21.4,8.1,0,16.2,0,24.4,0,0,3.7,0,7.6,1.6,11.1,1.2,2.9,3.4,5.4,6.2,6.8,3.3,1.6,7.1,2,10.7,1.7,2.7-.2,5.5-1.1,7.5-3,1.9-1.9,2.7-4.7,2.6-7.3-.1-1.9-.6-3.9-1.8-5.4-1.8-2.2-4.4-3.4-7-4.2-5.5-1.8-11-3.4-16.5-5.2-4.8-1.5-9.6-3.3-13.8-6.1-5.3-3.5-9.4-8.7-11.2-14.8-2.1-6.9-2.2-14.4-.4-21.4,1.7-6.5,5.6-12.6,11-16.7,5.2-4,11.5-6.3,18-7.2Z"/>
    <path class="cls-1" d="M382.1,2.2c9.5,0,18.9,0,28.4,0,0,10.5,0,20.9,0,31.4,0,9.6,0,19.1,0,28.7,8.8-8.9,17.8-17.7,26.6-26.6,11.2-11.2,22.4-22.4,33.6-33.6,7,7,14,14,21,21-17.7,17.7-35.5,35.4-53.2,53.1-2.4,2.4-4.8,4.9-7.3,7.2,20.1.1,40.3,0,60.4,0,0,9.5,0,18.9,0,28.4-36.6,0-73.1,0-109.7,0,0-36.6,0-73.1,0-109.7Z"/>
    <path class="cls-1" d="M79.4,2.7c9.7,0,19.4,0,29.2,0,5,9.6,10,19.2,14.9,28.7.3.5.5,1.1.9,1.6.4-.4.6-1,.8-1.5,5-9.6,10-19.3,15-28.9,9.3,0,18.7,0,28,0-10,17.5-20.1,34.9-30,52.4,10.7,18.8,21.4,37.6,32.1,56.4-9.7,0-19.4,0-29.2,0-1.2-2-2.2-4.1-3.4-6.1-4.9-9-9.8-18-14.7-27,0,0-.1,0-.2,0-5.9,11-11.8,22.1-17.7,33.1-9.4,0-18.8,0-28.1,0,10.7-18.5,21.4-37,32.1-55.6-8.4-15-16.9-30.1-25.3-45.1-1.5-2.7-3-5.4-4.5-8.1Z"/>
    <path class="cls-1" d="M246.3,2.7c9,0,18.1,0,27.1,0,3.8,23.3,7.6,46.6,11.4,69.9.2,0,.5,0,.7-.1,3.4-23.3,6.9-46.5,10.3-69.8,8.1,0,16.1,0,24.2,0,.2,0,.7-.2.7.2,3.4,23.2,6.9,46.4,10.3,69.7.2,0,.7.1.7-.3,3.7-22.3,7.3-44.7,10.9-67,.2-.9.2-1.8.5-2.6,8.4,0,16.9,0,25.3,0-3.4,18.3-6.8,36.6-10.2,54.8-3.4,18-6.7,35.9-10.1,53.9-10.1,0-20.1,0-30.2,0-3.4-23.2-6.8-46.5-10.2-69.7-.2,0-.5,0-.6,0-3.4,23.2-6.8,46.5-10.2,69.7-10.1,0-20.1,0-30.2,0-6.8-36.2-13.6-72.5-20.4-108.7Z"/>
    <path class="cls-1" d="M361.3,100.4c2.4-.6,5.1.3,6.4,2.4,1.7,2.6.9,6.5-1.8,8.1-2.6,1.7-6.6.8-8.1-1.9-1.3-2.2-.9-5.3.9-7.2.7-.7,1.6-1.2,2.6-1.5M361.7,101.3c-2.9.6-4.4,4.2-3.2,6.7.7,1.8,2.6,2.8,4.5,2.8,1.5,0,3-.9,3.8-2.3,1.1-1.8.9-4.4-.6-6-1.1-1.1-2.9-1.7-4.5-1.3Z"/>
    <path class="cls-1" d="M360.4,102.9c1.4,0,2.9-.2,4.3.2,1.4.5,1.4,2.9,0,3.2,1,.5.9,1.7,1.1,2.7-.5,0-1.1,0-1.6,0-.1-.6-.1-1.2-.4-1.7-.5-.4-1.1-.2-1.7-.2,0,.7,0,1.3,0,2-.5,0-1,0-1.6,0,0-2,0-4.1,0-6.1M362,104.2c0,.5,0,1.1,0,1.6.6,0,1.2,0,1.7-.2.5-.2.5-1.1,0-1.3-.5-.2-1.1-.1-1.7-.2Z"/>
  </g>
</svg>