<?xml version="1.0" encoding="UTF-8"?>
<svg id="svg3588" xmlns="http://www.w3.org/2000/svg" xmlns:svg="http://www.w3.org/2000/svg" xmlns:rdf="http://www.w3.org/1999/02/22-rdf-syntax-ns#" xmlns:dc="http://purl.org/dc/elements/1.1/" xmlns:cc="http://creativecommons.org/ns#" version="1.1" viewBox="0 0 300 175.6">
  <defs>
    <style>
      .cls-1 {
        fill: #fff;
        stroke-width: 0px;
      }
    </style>
  </defs>
  <g id="layer1">
    <path id="path3169" class="cls-1" d="M136.3,175.6h7.6V0h-7.6v175.6s0,0,0,0ZM255.1,141.8h-16.9v-27.1h-7.5v33.9h24.4v-6.8s0,0,0,0ZM206.8,123.4l4.5,11h-9l4.5-11h0ZM214,141l3.1,7.6h7.8l-14.5-34.1h-6.9l-14.5,34.1h7.6l3.1-7.6h14.3,0ZM175.7,148.8l13.7-34.1h-8l-8.9,23.9-8.9-23.9h-8.2l13.7,34.1h6.6,0ZM97.4,121.5h10.3v27h7.5v-27h10.3v-6.9h-28.1v6.9s0,0,0,0ZM81.7,128.3c-5.9-1.5-7.3-2.2-7.3-4.5h0c0-1.7,1.5-3.1,4.4-3.1s5.8,1.3,8.8,3.3l3.9-5.6c-3.4-2.8-7.6-4.3-12.6-4.3s-11.9,4.1-11.9,10.2h0c0,6.8,4.4,8.7,11.2,10.5,5.7,1.5,6.8,2.4,6.8,4.3h0c0,2.1-1.8,3.3-4.9,3.3s-7.1-1.6-10.1-4.1l-4.4,5.3c4.1,3.6,9.2,5.4,14.4,5.4,7.3,0,12.4-3.8,12.4-10.5h0c0-6-3.9-8.5-10.7-10.3M40.2,134.8h16v-6.6h-16v-6.9h18.2v-6.6h-25.6v33.9h25.8v-6.6h-18.4v-7.1s0,0,0,0ZM0,148.6h7.5v-13.1h16.2v-6.8H7.5v-7.2h18.3v-6.8H0v33.9s0,0,0,0ZM200,79.3l9.4,14.3h.2l9.5-14.5v22.1h7.4v-33.9h-8l-8.9,14.3-8.9-14.3h-8v33.9h7.3v-22s0,0,0,0ZM156.9,67.4v33.9h24.4v-6.8h-16.9v-27.1h-7.5s0,0,0,0ZM105.7,88.1h13.9v-6.8h-13.9v-7.2h19.1v-6.8h-26.6v33.9h7.5v-13.1s0,0,0,0ZM277.4,39.8l4.5-11,4.5,11h-9s0,0,0,0ZM292.2,53.9h7.8l-14.5-34.1h-6.9l-14.5,34.1h7.6l3.1-7.6h14.3l3.1,7.6h0ZM244.9,54.5c6.5,0,10.4-2.3,13.9-6.1l-4.7-4.8c-2.7,2.4-5,4-8.9,4-5.8,0-9.8-4.8-9.8-10.6h0c0-5.9,4.1-10.6,9.8-10.6s6.1,1.5,8.7,3.8l4.7-5.5c-3.1-3.1-7-5.2-13.4-5.2-10.4,0-17.7,7.9-17.7,17.5h0c0,9.8,7.4,17.5,17.4,17.5M220.6,47.3h-18.4v-7.1h16v-6.6h-16v-6.9h18.2v-6.6h-25.6v33.9h25.8v-6.6s0,0,0,0ZM164.1,40h8.6c3.8,0,5.5,1.4,5.5,3.7h0c0,2.6-2,3.8-5.3,3.8h-8.9v-7.5s0,0,0,0ZM164.1,26.6h7.4c3.1,0,4.9,1.3,4.9,3.5h0c0,2.6-2.1,3.7-5.4,3.7h-6.9v-7.2s0,0,0,0ZM185.7,44.7h0c0-4.6-2.4-6.9-6.3-8.4,2.4-1.4,4.5-3.5,4.5-7.3h0c0-5.4-4.3-8.9-11.2-8.9h-15.7v33.9h16.1c7.6,0,12.7-3.1,12.7-9.3M118.3,31.7c0,2.9-2.1,4.8-5.7,4.8h-6.8v-9.7h6.6c3.6,0,5.9,1.6,5.9,4.8h0c0,0,0,0,0,0ZM125.8,31.3h0c0-7.1-4.8-11.3-12.8-11.3h-14.7v33.9h7.5v-10.8h5.1l7.3,10.8h8.7l-8.3-12.1c4.3-1.6,7.3-5,7.3-10.5M73.5,53.9h7.5v-27h10.3v-6.9h-28.1v6.9h10.3v27s0,0,0,0Z"/>
  </g>
</svg>