<svg width="63" height="63" viewBox="0 0 63 63" fill="none" xmlns="http://www.w3.org/2000/svg">
<path fill-rule="evenodd" clip-rule="evenodd" d="M0.780273 0.0742188V62.2066H62.9126V0.0742188H0.780273ZM52.1258 18.0523C54.1393 18.0523 55.7214 18.9153 55.7214 18.9153V21.3603H54.7146C54.427 19.9221 53.7078 19.3468 52.2696 19.3468C51.119 19.3468 50.256 19.9221 50.256 20.6412C50.256 21.6913 51.3702 21.919 52.6416 22.1788C54.3305 22.5239 56.2967 22.9257 56.2967 25.3874C56.2967 26.8256 55.4337 28.4077 52.2696 28.4077C49.6807 28.4077 48.2425 27.5448 48.2425 27.5448V24.8121H49.2493C49.5369 26.3942 50.256 27.2571 52.1258 27.2571C53.4202 27.2571 54.1393 26.8256 54.1393 25.8189C54.1393 24.6781 52.9663 24.431 51.6541 24.1545C49.9885 23.8037 48.0987 23.4056 48.0987 21.0727C48.2425 19.3468 49.8246 18.0523 52.1258 18.0523ZM39.3253 18.34H43.9277V19.6344H42.6333V26.9695H44.7907C45.8491 26.9695 46.0556 26.1176 46.3058 25.0855C46.3276 24.9956 46.3497 24.9043 46.3728 24.8121H47.3795V28.2639H39.3253V26.9695H40.4759V19.6344H39.3253V18.34ZM30.4082 18.34H35.0106V19.6344H33.7162V26.9695H35.8735C36.9319 26.9695 37.1385 26.1176 37.3887 25.0855C37.4104 24.9956 37.4326 24.9043 37.4556 24.8121H38.4624V28.2639H30.4082V26.9695H31.5588V19.6344H30.4082V18.34ZM6.10179 19.6344V18.34H10.7042V19.6344H9.40977L10.9918 25.3874L13.0054 18.34H15.0189L17.0325 25.5312L18.6146 19.6344H17.3201V18.34H29.2576V21.648H28.2508C28.2245 21.5557 28.1993 21.4634 28.1743 21.3718C27.9271 20.465 27.7007 19.6344 26.5249 19.6344H24.2237V22.6547H27.1002C27.3879 23.0862 27.3879 23.6615 27.1002 24.093H24.2237V27.1133H26.8126C27.871 27.1133 28.0775 26.2614 28.3277 25.2293C28.3495 25.1394 28.3716 25.0481 28.3947 24.9559H29.4014V28.4077H20.9158V27.1133H22.0664V19.7782H20.1966L17.7516 28.4077H15.7381L13.7245 21.2165L11.711 28.4077H9.69742L7.25239 19.7782H6.10179V19.6344ZM13.8683 37.7563C14.156 38.1878 14.156 38.7631 13.8683 39.1946H10.9918V42.0711H12.4301V43.2217H7.54004V41.9273H8.69064V34.5922H7.68387V33.2978H16.1695V36.4619H15.1628C15.1299 36.3635 15.099 36.2631 15.068 36.1626C14.8273 35.3823 14.5836 34.5922 13.4369 34.5922H10.9918V37.7563H13.8683ZM34.8668 43.3655H33.86C32.1341 43.3655 31.7026 42.6464 31.5588 41.2081C31.415 39.7699 30.9835 39.0508 29.4014 39.0508H28.5385V42.0711H29.8329V43.2217H20.9158V41.9273H22.0664L21.4911 40.2014H18.0393L17.3201 41.9273H18.4707V43.2217H14.7313V41.9273H15.7381L19.1899 33.2978H21.0596L24.6552 41.9273H26.5249V34.5922H25.3743V33.2978H31.1273C32.8532 33.2978 34.4353 34.1607 34.4353 36.0304C34.4353 37.3249 33.2847 38.4755 31.8464 38.4755C32.997 38.6193 33.86 39.1946 33.86 40.6328C33.86 41.4958 34.0038 42.2149 35.0106 42.2149C35.1544 42.6464 35.0106 43.0779 34.8668 43.3655ZM44.6469 42.5026C44.6469 42.5026 42.7771 43.6532 40.6198 43.6532C37.3118 43.6532 35.4421 41.352 35.4421 38.4755C35.4421 35.599 37.168 33.1539 40.7636 33.1539C42.7771 33.1539 44.503 34.0169 44.503 34.0169V36.6057H43.4963C43.0648 35.4551 42.4895 34.4484 40.9074 34.4484C38.75 34.4484 37.8871 36.3181 37.8871 38.4755C37.8871 40.6328 38.75 42.3587 40.9074 42.3587C41.7704 42.3587 42.4895 42.0711 42.4895 42.0711V39.6261H40.7636C40.4759 39.0508 40.6198 38.6193 40.7636 38.1878H44.503V42.5026H44.6469ZM51.4066 43.5093C48.3863 43.5093 46.0851 41.4958 46.0851 38.3316C46.0851 35.0237 48.3863 33.0101 51.4066 33.0101C54.2831 33.0101 56.7282 35.0237 56.7282 38.3316C56.5843 41.352 54.5708 43.5093 51.4066 43.5093ZM30.1205 34.5922C31.415 34.5922 32.1341 35.0237 32.1341 36.1743C32.1341 37.3249 31.2711 37.7563 30.4082 37.7563H28.6823V34.5922H30.1205ZM19.7652 35.3112L21.2034 39.0507H18.3269L19.7652 35.3112ZM48.5302 38.3317C48.5302 35.8867 49.3931 34.3046 51.4067 34.3046C53.2764 34.3046 54.2832 35.7429 54.2832 38.3317C54.2832 40.7767 53.2764 42.215 51.4067 42.215C49.5369 42.215 48.5302 40.7767 48.5302 38.3317Z" fill="white"/>
</svg>
