<svg width="88" height="40" viewBox="0 0 88 40" fill="none" xmlns="http://www.w3.org/2000/svg">
<path fill-rule="evenodd" clip-rule="evenodd" d="M19.1124 7.47542H13.6567L10.0674 16.3768L6.47817 7.47542H0.878906L7.48317 22.5504H12.5081L19.1124 7.47542ZM22.7017 5.89614C24.281 5.89614 25.5731 4.604 25.5731 3.02472C25.5731 1.58901 24.1374 0.296875 22.7017 0.296875C21.1224 0.296875 19.9738 1.44544 19.9738 3.02472C19.9738 4.604 21.1224 5.89614 22.7017 5.89614ZM25.286 7.47542H19.9738V22.5504H25.286V7.47542ZM44.3809 7.47542H38.9252L35.3359 16.3768L31.7466 7.47542H26.291L32.7516 22.5504H37.7766L44.3809 7.47542ZM47.9702 5.89614C49.5494 5.89614 50.8416 4.604 50.8416 3.02472C50.8416 1.58901 49.5494 0.296875 48.1137 0.296875C46.5345 0.296875 45.2423 1.44544 45.2423 3.02472C45.2423 4.604 46.3909 5.89614 47.9702 5.89614ZM50.698 7.47542H45.3859V22.5504H50.698V7.47542ZM69.5058 22.6939V13.2183C69.5058 9.77255 67.4958 7.18828 63.9065 7.18828C62.0401 7.18828 59.8865 7.90613 58.738 9.48541H58.5944V7.47542H53.2823V22.5504H58.5944V14.7975C58.5944 12.2133 60.1737 11.4954 61.4658 11.4954C63.3322 11.4954 64.1937 12.9311 64.1937 14.3668V22.6939H69.5058ZM81.4222 7.47542H78.6943V2.73758H73.3822V7.47542H70.7979V11.9261H73.3822V22.6939H78.6943V11.9261H81.4222V7.47542ZM84.2936 22.6939C85.7293 22.6939 87.0214 21.5454 87.0214 19.9661C87.0214 18.3868 85.7293 17.0947 84.2936 17.2382C82.8579 17.2382 81.5657 18.5304 81.5657 19.9661C81.5657 21.4018 82.8579 22.6939 84.2936 22.6939ZM5.47317 28.8675C7.05245 28.8675 7.62674 30.016 7.77031 30.7339L9.63673 30.3032C9.34959 28.8675 8.20102 27.2882 5.47317 27.2882C3.31961 27.2882 1.45319 28.8675 1.45319 30.8774C1.45319 32.6003 2.60175 33.7489 4.46818 34.1796L6.04746 34.4667C7.05245 34.6103 7.62674 35.3281 7.62674 36.046C7.62674 36.9074 6.90888 37.6253 5.47317 37.6253C3.75032 37.6253 2.8889 36.4767 2.8889 35.1846L1.02247 35.7589C1.30962 37.4817 2.60175 39.3481 5.61674 39.3481C8.34459 39.3481 9.7803 37.6253 9.7803 35.7589C9.7803 34.036 8.63173 32.7439 6.62174 32.3132L4.89889 32.026C3.89389 31.8824 3.46318 31.3082 3.46318 30.5903C3.46318 29.7289 4.32461 28.8675 5.47317 28.8675ZM10.4982 39.061V31.021H12.3646V32.026C12.7953 31.1646 13.8003 30.7339 14.6617 30.7339C15.6667 30.7339 16.6717 31.1646 17.1024 32.1696C17.8203 31.1646 18.6817 30.7339 19.6867 30.7339C21.1224 30.7339 22.5581 31.5953 22.5581 33.7488V39.061H20.6917V34.1796C20.6917 33.3181 20.261 32.6003 19.1124 32.6003C18.1074 32.6003 17.5331 33.3181 17.5331 34.4667V39.061H15.6667V34.1796C15.6667 33.3181 15.236 32.6003 14.0874 32.6003C13.0824 32.6003 12.5081 33.3181 12.5081 34.4667V39.061H10.4982ZM23.8503 34.8974C23.8503 37.3381 25.4295 39.2045 27.7267 39.2045C28.8752 39.2045 29.5931 38.6303 30.0238 37.9124C30.0238 38.2953 30.0876 38.6143 30.1302 38.827L30.1302 38.8271L30.1302 38.8272C30.1515 38.9334 30.1674 39.0131 30.1674 39.061H32.0338C31.8902 38.9174 31.8902 38.3431 31.8902 37.6253V31.021H30.0238V32.026C29.8802 31.4517 29.1624 30.7339 27.7267 30.7339C25.4295 30.7339 23.8503 32.6003 23.8503 34.8974ZM30.0238 35.041C30.0238 36.4767 29.1624 37.6253 27.8703 37.6253C26.5781 37.6253 25.7167 36.4767 25.7167 35.041C25.7167 33.6053 26.5781 32.6003 27.8703 32.6003C29.1624 32.6003 30.0238 33.4617 30.0238 35.041ZM38.4944 32.8874H37.9202C36.4845 32.8874 35.7666 33.7488 35.7666 35.1845V39.0609H33.9002V31.021H35.7666V32.3131C36.1973 31.4517 37.0587 30.8774 38.0637 30.8774H38.4944V32.8874ZM43.9502 31.0209H42.2274L42.5145 28.5802H40.7917V29.7288C40.7917 30.4467 40.3609 31.0209 39.4995 31.0209H39.0688V32.7438H40.5045V36.7638C40.5045 38.343 41.5095 39.2045 42.9452 39.2045C43.4411 39.2045 43.7314 39.136 43.9109 39.0936L43.911 39.0936L43.911 39.0936L43.9111 39.0936L43.9111 39.0936C43.9913 39.0746 44.0494 39.0609 44.0938 39.0609V37.4816H43.3759C42.6581 37.4816 42.3709 37.1945 42.3709 36.4766V32.7438H43.9502V31.0209ZM52.8515 39.061V34.036H47.3959V39.061H45.3859V27.2882H47.3959V32.026H52.8515V27.2882H54.8615V39.061H52.8515ZM60.4609 39.3481C62.9016 39.3481 64.6244 37.4817 64.6244 35.041C64.6244 32.6003 62.9016 30.7339 60.4609 30.7339C58.0202 30.7339 56.2973 32.6003 56.2973 35.041C56.2973 37.4817 58.0202 39.3481 60.4609 39.3481ZM60.4609 32.6003C61.753 32.6003 62.758 33.4617 62.758 35.041C62.758 36.6203 61.6094 37.6253 60.4609 37.6253C59.3123 37.6253 58.1637 36.6203 58.1637 35.041C58.1637 33.4617 59.3123 32.6003 60.4609 32.6003ZM65.9165 31.021H67.7829V32.026C68.2136 31.1646 69.2186 30.7339 70.0801 30.7339C71.0851 30.7339 72.0901 31.1646 72.5208 32.1696C73.2386 31.1646 74.1 30.7339 75.105 30.7339C76.5407 30.7339 77.9765 31.5953 77.9765 33.7488V39.061H76.11V34.1796C76.11 33.3181 75.6793 32.6003 74.5308 32.6003C73.5258 32.6003 72.9515 33.3181 72.9515 34.4667V39.061H71.0851V34.1796C71.0851 33.3181 70.6543 32.6003 69.5058 32.6003C68.5008 32.6003 67.9265 33.3181 67.9265 34.4667V39.061H65.9165V31.021ZM83.2886 39.2045C85.155 39.2045 86.4472 38.1995 86.8779 36.7638L85.155 36.046C84.8679 36.9074 84.2936 37.4817 83.1451 37.4817C81.9965 37.4817 80.9915 36.6203 80.9915 35.4717H86.8779V34.8974C86.8779 32.3131 85.4422 30.7339 83.0015 30.7339C80.9915 30.7339 79.1251 32.4567 79.1251 34.8974C79.1251 37.6253 81.1351 39.2045 83.2886 39.2045ZM83.0015 32.3131C84.2936 32.3131 85.0115 33.3181 85.0115 34.1796H80.9915C81.1351 33.1746 81.8529 32.3131 83.0015 32.3131Z" fill="white"/>
</svg>
