<svg width="82" height="70" viewBox="0 0 82 70" fill="none" xmlns="http://www.w3.org/2000/svg">
<path fill-rule="evenodd" clip-rule="evenodd" d="M53.7249 8.75794C52.8962 8.6198 12.0156 0.22102 12.0156 0.22102L12.0709 0H81.6232L71.2373 48.9284H7.59608C7.59608 48.9284 68.4198 25.445 69.2209 24.8372C69.2209 24.8372 74.8281 16.3279 71.3754 13.427C70.2153 12.46 69.4142 12.2114 62.8402 12.239C62.8402 12.239 63.1164 10.4156 53.7249 8.75794ZM55.363 16.8632C56.5315 16.7474 58.7698 16.5256 59.6361 16.0793C60.2161 15.7754 60.4095 15.582 60.6028 15.2504C60.8791 14.8913 61.0448 14.7531 61.2658 14.7531H65.4367C68.0608 14.7531 69.9391 15.0847 69.6905 17.2949C69.5248 18.8696 67.8398 21.9087 67.4807 22.3231C67.094 22.7375 66.4587 22.8204 66.7902 21.881C66.9023 21.5558 67.0145 21.2411 67.122 20.9393L67.1224 20.9382L67.1225 20.938C67.8095 19.0106 68.309 17.6091 67.4255 17.3225C66.2945 16.967 63.6228 17.2826 60.8867 17.6059C58.9454 17.8352 56.9717 18.0684 55.4928 18.0684C53.9459 18.0684 53.7526 17.8474 53.7802 17.4883C53.8078 17.0738 54.084 16.9633 55.1889 16.8805L55.363 16.8632ZM9.66778 11.3273L1.65739 48.9561C1.65739 48.9561 26.1305 36.9381 29.1137 35.4186C35.2458 32.269 43.7258 28.0973 51.5704 25.4174C53.062 24.9201 59.4703 22.9309 63.1993 22.2678C64.6633 22.0192 65.2433 21.7706 65.2433 21.4943C65.1881 20.7207 63.7517 20.6655 61.2934 20.8036C53.7802 21.1627 39.4167 26.8817 35.2734 29.0642L30.6053 14.5874H60.4371C61.6172 11.243 46.7127 11.2913 42.9936 11.3034H42.9935H42.9935H42.9934H42.9933H42.9933H42.9932H42.9931H42.993H42.993H42.9929H42.9928H42.9927H42.9927H42.9926H42.9925H42.9925H42.9924H42.9923H42.9922H42.9922H42.9921H42.992H42.9919H42.9919H42.9918H42.9917H42.9917C42.5336 11.3048 42.2456 11.3058 42.1789 11.2997H9.66778V11.3273ZM72.1489 69.2624C73.2538 69.2624 74.1377 68.4059 74.1377 67.2732C74.1377 66.1404 73.2814 65.2564 72.1489 65.284C71.044 65.284 70.1601 66.1404 70.1601 67.2732C70.1601 68.3783 71.0164 69.2624 72.1489 69.2624ZM72.1489 68.9861C71.1821 68.9861 70.4639 68.2401 70.4639 67.2732C70.4639 66.3062 71.1821 65.5603 72.1489 65.5603C73.1156 65.5603 73.8338 66.3062 73.8338 67.2732C73.8338 68.2401 73.1156 68.9861 72.1489 68.9861ZM71.4307 68.4059H71.7069V67.3561H72.1765L72.8394 68.3783H73.1709L72.4803 67.3561C72.7842 67.3008 73.0604 67.135 73.0604 66.7206C73.0604 66.3062 72.8394 66.0852 72.3146 66.0852H71.4307V68.4059ZM72.7566 66.7483C72.7566 67.1627 72.4251 67.1627 72.066 67.1627H71.6793V66.3615H72.2041C72.4803 66.3615 72.7566 66.4167 72.7566 66.7483ZM4.83398 59.2612C3.25953 59.2612 2.32038 58.6257 2.65184 57.2443C3.17666 54.8407 3.50812 53.2107 3.50812 53.2107H4.80636C4.80636 53.2107 4.00532 56.9404 4.03294 56.8299C3.83959 57.7416 4.03294 58.2942 5.02734 58.3218C5.99411 58.3218 6.49131 57.7693 6.68466 56.8299C6.79515 56.305 7.45808 53.2107 7.45808 53.2107H8.75632L8.75618 53.2113L8.75615 53.2115L8.75613 53.2116L8.75612 53.2116L8.75611 53.2117L8.75609 53.2117L8.75608 53.2118L8.75605 53.2119L8.75601 53.2121L8.75598 53.2122L8.75593 53.2125L8.75587 53.2127L8.75582 53.213L8.75577 53.2132L8.75571 53.2135L8.75496 53.2169C8.32381 55.1844 8.31457 55.2266 8.3176 55.2275L8.31781 55.2275C8.32127 55.2275 8.32817 55.2275 7.90003 57.2443C7.59619 58.6257 6.40844 59.2612 4.83398 59.2612ZM12.3472 59.1506H13.9769L15.2475 53.2107H14.0873L13.1482 57.6588H13.1206L11.7119 53.2107H10.0269L8.7563 59.1506H9.91642L10.8556 54.7579L12.3472 59.1506ZM16.5457 59.1506H15.2475L16.4905 53.2107H17.8163L16.5457 59.1506ZM21.6281 54.1501H23.4788L23.6721 53.2107H18.7002L18.4792 54.1501H20.3299L19.2802 59.1506H20.5785L21.6281 54.1501ZM28.6717 54.1501H25.6609L25.3295 55.6972H27.9536L27.7602 56.5813H25.1637L24.8047 58.2113H27.8155L27.5945 59.1506H23.2854L24.5561 53.2107H28.8651L28.6717 54.1501ZM28.5613 59.1506H31.2406C32.8979 59.1506 34.5 58.0732 34.8591 55.9182C35.1077 54.3987 34.5 53.2107 32.7046 53.2107H29.8319L28.5613 59.1506ZM30.9368 54.1501H32.2626C33.3675 54.1501 33.7542 54.9512 33.5885 55.9182C33.3675 57.2443 32.5112 58.2113 31.0196 58.2113H30.0805L30.9368 54.1501ZM41.2122 54.1501H39.8035C39.0853 54.1501 38.7815 54.2882 38.6986 54.5921C38.6117 55.0144 39.0775 55.3977 39.5966 55.8247C40.232 56.3474 40.9471 56.9357 40.8255 57.7416C40.6874 58.5428 39.9692 59.1506 38.3395 59.1506H36.3231L36.5164 58.2113H38.1461L38.2209 58.2114C38.7024 58.2128 39.2565 58.2143 39.3615 57.7416C39.4473 57.3615 38.9998 56.9868 38.4924 56.5619C37.8568 56.0296 37.1271 55.4187 37.2346 54.6197C37.3451 53.7633 38.1185 53.2107 39.6654 53.2107H41.4332L41.2122 54.1501ZM45.0516 54.1501H46.9023L47.0957 53.2107H42.0961L41.8751 54.1501H43.7258L42.6761 59.1506H43.9744L45.0516 54.1501ZM47.1233 59.1506L47.6481 58.2113H49.5264L49.0016 54.3987L46.3775 59.1506H45.0793L48.4768 53.2107H50.0512L50.9628 59.1506H47.1233ZM54.4432 54.1501H56.2939L56.4872 53.2107H51.4876L51.2943 54.1501H53.1173L52.0677 59.1506H53.3659L54.4432 54.1501ZM61.4592 54.1501H58.476L58.1446 55.6972H60.741L60.5477 56.5813H57.9512L57.6197 58.2113H60.6029L60.4096 59.1506H56.1005L57.3711 53.2107H61.6526L61.4592 54.1501ZM64.6909 54.1501H66.0996L66.3206 53.2107H64.5528C63.0059 53.2107 62.2325 53.7633 62.122 54.6197C62.0145 55.4187 62.7442 56.0296 63.3799 56.5619C63.8872 56.9868 64.3348 57.3615 64.2489 57.7416C64.1439 58.2143 63.5898 58.2128 63.1083 58.2114L63.0336 58.2113H61.4039L61.2105 59.1506H63.2269C64.8566 59.1506 65.5748 58.5428 65.7129 57.7416C65.8345 56.9357 65.1194 56.3474 64.484 55.8247C63.9649 55.3977 63.4991 55.0144 63.586 54.5921C63.6413 54.2882 63.9727 54.1501 64.6909 54.1501ZM3.06612 66.8035C2.87277 66.8035 2.62417 66.7758 2.45844 66.7482L2.40319 65.8917C2.56892 65.9194 2.7899 65.9194 2.98326 65.9194C3.86716 65.9194 4.19863 65.3116 4.28149 64.9524C4.4196 64.317 4.08814 64.0683 3.61856 64.0683H2.51368L1.43642 69.0689H0.138184L1.4088 63.129H4.25387C5.55211 63.129 5.69022 64.2617 5.52448 64.98C5.27589 66.1128 4.22625 66.8035 3.06612 66.8035ZM5.88351 66.0851C5.52443 67.798 6.57407 69.1794 8.39712 69.1794C10.2754 69.1794 11.7394 68.2401 12.1813 66.0851C12.568 64.317 11.5184 63.0185 9.69536 63.0185C7.8723 63.0185 6.32547 63.9578 5.88351 66.0851ZM7.26462 66.0851C7.56846 64.7314 8.34188 63.9578 9.52962 63.9578C10.7174 63.9578 11.1317 64.8695 10.9107 66.0851C10.6345 67.4113 9.83347 68.2125 8.64572 68.2125C7.40273 68.2125 7.01602 67.2455 7.26462 66.0851ZM16.96 64.0683H15.5513C14.8331 64.0683 14.5017 64.2065 14.4464 64.5104C14.3594 64.933 14.8317 65.3222 15.3549 65.7532C15.9945 66.2801 16.7101 66.8697 16.5733 67.6599C16.4352 68.4611 15.7171 69.0689 14.0874 69.0689H12.0709L12.2643 68.1296H13.8664L13.9411 68.1297C14.4226 68.131 14.9767 68.1325 15.0817 67.6599C15.1676 67.2797 14.7201 66.905 14.2127 66.4802C13.577 65.9479 12.8473 65.3369 12.9549 64.538C13.0653 63.6815 13.8388 63.129 15.3856 63.129H17.1534L16.96 64.0683ZM20.7995 64.0683H22.6502L22.8435 63.129H17.8439L17.6506 64.0683H19.5013L18.424 69.0689H19.7222L20.7995 64.0683ZM22.8987 69.0689L23.3959 68.1019H25.2742L24.7494 64.2893L22.1529 69.0689H20.8271L24.2246 63.129H25.7991L26.7382 69.0689H22.8987ZM27.4012 69.0689H31.434L31.6273 68.1019H28.9204L29.9976 63.129H28.6718L27.4012 69.0689ZM38.5052 64.0683H37.0965C36.3783 64.0683 36.0469 64.2065 35.9916 64.5104C35.9046 64.933 36.3769 65.3222 36.9001 65.7532C37.5397 66.2801 38.2553 66.8697 38.1185 67.6599C37.9804 68.4611 37.2623 69.0689 35.6326 69.0689H33.6161L33.8095 68.1296H35.4392L35.5139 68.1297C35.9955 68.131 36.5496 68.1325 36.6546 67.6599C36.7404 67.2797 36.2929 66.905 35.7855 66.4802C35.1498 65.9479 34.4201 65.3369 34.5277 64.538C34.6382 63.6815 35.4116 63.129 36.9584 63.129H38.7262L38.5052 64.0683ZM40.9636 64.0683H43.9468L44.1678 63.129H39.8587L38.5881 69.0689H42.8972L43.0905 68.1019H40.1073L40.4388 66.4995H43.0629L43.2563 65.6155H40.6322L40.9636 64.0683ZM47.731 66.4995L48.6977 69.0689H47.2614L46.1841 65.8089C46.3499 65.8365 46.5432 65.8365 46.6813 65.8365C47.3442 65.8365 47.9519 65.5602 48.1177 64.8419C48.2005 64.4827 48.1177 64.0683 47.3995 64.0683H46.2118L45.1621 69.0689H43.8639L45.1345 63.129H47.8967C49.0568 63.129 49.5264 63.6539 49.4435 64.6485C49.333 65.7536 48.5872 66.3614 47.731 66.4995ZM51.018 69.0689H52.5648L55.9347 63.129H54.6365L52.04 67.8809L51.4323 63.129H50.1065L51.018 69.0689ZM56.791 69.0689H55.4652L56.7358 63.129H58.034L56.791 69.0689ZM61.9564 63.9578C62.5641 63.9578 62.9784 64.0407 63.3375 64.1512L63.4756 63.129C63.0612 63.0461 62.6193 62.9909 62.1773 62.9909C60.3543 62.9909 58.5865 63.9302 58.1445 66.0575C57.6749 68.1848 59.0284 69.1518 60.8515 69.1518C61.3487 69.1518 61.8459 69.0965 62.3155 69.0137L62.6469 67.9914C62.1497 68.1296 61.6801 68.2125 61.0448 68.2125C59.8571 68.2125 59.1942 67.4389 59.4704 66.0851C59.7742 64.7314 60.7686 63.9578 61.9564 63.9578ZM68.6133 64.0683H65.6301L65.2986 65.6155H67.9227L67.7294 66.4995H65.1053L64.7738 68.1019H67.757L67.5636 69.0689H63.2546L64.5252 63.129H68.8342L68.6133 64.0683ZM69.2762 60.9189L69.1933 61.3609H1.76789L1.85075 60.9189H69.2762Z" fill="white"/>
</svg>
