<svg width="110" height="25" viewBox="0 0 110 25" fill="none" xmlns="http://www.w3.org/2000/svg">
<path fill-rule="evenodd" clip-rule="evenodd" d="M69.654 8.37896C70.4166 7.74346 71.4334 7.36215 72.5773 7.36215C74.2296 7.36215 75.6277 7.99766 76.7716 9.01447C78.1698 10.5397 78.8053 12.7004 78.8053 15.2424C78.8053 17.7845 78.1697 19.8181 76.8987 21.4704C75.7548 22.9956 74.2296 23.7582 72.3231 23.7582C71.3063 23.7582 70.4166 23.504 69.5269 22.9956C69.4633 22.9321 69.3364 22.8369 69.1459 22.694L69.1457 22.6938L69.1455 22.6937L69.1455 22.6937C68.9548 22.5507 68.7007 22.3601 68.3829 22.1059C68.1287 21.9788 67.8745 21.8517 67.7474 21.8517C67.6203 21.8517 67.3661 21.9788 67.1119 22.3601L66.3493 23.504H65.2054C65.2054 23.2623 65.2565 23.1227 65.2939 23.0205C65.3155 22.9616 65.3325 22.915 65.3325 22.8685C65.4596 22.3601 65.4596 21.4704 65.4596 20.0723V4.31172C65.4596 3.04071 65.3325 2.2781 65.0783 2.0239C64.9512 1.7697 64.4428 1.6426 63.8073 1.6426H63.5531V0.625785L68.51 0.371582V9.90418C68.7643 9.26867 69.1455 8.76027 69.654 8.37896ZM70.4166 22.1059C70.925 22.4872 71.4334 22.6143 72.0689 22.6143C74.2296 22.6143 75.3735 20.1994 75.5006 15.2424C75.5006 13.0817 75.1193 11.4294 74.6109 10.1584C74.1025 9.01447 73.2128 8.50607 72.196 8.50607C71.4334 8.50607 70.6708 8.76027 70.0353 9.39577C68.8913 10.4126 68.2558 12.4462 68.2558 15.3695C68.2558 17.6574 68.6371 19.3097 69.1456 20.5807C69.3998 21.2162 69.9082 21.7246 70.4166 22.1059ZM41.8188 0.62583H48.5551V1.64264H48.0467C47.157 1.64264 46.5215 1.89684 46.2673 2.27815C46.0131 2.40525 45.886 2.78655 45.886 3.16786C45.7589 3.67625 45.7589 4.31173 45.7589 5.07431V5.07438V19.0555C45.7589 20.1994 45.7589 20.962 46.0131 21.4704C46.2673 22.106 47.0299 22.4873 48.1738 22.4873H48.6822V23.6312H40.0394V22.4873H40.2936C41.0562 22.4873 41.6917 22.3602 42.073 21.9788C42.3272 21.7246 42.4543 21.3433 42.4543 20.962C42.5814 20.4536 42.5814 19.8181 42.5814 19.0555V2.65945L36.4805 23.5041H35.4637L29.3629 2.65945V17.6574C29.3629 19.1826 29.3629 20.1994 29.49 20.5807C29.8713 21.7246 30.6339 22.3602 31.9049 22.3602H32.4133V23.5041H25.2956V22.3602H25.804C26.3124 22.3602 26.8208 22.2331 27.2021 21.8517C27.5834 21.4704 27.8376 20.962 27.9647 20.3265C28.0918 19.8181 28.0918 18.9284 28.0918 17.6574V4.43887C28.0918 3.67626 28.0918 3.16786 27.9647 2.91365C27.8376 2.27815 27.5834 2.02394 27.075 1.76974C26.8208 1.64264 26.4395 1.64264 25.9311 1.64264H25.2956V0.62583H31.9049L36.8618 17.4032L41.8188 0.62583ZM84.779 3.67626C84.3977 4.05757 83.8893 4.18467 83.3809 4.18467C82.8725 4.18467 82.3641 4.05757 82.1099 3.80336C81.7286 3.54916 81.6015 3.04076 81.6015 2.53235C81.6015 1.89684 81.7286 1.51554 82.1099 1.13424C82.4912 0.752932 82.9996 0.62583 83.508 0.62583C84.0164 0.62583 84.3977 0.752932 84.779 1.13424C85.1604 1.38844 85.2875 1.89684 85.2875 2.40525C85.2875 2.91365 85.1604 3.29496 84.779 3.67626ZM55.7999 7.23505C53.6392 7.23505 51.8598 8.12476 50.5888 9.77707C49.4449 11.3023 48.8094 13.2088 48.8094 15.6237C48.8094 18.0387 49.4449 19.9452 50.5888 21.4704C51.8598 23.1227 53.6392 24.0124 55.6728 24.0124C57.8335 24.0124 59.613 23.1227 61.0111 21.4704C62.155 19.9452 62.7905 18.0387 62.7905 15.6237C62.7905 13.2088 62.155 11.3023 61.0111 9.77707C59.7401 8.12476 57.9607 7.23505 55.7999 7.23505ZM55.7999 22.8685C54.5289 22.8685 53.6392 22.3601 53.1308 21.2162C52.4953 19.9452 52.2411 18.0387 52.2411 15.4966C52.2411 12.4462 52.7495 10.4126 53.7663 9.39577C54.4018 8.76026 55.0373 8.37896 55.927 8.37896C56.4354 8.37896 56.9438 8.50606 57.3251 8.76026C57.9607 9.14157 58.4691 9.64997 58.7233 10.4126C59.2317 11.5565 59.4859 13.3359 59.4859 15.6237C59.4859 20.4536 58.2149 22.8685 55.7999 22.8685ZM107.276 21.2162C106.513 22.1059 105.497 22.6143 104.353 22.6143C102.827 22.6143 101.811 21.8517 101.175 20.3265C100.667 19.3097 100.54 17.6574 100.54 15.3695H109.945C109.818 13.463 109.564 11.9378 108.928 10.6668C107.784 8.25187 106.005 7.10796 103.59 7.10796C102.065 7.10796 100.667 7.74346 99.5228 9.01448C98.1247 10.6668 97.3621 12.7004 97.3621 15.3695C97.3621 18.2929 98.1247 20.4536 99.5228 21.9788C100.667 23.2498 102.192 23.8853 103.971 23.8853C106.386 23.8853 108.42 22.4872 109.818 19.5639L108.801 19.0555C108.266 19.9113 107.821 20.497 107.467 20.9642C107.4 21.0521 107.336 21.1357 107.276 21.2162ZM100.794 11.4294C101.302 9.52288 102.319 8.50607 103.59 8.50607C104.734 8.50607 105.624 9.26868 106.132 10.921C106.386 11.8107 106.64 12.9546 106.64 14.3527H100.413C100.413 13.0817 100.54 12.192 100.794 11.4294ZM93.8032 19.5639C93.8032 20.8349 93.9303 21.5975 94.1845 21.9788C94.4387 22.3601 94.9471 22.4872 95.5826 22.3601H96.091V23.3769H88.5921V22.3601H89.1005C89.736 22.3601 90.1173 22.233 90.3715 21.9788C90.6257 21.5975 90.7528 20.8349 90.7528 19.5639V4.31172C90.7528 3.16781 90.6257 2.2781 90.3715 2.0239C90.2444 1.7697 89.736 1.6426 89.1005 1.6426H88.7192V0.625785L93.8032 0.371582V19.5639ZM85.5416 21.9787C85.2874 21.7245 85.1603 20.8348 85.1603 19.5638V7.48916L80.0763 7.74337V8.76018H80.4576C81.0931 8.76018 81.6015 8.88728 81.7286 9.14148C81.9828 9.39569 82.1099 10.2854 82.1099 11.4293V19.5638C82.1099 20.8348 81.9828 21.5974 81.7286 21.9787C81.4744 22.2329 81.0931 22.36 80.4576 22.36H79.9492V23.3768H87.4481V22.36H86.9397C86.1771 22.4871 85.7958 22.36 85.5416 21.9787ZM14.1107 15.7509V11.1752H16.3985H18.8135V15.7509H14.1107ZM0.256644 0.62583L0.00244141 8.63321L1.27345 8.88742C1.52766 6.47249 2.16316 4.69307 3.17997 3.54916C4.19679 2.40525 5.722 1.76974 7.62852 1.64264V18.5471C7.62852 20.0723 7.37432 20.962 6.99302 21.4704C6.61171 21.8518 5.9762 22.106 5.08649 22.106H3.81548V23.377H15.1275V22.106H13.8565C12.9668 21.9789 12.3313 21.8518 11.95 21.4704C11.5687 21.0891 11.3145 20.0723 11.3145 18.5471V1.76974C13.221 1.76974 14.7462 2.40525 15.763 3.67626C16.7798 4.82017 17.4153 6.59959 17.6695 9.01452L18.9405 8.76031L18.6863 0.62583H0.256644ZM2.29027 11.1752H4.57809V15.7509H0.00244141V11.1752H2.29027Z" fill="white"/>
</svg>
