<svg width="103" height="34" viewBox="0 0 103 34" fill="none" xmlns="http://www.w3.org/2000/svg">
<path fill-rule="evenodd" clip-rule="evenodd" d="M80.6981 0.373085C80.6788 0.373085 80.6404 0.353867 80.6212 0.334648C79.1798 0.334648 77.7576 0.334648 76.3162 0.31543C76.2778 0.334648 76.2394 0.353867 76.2009 0.353867C75.8742 0.43074 75.6628 0.642143 75.6052 0.968857C75.5859 1.04573 75.5859 1.14182 75.5859 1.2187V2.25649C75.5859 3.24625 75.5907 4.23119 75.5956 5.21614C75.6004 6.20108 75.6052 7.18603 75.6052 8.17578C75.6052 8.38718 75.6052 8.59859 75.6436 8.79077C75.7205 9.36732 75.9511 9.88622 76.297 10.3475C76.8736 11.1162 77.3348 11.9234 77.6615 12.8074C78.2189 14.3065 78.4687 15.8439 78.4495 17.4391C78.4495 18.4 78.3342 19.3417 78.1228 20.2642C77.7961 21.7056 77.2195 23.0509 76.3931 24.2808C76.1048 24.7037 75.8742 25.1649 75.7589 25.6646C75.6436 26.1258 75.5859 26.6063 75.6628 27.0867C75.7205 27.3942 75.8742 27.6249 76.1817 27.721C76.297 27.7594 76.4123 27.7786 76.5276 27.7786H80.4674C80.5635 27.7786 80.6788 27.7594 80.7749 27.7402C81.0824 27.6825 81.2938 27.4903 81.3707 27.1828C81.4091 27.0483 81.4091 26.8946 81.4091 26.7601V26.76C81.3995 22.532 81.3851 18.3039 81.3707 14.0758C81.3563 9.84779 81.3419 5.61973 81.3323 1.39166V1.12261C81.313 0.719017 81.1016 0.469177 80.6981 0.373085ZM0.364853 8.98297C0.350439 9.00699 0.336025 9.03102 0.326416 9.05984V9.05985C0.345634 16.9971 0.364853 24.9343 0.441727 32.8907C0.451336 32.9196 0.46575 32.9436 0.480164 32.9676C0.494578 32.9916 0.508991 33.0156 0.518601 33.0445C0.614693 33.3904 0.845315 33.5826 1.19125 33.621C1.28734 33.6403 1.36421 33.6403 1.46031 33.6403C2.74794 33.621 4.01636 33.621 5.304 33.621C5.41931 33.621 5.55384 33.6018 5.66915 33.5826C5.97664 33.5249 6.16883 33.3328 6.2457 33.0253C6.28414 32.91 6.28414 32.7754 6.28414 32.6601C6.28414 31.6992 6.27934 30.7431 6.27453 29.7869C6.26973 28.8308 6.26492 27.8747 6.26492 26.9138V25.3571C6.26492 25.3398 6.26298 25.3225 6.26105 25.3054C6.25444 25.2466 6.24811 25.1904 6.32258 25.1457C6.38023 25.2033 6.43789 25.261 6.49554 25.3379C7.14897 26.1258 7.95615 26.7024 8.91707 27.0483C9.62815 27.3174 10.3777 27.4711 11.1464 27.548C11.9728 27.6249 12.7992 27.6441 13.6256 27.5096C15.0478 27.2789 16.3354 26.7024 17.4308 25.7607C18.68 24.7037 19.5449 23.3584 20.1407 21.8401C20.8133 20.072 21.0247 18.227 20.8517 16.3244C20.7364 14.9983 20.3713 13.7107 19.7563 12.5192C18.853 10.7703 17.5269 9.48265 15.7396 8.65625C14.1061 7.88752 12.3764 7.67611 10.5891 7.90674C9.20535 8.09892 7.97537 8.65625 6.93757 9.57874C6.51476 9.94389 6.14961 10.3475 5.8229 10.8087C5.74602 10.7703 5.74602 10.6934 5.74602 10.6358V9.90545C5.74602 9.61718 5.74602 9.34812 5.7268 9.05984C5.68837 8.57938 5.38087 8.31032 4.90041 8.31032H3.09387C2.77677 8.31032 2.45967 8.31513 2.14256 8.31993C1.82546 8.32474 1.50835 8.32954 1.19125 8.32954C0.787659 8.32954 0.518601 8.52173 0.40329 8.90609C0.393681 8.93492 0.379267 8.95895 0.364853 8.98297ZM10.7813 22.517C10.6596 22.5277 10.5378 22.5384 10.4161 22.5512C9.7819 22.532 9.18613 22.4551 8.59036 22.2629C7.45647 21.8786 6.64929 21.129 6.18805 20.0336C5.86133 19.2456 5.66915 18.4192 5.70759 17.5736C5.7268 16.6319 5.97664 15.7479 6.45711 14.9407C6.89913 14.1912 7.53334 13.6338 8.35973 13.3263C9.62815 12.8459 10.935 12.8074 12.2226 13.2495C13.4718 13.6723 14.2982 14.5179 14.7403 15.7479C15.0093 16.4974 15.1246 17.2853 15.0862 18.0733C15.0478 19.0534 14.7787 19.9951 14.1829 20.8023C13.5103 21.7248 12.607 22.2437 11.5116 22.4359C11.2681 22.4743 11.0247 22.4957 10.7813 22.517ZM61.4604 25.0111V25.2609C61.4604 26.4525 61.4652 27.644 61.47 28.8355C61.4748 30.0271 61.4796 31.2186 61.4796 32.4102C61.4796 32.5447 61.4796 32.6985 61.4412 32.833C61.3643 33.1789 61.1529 33.3711 60.8262 33.4288C60.7109 33.448 60.5763 33.4672 60.461 33.4672C59.1926 33.4672 57.9242 33.4672 56.6558 33.4864C56.5597 33.4864 56.4828 33.4864 56.3867 33.4672C55.9447 33.3903 55.6948 33.1213 55.6756 32.6792V32.5063L55.618 14.537C55.618 12.7305 55.618 10.9239 55.5987 9.1174C55.5987 9.02131 55.5987 8.906 55.618 8.80991C55.6948 8.44476 55.9447 8.23335 56.3098 8.19492C56.4251 8.1757 56.5212 8.1757 56.6365 8.1757H59.8845C60.0574 8.1757 60.2112 8.19492 60.3841 8.23335C60.6724 8.31023 60.8454 8.52163 60.903 8.80991C60.9223 8.92522 60.9415 9.04053 60.9415 9.15584V10.4627V10.6933C60.9991 10.6549 61.0376 10.6357 61.076 10.6164C61.1337 10.5588 61.1913 10.4819 61.2298 10.4243C62.0946 9.36724 63.1516 8.56007 64.4585 8.11804C65.0927 7.90664 65.7461 7.79133 66.3995 7.75289C67.5334 7.69524 68.6673 7.77211 69.7628 8.09882C71.4348 8.57929 72.7993 9.54021 73.9139 10.8471C75.0094 12.1347 75.6436 13.6337 75.9319 15.2865C76.0664 16.0745 76.1433 16.8817 76.1241 17.6888C76.1049 19.3993 75.7397 21.0136 75.0094 22.5511C74.5097 23.6081 73.8563 24.569 72.9915 25.3762C71.9344 26.3564 70.7045 27.0482 69.2823 27.3557C68.5904 27.5095 67.8986 27.5479 67.1875 27.5287C66.3226 27.5095 65.477 27.3942 64.6506 27.1635C63.9011 26.9521 63.2093 26.6446 62.5943 26.1834C62.2483 25.9143 61.9408 25.6068 61.6526 25.2609C61.6333 25.1072 61.5949 25.0303 61.4604 25.0111ZM65.65 22.3781C65.9383 22.3589 66.2073 22.3397 66.4956 22.3013C67.0529 22.2244 67.5911 22.0899 68.0715 21.8208C69.0517 21.3019 69.6667 20.4755 70.0318 19.4569C70.397 18.4384 70.4162 17.3813 70.2048 16.3243C70.0703 15.6709 69.8396 15.0559 69.436 14.4986C68.8595 13.6914 68.0908 13.2109 67.149 12.9611C65.9959 12.6344 64.8428 12.7113 63.7282 13.0956C62.8057 13.4031 62.1138 13.9989 61.6526 14.8637C61.2298 15.6517 60.9799 16.4973 60.9607 17.3813C60.9223 18.3615 61.1529 19.284 61.5949 20.168C62.0561 21.0521 62.748 21.6863 63.6897 22.0322C64.3047 22.2628 64.9581 22.3589 65.65 22.3781ZM88.6545 19.7645C88.6161 19.63 88.5776 19.4955 88.5392 19.3225C88.5832 19.3225 88.6272 19.3185 88.6749 19.3141C88.7314 19.3089 88.793 19.3033 88.8659 19.3033C90.8934 19.2937 92.9162 19.2889 94.9389 19.2841C96.9617 19.2793 98.9844 19.2744 101.012 19.2648C101.127 19.2648 101.243 19.2648 101.358 19.2456C101.8 19.2072 102.069 18.9573 102.107 18.5153C102.12 18.3609 102.116 18.1979 102.112 18.0378V18.0377L102.112 18.0372C102.11 17.9584 102.107 17.8803 102.107 17.8042C102.104 17.6735 102.101 17.5429 102.097 17.4122C102.085 16.8894 102.073 16.3667 102.011 15.844C101.877 14.7677 101.627 13.7107 101.204 12.7113C100.762 11.6543 100.147 10.6934 99.3208 9.88623C97.937 8.54094 96.2458 7.84907 94.324 7.65689C93.4591 7.58001 92.5943 7.59923 91.7295 7.69532C90.4803 7.84907 89.3079 8.17578 88.174 8.7139C84.5225 10.4436 82.9082 13.826 82.7544 16.901C82.6968 17.9388 82.7928 18.9573 83.0235 19.9567C83.4078 21.6864 84.1958 23.1854 85.4834 24.4154C87.463 26.318 89.846 27.2982 92.5943 27.3942C93.4591 27.4135 94.324 27.3558 95.1696 27.2021C97.2836 26.8369 99.1094 25.876 100.608 24.3385C100.685 24.2616 100.762 24.1655 100.82 24.0695C100.974 23.8196 100.935 23.5313 100.724 23.3199C100.685 23.2911 100.652 23.2623 100.618 23.2334L100.618 23.2333C100.584 23.2045 100.551 23.1757 100.512 23.147C100.07 22.8299 99.6283 22.508 99.1863 22.1861L99.1858 22.1858C98.7439 21.8639 98.302 21.5421 97.8602 21.2251C97.7833 21.1675 97.6872 21.1098 97.6103 21.0714C97.322 20.9176 97.053 20.9368 96.8031 21.129C96.7307 21.1725 96.6692 21.2378 96.6104 21.3002L96.6101 21.3005C96.591 21.3208 96.5722 21.3408 96.5533 21.3596C95.996 21.9554 95.3617 22.4167 94.593 22.7049C93.9204 22.9356 93.2477 23.0124 92.5366 22.9548C91.9024 22.8971 91.2874 22.7434 90.7301 22.4359C89.6731 21.8401 89.0004 20.9368 88.6545 19.7645ZM96.2266 14.9599V15.3251C93.6513 15.3443 91.0952 15.3443 88.5392 15.3251C88.5392 15.1136 88.5584 14.9215 88.6161 14.7293C89.0196 13.2302 89.9998 12.2693 91.5181 11.8849C92.2291 11.6928 92.9594 11.6735 93.6897 11.8657C95.1119 12.2501 96.1305 13.4993 96.2266 14.9599ZM33.3822 24.5307C33.3629 24.5596 33.3389 24.5884 33.3149 24.6172C33.2909 24.646 33.2668 24.6749 33.2476 24.7037C32.3251 26.2027 30.9798 27.0868 29.2502 27.4135C28.4814 27.5673 27.6935 27.6249 26.9055 27.5673C25.9062 27.4904 24.9453 27.2598 24.042 26.8177C23.1579 26.3757 22.4853 25.7031 21.9856 24.8574C21.7742 24.4923 21.755 24.1079 21.9472 23.7236C22.5429 22.4936 22.9465 21.2059 23.1772 19.8606C23.3501 18.7075 23.3886 17.5544 23.2925 16.3821C23.1964 15.1137 22.9273 13.8837 22.4661 12.6922C22.1009 11.7697 21.6589 10.9048 21.0631 10.1169C20.8133 9.77096 20.7364 9.38659 20.7748 8.96378C20.7748 8.92535 20.7797 8.88691 20.7845 8.84847C20.7893 8.81003 20.7941 8.7716 20.7941 8.73316C20.8325 8.42566 20.9862 8.29114 21.313 8.27192H22.0433C22.3219 8.27192 22.6006 8.27312 22.8793 8.27432C23.7153 8.27792 24.5513 8.28153 25.3873 8.2527C26.0407 8.23348 26.5788 8.75238 26.5788 9.42502V11.097V11.0976C26.5788 12.8463 26.5788 14.595 26.598 16.3437C26.598 17.0932 26.6173 17.8427 26.6365 18.573C26.6557 19.2072 26.7326 19.8414 26.9248 20.4564C27.0401 20.8216 27.213 21.1867 27.4437 21.4942C27.828 21.9939 28.3085 22.3014 28.9235 22.3975C29.5769 22.4936 30.2303 22.4936 30.8645 22.3014C31.9023 22.0131 32.5365 21.302 32.8633 20.3027C32.9735 19.9721 33.0192 19.6286 33.0638 19.2933C33.0737 19.2193 33.0835 19.1457 33.0939 19.0727C33.1762 18.3646 33.1739 17.6707 33.1715 16.9667C33.1711 16.849 33.1707 16.7311 33.1707 16.6127C33.1707 15.4288 33.1659 14.2448 33.1611 13.0633V13.0621L33.1611 13.0605C33.1563 11.8839 33.1515 10.7097 33.1515 9.54034C33.1515 9.38659 33.1708 9.21362 33.2092 9.05987C33.3245 8.59863 33.7281 8.27192 34.2085 8.23348C34.247 8.23348 34.2806 8.22868 34.3142 8.22387C34.3479 8.21907 34.3815 8.21426 34.4199 8.21426C34.7907 8.21426 35.1637 8.21213 35.5373 8.21H35.5375C36.287 8.20573 37.0394 8.20144 37.7832 8.21426C38.3597 8.21426 38.8018 8.57941 38.9363 9.13675C38.9555 9.25206 38.9747 9.36737 38.9747 9.5019C38.9843 12.2021 38.9891 14.9071 38.9939 17.6121C38.9987 20.3171 39.0036 23.0221 39.0132 25.7223C39.0132 25.8952 39.0132 26.0682 38.9747 26.2412C38.8594 26.7024 38.5519 26.9523 38.1099 27.0484C38.0138 27.0676 37.8985 27.0868 37.8024 27.0868C37.2835 27.0868 36.7646 27.0916 36.2457 27.0964C35.7268 27.1012 35.2079 27.106 34.689 27.106C34.2662 27.106 33.9203 26.9523 33.6704 26.5871C33.4975 26.3565 33.459 26.0874 33.459 25.8184C33.4718 25.5763 33.4676 25.3343 33.4634 25.0866C33.4612 24.9607 33.459 24.8333 33.459 24.7037C33.459 24.6749 33.4542 24.6509 33.4494 24.6268C33.4446 24.6028 33.4398 24.5788 33.4398 24.55C33.4206 24.55 33.4014 24.55 33.3822 24.5307ZM47.133 11.1161C47.109 11.1498 47.085 11.1834 47.0658 11.2122H47.0273C47.0081 11.1546 47.0081 11.0777 47.0081 11.02V9.21351V9.21345C47.0081 9.11737 47.0081 9.00209 46.9889 8.90601C46.9313 8.52164 46.6622 8.25259 46.2778 8.21415C46.1817 8.19493 46.0856 8.19493 45.9896 8.19493C44.7404 8.21415 43.4719 8.21415 42.2227 8.21415C42.1266 8.21415 42.0113 8.21415 41.9152 8.23337C41.5309 8.2718 41.2618 8.52164 41.2042 8.8868C41.1849 9.00211 41.1849 9.13663 41.1849 9.25195C41.1849 14.6331 41.2042 20.0335 41.2234 25.4339C41.2234 25.7414 41.2234 26.0297 41.2426 26.3179C41.281 26.7984 41.5693 27.0675 42.0498 27.0867H42.1651C43.4718 27.0675 44.7785 27.0675 46.0853 27.0675H46.0856C46.2009 27.0675 46.3162 27.0482 46.4315 27.029L46.4316 27.029C46.7198 26.9714 46.912 26.7984 46.9889 26.5101C47.0273 26.3564 47.0466 26.2026 47.0466 26.0489C47.0594 25.7278 47.0551 25.4154 47.0508 25.1058C47.0487 24.952 47.0466 24.799 47.0466 24.6459C47.0273 23.3583 47.0273 22.0899 47.0273 20.8022C47.0273 20.6557 47.027 20.5092 47.0267 20.3626C47.0246 19.3368 47.0225 18.311 47.1234 17.2853L47.1284 17.2326C47.1653 16.845 47.2037 16.4414 47.2772 16.0553C47.5847 14.537 48.4687 13.5377 49.9678 13.0764C50.5635 12.8842 51.1978 12.8458 51.832 12.8266C52.3893 12.8266 52.9274 12.865 53.4847 12.9611C54.0805 13.0572 54.4649 12.6152 54.4649 12.1347C54.4457 10.9624 54.4457 9.77084 54.4457 8.59852C54.4457 8.07962 54.1574 7.79134 53.6385 7.77212C53.5424 7.77212 53.4511 7.76732 53.3598 7.76251C53.2685 7.75771 53.1772 7.7529 53.0812 7.7529C52.4469 7.71447 51.8127 7.71447 51.1785 7.82978C50.0831 8.02196 49.1798 8.54086 48.4111 9.34804C47.9306 9.84772 47.5462 10.4243 47.2003 11.02C47.1811 11.0489 47.1571 11.0825 47.133 11.1161Z" fill="white"/>
</svg>
