<svg width="107" height="24" viewBox="0 0 107 24" fill="none" xmlns="http://www.w3.org/2000/svg">
<path fill-rule="evenodd" clip-rule="evenodd" d="M97.3268 15.5987L93.7212 7.91362H96.0835L98.1971 12.6238L103.916 0.352539H106.279L99.1918 15.5987H97.3268ZM47.2212 2.45962H42.6209V6.79795H47.2212V2.45962ZM47.2212 7.91342H42.6209V23.1595H47.2212V7.91342ZM8.18104 17.9535L11.2893 7.91342H15.8896L10.6677 23.1595H5.81874L0.348145 7.91342H4.94842L8.18104 17.9535ZM61.2706 11.632V11.3841V7.91342H48.5888V11.632H55.8L48.5888 19.5649V23.1595H61.768V19.5649H54.3081L61.2706 11.632ZM36.28 7.91342V10.2685C36.7773 9.5248 38.145 7.91342 39.637 7.91342H41.2533V12.0038H39.7613C39.7613 12.0038 36.4043 12.3757 36.28 16.3422V23.1595H31.8041V7.91342H36.28ZM22.8522 7.41767C18.6249 7.41767 15.1436 11.1362 15.1436 15.5985C15.1436 20.1847 18.6249 23.7794 22.8522 23.7794C26.0848 23.7794 29.3174 21.6722 30.4364 18.6973H26.0848C25.4631 19.8129 24.3442 20.4326 22.7278 20.3087C21.1115 20.1847 19.7439 18.8213 19.3709 16.7141H25.4631H26.7065H30.4364C30.4364 16.5415 30.4632 16.3689 30.4919 16.184C30.525 15.9704 30.5607 15.7403 30.5607 15.4746C30.5607 11.0123 27.0795 7.41767 22.8522 7.41767ZM19.4952 13.7392C19.9926 12.0039 21.2359 10.7644 22.7278 10.7644C24.2198 10.7644 25.4631 12.0039 25.9605 13.7392H19.4952ZM61.5193 15.5985C61.5193 11.1362 65.2493 7.41767 69.8495 7.41767C74.4498 7.41767 78.1797 11.0123 78.1797 15.5985C78.1797 20.0608 74.4498 23.7794 69.8495 23.7794C65.2493 23.7794 61.5193 20.1847 61.5193 15.5985ZM66.4926 15.5985C66.4926 18.2015 68.1089 20.3087 69.9739 20.3087C71.8388 20.3087 73.4551 18.2015 73.4551 15.5985C73.4551 12.9955 71.8388 10.8883 69.9739 10.8883C67.9845 10.8883 66.4926 12.9955 66.4926 15.5985ZM93.7212 13.1195C93.7212 8.28534 89.9913 7.04582 87.1317 7.66558C85.5153 8.03743 84.272 9.27696 83.7747 9.89672V7.91348H79.2988V23.1596H83.6504V13.9871C84.645 11.1362 86.6343 11.0123 87.8776 11.756C88.9966 12.3758 89.121 13.9871 89.121 13.9871V23.2836H93.5969L93.7212 13.1195Z" fill="white"/>
</svg>
