<?xml version="1.0" encoding="UTF-8"?>
<svg id="Layer_1" data-name="Layer 1" xmlns="http://www.w3.org/2000/svg" xmlns:rdf="http://www.w3.org/1999/02/22-rdf-syntax-ns#" xmlns:dc="http://purl.org/dc/elements/1.1/" xmlns:cc="http://creativecommons.org/ns#" version="1.1" viewBox="0 0 379.9 258">
  <defs>
    <style>
      .cls-1 {
        fill: #fff;
        stroke-width: 0px;
      }
    </style>
  </defs>
  <path class="cls-1" d="M379.9.1l-37.1,79.6h-148.8l-46.8,100.5h-42c.4-5.1,1.4-10.1,2.9-14.9,3.9-11.7,11.3-21.9,21.1-29.3,2.5,2.9,4.8,6,6.8,9.2.4.5,1,.5,1.1,0h0L204.8,0h175.1Z"/>
  <path class="cls-1" d="M35.5,211.4c-4.2,8.3-10.2,15.6-17.7,21.2C7.2,220.2.9,204.7,0,188.4h41.8c-.5,8-2.7,15.8-6.3,23"/>
  <path class="cls-1" d="M69.4,188.4v69.5c-17-1-33.2-7.9-45.7-19.4,8.1-6.3,14.6-14.3,19.2-23.5,4.2-8.3,6.7-17.3,7.2-26.6h19.3Z"/>
  <path class="cls-1" d="M38.7,165.3c1.6,4.8,2.6,9.8,2.9,14.9H0c.9-16.2,7.2-31.7,17.8-44,9.8,7.3,17.2,17.5,21,29.2"/>
  <path class="cls-1" d="M69.4,110.8v69.4h-19.4c-.4-6-1.5-11.9-3.4-17.5-4.3-12.9-12.3-24.2-23-32.6,7.7-7.1,16.8-12.5,26.8-15.8,6.2-2,12.6-3.2,19.1-3.5"/>
  <path class="cls-1" d="M96.9,180.2h-19.3v-69.4c17.1.9,33.3,7.7,45.8,19.3-10.8,8.3-18.9,19.6-23.1,32.6-1.9,5.7-3,11.6-3.4,17.5"/>
  <path class="cls-1" d="M123.4,238.7c-12.6,11.6-28.9,18.4-45.9,19.3v-69.5h19.3c.6,9.3,3.1,18.3,7.2,26.6,4.6,9.2,11.3,17.3,19.4,23.6"/>
  <path class="cls-1" d="M147.2,188.4c-.9,16.3-7.2,31.8-17.9,44.2-14.1-10.6-22.9-26.7-24.1-44.3h42Z"/>
</svg>