<svg width="133" height="39" viewBox="0 0 133 39" fill="none" xmlns="http://www.w3.org/2000/svg">
<path d="M128.649 7.17193C128.545 7.13005 128.4 7.06723 128.297 6.96254C128.338 6.96254 128.442 6.96254 128.545 6.96254C128.545 6.85784 128.504 6.81596 128.504 6.71126C128.504 6.71126 128.504 6.71126 128.545 6.66938C128.649 6.77408 128.752 6.87878 128.856 6.98348C128.752 7.00442 128.752 7.06723 128.649 7.17193ZM127.903 8.95179C127.945 8.90991 127.945 8.84709 128.007 8.84709C128.11 8.84709 128.152 8.88897 128.255 8.95179C128.255 9.05649 128.255 9.09837 128.297 9.20306C128.152 9.16119 128.007 9.05649 127.903 8.95179ZM132.851 0.575982C132.706 0.22001 132.602 0.115313 132.25 0.22001C132.147 0.22001 132.043 0.22001 132.002 0.178131C131.65 -0.135961 131.34 0.0315547 130.988 0.178131C130.843 0.0315547 130.677 0.0734337 130.574 0.22001C130.47 0.366587 130.429 0.471285 130.325 0.638801C129.87 1.35074 129.663 2.16739 129.477 2.98403C129.332 3.40282 129.228 3.80067 129.125 4.21946H129.083C129.042 4.53355 128.98 4.8267 128.938 5.24549C128.69 5.39207 128.69 5.74804 128.731 6.10402C128.628 6.20871 128.524 6.20871 128.524 6.31341C128.421 6.52281 128.379 6.77408 128.317 6.98348C128.214 7.33945 128.11 7.69542 128.007 8.15609C128.007 8.11421 127.965 8.15609 127.903 8.19797C128.048 8.19797 128.214 8.19797 128.317 8.19797C128.317 8.19797 128.317 8.23985 128.359 8.23985C128.317 8.28173 128.214 8.34454 128.214 8.38642C128.172 8.4283 128.11 8.533 128.11 8.59582C128.069 8.59582 128.069 8.59582 128.069 8.59582C128.069 8.55394 128.028 8.49112 128.028 8.38642C128.028 8.38642 127.986 8.38642 127.883 8.38642C127.841 8.533 127.779 8.74239 127.738 8.95179C127.738 8.99367 127.779 8.99367 127.779 9.05649C127.572 9.30776 127.427 9.55904 127.531 9.91501C127.572 9.87313 127.572 9.81031 127.634 9.76843C127.779 9.81031 127.945 9.91501 128.09 9.97783C128.09 10.0197 128.09 10.0825 128.09 10.0825C127.779 10.1872 127.531 10.2919 127.241 10.4385C126.434 12.9931 125.668 15.6524 124.861 18.3118C124.757 18.3118 124.612 18.3118 124.509 18.3536C124.364 17.9348 124.26 17.5789 124.157 17.2229C123.908 16.5528 123.701 15.9037 123.453 15.2336C123.246 14.773 123.039 14.2704 122.853 13.7469C122.749 13.4957 122.749 13.1397 122.646 12.8256C122.397 12.2602 121.983 11.6949 121.942 11.0457C121.942 11.0039 121.942 11.0039 121.942 11.0039C121.797 10.5013 121.59 10.0406 121.445 9.57998C121.445 9.47528 121.342 9.4334 121.3 9.37058C121.259 9.26588 121.197 9.16118 121.197 9.05649C121.197 8.90991 121.238 8.74239 121.197 8.6377C121.155 8.49112 121.052 8.38642 120.99 8.21891C120.948 8.21891 120.886 8.17703 120.783 8.17703C120.824 8.07233 120.886 8.03045 120.928 7.96763C120.783 7.50696 120.617 7.04629 120.472 6.58562C120.431 6.58562 120.431 6.58562 120.369 6.58562C120.369 6.58562 120.369 6.54375 120.369 6.48093C120.224 6.12495 120.058 5.76898 119.955 5.41301C119.748 4.80577 119.603 4.2404 119.396 3.63315C119.292 3.31906 119.147 3.02591 118.982 2.66993C118.878 2.35584 118.733 2.06269 118.526 1.74859C118.382 1.4345 118.175 1.18323 117.968 0.890075C117.864 0.785377 117.719 0.68068 117.554 0.534103C117.554 0.534103 117.595 0.492224 117.595 0.429406C117.347 0.429406 117.098 0.324708 116.788 0.324708C116.229 0.324708 115.98 0.638801 116.022 1.14135C116.063 1.7486 116.125 2.41866 116.27 3.02591C116.519 4.19852 116.829 5.37113 117.119 6.54375C117.222 7.00441 117.429 7.46508 117.574 7.96763C117.781 8.78427 117.988 9.60091 118.237 10.4804C118.485 11.297 118.796 12.1137 119.044 12.9931C119.147 13.1397 119.189 13.3491 119.292 13.4957C119.851 15.0242 120.41 16.6157 120.907 18.2071C120.948 18.2071 121.01 18.2071 121.052 18.2489C121.052 18.2908 121.052 18.2908 121.052 18.3536C121.01 18.3536 120.948 18.3536 120.907 18.3118C120.948 18.4165 120.907 18.5211 120.948 18.6258C121.155 19.2959 121.362 19.9032 121.549 20.5104C121.652 20.8245 121.693 21.1176 121.859 21.3689C122.273 22.1437 122.666 22.8556 123.08 23.5676C123.08 23.6095 123.08 23.7141 123.08 23.8188C122.977 24.3214 122.873 24.8449 122.728 25.3474C122.48 26.4782 122.232 27.588 121.963 28.6768C121.859 29.2422 121.714 29.7447 121.611 30.3101C121.507 30.6242 121.466 30.9173 121.362 31.2733C121.321 31.6293 121.217 31.9434 121.114 32.2994C121.01 32.9694 120.865 33.5767 120.762 34.2467C120.658 34.7493 120.514 35.2728 120.451 35.7753C120.41 36.6338 120.348 37.5552 120.307 38.4346C120.265 38.7906 120.348 38.9372 120.617 39C121.072 38.8953 121.424 38.7906 121.776 38.644C122.025 38.5393 122.335 38.4346 122.48 38.1415C122.584 37.7855 122.791 37.4295 122.894 37.0736C123.039 36.5082 123.205 35.9428 123.349 35.3775C123.494 34.7702 123.598 34.1002 123.846 33.5348C123.991 33.1788 123.846 32.7181 124.198 32.4041C124.198 32.4041 124.198 32.3622 124.198 32.2994C124.343 31.8387 124.302 31.2733 124.55 30.8126C124.757 30.4567 124.861 29.996 124.964 29.5772C125.109 28.97 125.275 28.2999 125.378 27.588C125.482 27.5461 125.523 27.4833 125.626 27.4414C125.668 27.1901 125.771 26.9807 125.875 26.7294C125.916 26.52 125.875 26.2688 125.978 26.0594C126.185 25.5568 126.185 25.0333 126.475 24.5308C126.62 24.1748 126.682 23.756 126.786 23.3582C126.889 23.0022 126.993 22.6462 127.096 22.2274C127.096 22.0809 127.137 21.9134 127.137 21.7668C127.282 21.4108 127.386 20.992 127.489 20.636C127.634 20.0707 127.841 19.5681 127.986 19.0028C128.028 18.7934 128.028 18.584 128.131 18.3955C128.276 18.0395 128.442 17.6208 128.586 17.2229C128.628 17.1182 128.586 17.0135 128.628 16.9088C128.773 16.3016 128.98 15.7362 129.125 15.1289C129.27 14.5217 129.373 13.8935 129.539 13.2863C129.684 12.7209 129.953 12.2184 130.098 11.653C130.201 11.2342 130.305 10.8782 130.408 10.5223C130.367 10.4176 130.408 10.3129 130.449 10.271C130.553 9.81031 130.656 9.30776 130.801 8.84709C131.008 8.17703 131.257 7.5279 131.464 6.85784C131.567 6.54375 131.712 6.29247 131.774 6.0412C131.878 5.58053 131.919 5.11986 132.023 4.65919C132.023 4.55449 132.126 4.44979 132.126 4.3451C132.23 4.09382 132.23 3.77973 132.333 3.52845C132.54 2.92121 132.747 2.25114 132.933 1.6439C133.058 1.24605 132.995 0.931954 132.851 0.575982ZM103.726 17.4951C103.685 17.5998 103.581 17.6417 103.478 17.8092C103.374 17.6626 103.333 17.5579 103.333 17.4951C103.291 16.7832 103.291 16.1131 103.229 15.443C103.126 14.5217 103.271 13.5585 103.271 12.6371C103.229 11.9252 103.312 11.2551 103.312 10.5432C103.354 9.76843 103.271 9.01461 103.312 8.30266C103.312 7.7373 103.457 7.17193 103.519 6.60656C103.561 6.25059 103.561 5.89462 103.933 5.78992C104.285 5.64335 104.637 5.53865 104.989 5.43395C105.299 5.39207 105.651 5.32925 105.941 5.22456C106.79 4.97328 107.556 5.11986 108.218 5.78992C108.425 5.99932 108.57 6.35529 108.673 6.71126C108.88 7.13005 108.818 7.56978 108.777 8.03045C108.735 8.49112 108.735 9.05649 108.632 9.51716C108.528 10.2919 108.28 11.0039 107.825 11.653C107.162 12.5743 106.562 13.6004 105.9 14.5217C105.196 15.5477 104.471 16.511 103.726 17.4951ZM115.339 35.0634C115.09 34.7074 114.842 34.3933 114.635 34.0373C114.386 33.6185 114.138 33.1788 113.869 32.76C113.414 32.1528 112.855 31.5246 112.461 30.9173C111.965 30.2054 111.551 29.4306 111.157 28.7187C111.012 28.5093 110.805 28.258 110.847 28.0486C110.888 27.6298 110.64 27.4833 110.495 27.2739C110.247 26.8551 109.936 26.5619 109.688 26.1431C109.584 25.8919 109.543 25.5778 109.377 25.3684C108.922 24.5936 108.425 23.8817 107.907 23.1278C107.556 22.6253 107.245 22.0599 106.852 21.5364C106.5 21.0758 106.086 20.7617 105.693 20.3638C105.651 20.3219 105.589 20.2591 105.486 20.2172C105.693 20.0079 105.9 19.8613 106.045 19.7147C106.293 19.4634 106.541 19.1493 106.893 18.8981C107.307 18.584 107.742 18.2908 108.156 18.0395C108.259 17.9977 108.259 17.893 108.301 17.8301C108.404 17.7254 108.446 17.6208 108.549 17.5789C108.591 17.4742 108.653 17.4323 108.694 17.3276C108.901 16.9716 109.046 16.5528 109.253 16.1969C109.46 15.8828 109.708 15.5268 109.915 15.1708C110.019 15.0242 110.122 14.752 110.226 14.5636C110.371 14.2495 110.536 13.8935 110.64 13.6004C110.785 13.1397 110.888 12.679 110.992 12.2184C111.137 11.7158 111.344 11.2551 111.489 10.7945C111.53 10.5432 111.447 10.2919 111.53 10.0197C111.778 9.24494 111.675 8.4283 111.675 7.67448C111.675 7.36039 111.571 7.06723 111.571 6.75314C111.613 6.29247 111.426 5.89462 111.012 5.62241C110.909 5.51771 110.805 5.37113 110.764 5.20362C110.619 4.95234 110.557 4.59637 110.412 4.3451C109.853 3.67503 109.108 3.27718 108.342 3.02591C107.783 2.87933 107.183 2.71181 106.624 2.60712C105.568 2.39772 104.554 2.56524 103.602 3.06778C103.498 3.10966 103.354 3.10966 103.25 3.17248C102.588 2.46054 101.78 2.25114 100.87 2.04175C100.828 2.25114 100.766 2.46054 100.766 2.64899C100.725 3.36094 100.663 4.1357 100.621 4.84764C100.58 5.62241 100.414 6.37623 100.373 7.08817C100.331 8.15609 100.331 9.18212 100.331 10.25C100.29 11.988 100.29 13.7679 100.228 15.5059C100.228 16.0084 100.186 16.4691 100.186 16.9926C100.145 17.7673 100.042 18.5211 100.042 19.2959C100.042 20.0707 100.145 20.7826 100.145 21.4946C100.104 22.3531 100.042 23.1907 100.042 24.0492C100.042 24.6564 100.145 25.3265 100.145 25.9337C100.186 26.541 100.104 27.1064 100.104 27.6717C100.145 28.949 100.207 30.2263 100.207 31.4618C100.249 32.2365 100.311 33.0532 100.311 33.807C100.311 34.4771 100.311 35.1262 100.663 35.7544C100.766 35.9638 100.973 36.1732 101.221 36.215C101.532 36.3197 101.822 36.2569 102.132 36.2569C102.443 36.0056 102.174 35.4403 102.733 35.3984C102.774 35.5031 102.877 35.6497 102.94 35.7544C103.043 35.4403 103.084 35.1471 103.188 34.7912C103.229 34.6865 103.291 34.5399 103.291 34.4352C103.395 33.3673 103.436 32.2365 103.498 31.1686C103.498 30.1426 103.395 29.1794 103.395 28.1952C103.354 27.6298 103.395 27.1273 103.436 26.6038C103.478 25.5778 103.54 24.5517 103.581 23.5885C103.581 23.4419 103.623 23.2744 103.726 23.086C103.83 23.2325 103.975 23.2954 104.037 23.4001C104.451 24.0701 104.803 24.7192 105.196 25.3893C105.796 26.3525 106.5 27.2739 107.017 28.258C107.721 29.4935 108.384 30.6661 109.232 31.7759C109.895 32.6972 110.495 33.6185 111.157 34.4771C111.861 35.3984 112.731 36.1732 113.89 36.5291C114.304 36.6338 114.697 36.6757 115.111 36.7804C115.214 36.7804 115.318 36.7385 115.359 36.7385C115.359 36.4873 115.359 36.2779 115.401 36.0685C115.442 35.7334 115.546 35.3775 115.339 35.0634ZM85.9658 16.825C85.8623 16.7204 85.7588 16.6157 85.6553 16.4691C85.6553 16.4272 85.6553 16.3644 85.6967 16.2597C85.8002 16.4691 85.9037 16.6157 86.0072 16.7622L85.9658 16.825ZM87.5183 32.0062C87.5597 31.7968 87.6218 31.6502 87.6632 31.5037C87.7667 31.6083 87.8702 31.6502 87.9737 31.7549C87.9737 31.7549 87.9737 31.7968 87.9737 31.9015C87.8288 31.9434 87.6839 31.9434 87.5183 32.0062ZM86.5661 31.1267C86.5247 31.1686 86.5247 31.2314 86.5247 31.2733C86.5661 31.3152 86.5661 31.4199 86.6696 31.4827C86.6696 31.4827 86.7731 31.4827 86.8145 31.5246C86.7731 31.5665 86.7731 31.6293 86.7731 31.6712C86.6282 31.6293 86.5247 31.5665 86.4212 31.5246L86.3798 31.5665C86.2763 31.4618 86.1728 31.3571 86.1314 31.3152C86.2556 31.2943 86.4212 31.1896 86.5661 31.1267ZM88.1807 31.9434C88.1807 31.9434 88.2221 31.8387 88.1807 31.7968C88.0772 31.5455 87.9737 31.2314 87.9323 30.9802C87.8288 30.4776 87.7874 29.9541 87.7253 29.4516C87.6839 29.3469 87.6218 29.2422 87.6218 29.1375C87.5804 29.1375 87.5804 29.1375 87.5183 29.1375C87.5183 28.6768 87.5183 28.2161 87.5183 27.7136C87.4769 27.6717 87.4769 27.6089 87.4148 27.567C87.4562 27.2111 87.5597 26.8551 87.3113 26.6457C87.2699 25.0543 87.2078 23.5885 87.1664 22.1018H87.2078C87.2078 22.0599 87.1664 21.9971 87.1664 21.9552C87.1664 21.5364 87.125 21.1805 87.125 20.7826H87.1664C87.1664 20.7407 87.1664 20.6779 87.125 20.5732C87.2285 20.4685 87.3734 20.3219 87.4769 20.2591C87.7874 20.2591 88.0772 20.2591 88.3256 20.2591C89.3813 20.3638 90.499 20.5104 91.5547 20.2172C92.0515 20.0707 92.5069 20.2173 93.0244 20.0707C93.5212 19.9241 93.7282 19.5053 94.0801 19.254V19.2122C94.0801 19.1703 94.0387 19.0656 94.0387 19.0028C94.1422 18.8981 94.2457 18.7934 94.3492 18.6887C94.4527 18.4793 94.5562 18.2699 94.7011 18.1233C94.9495 17.9139 95.0116 17.7045 94.9081 17.4532C94.4527 17.3485 93.9559 17.2438 93.5005 17.1391C92.9002 17.0344 92.2792 16.9926 91.6375 16.9297C91.1821 16.8879 90.6853 16.825 90.1678 16.8879C89.402 16.9297 88.5947 17.1391 87.8495 17.2438C87.746 17.2438 87.6425 17.2438 87.539 17.202C87.2285 17.0973 86.8766 17.0554 86.8352 16.5947C87.0422 16.5947 87.1871 17.0135 87.4355 16.5947C87.4355 16.49 87.4769 16.2387 87.4769 16.0293C87.4769 15.3174 87.4769 14.5426 87.4769 13.8307C87.4355 13.726 87.4769 13.6213 87.4769 13.5166C87.4769 13.1606 87.4355 12.8047 87.4355 12.4487C87.4355 12.1974 87.539 11.9461 87.539 11.6739C87.539 11.1086 87.4976 10.606 87.4355 10.0825C87.4355 9.72655 87.4355 9.41246 87.3941 9.05649C87.3941 8.95179 87.2906 8.80521 87.2906 8.6377C87.332 8.3236 87.332 8.07233 87.3941 7.77918C87.4355 7.46508 87.4355 7.17193 87.4976 6.85784C87.6011 6.18777 87.8081 5.58053 87.7046 4.91046C87.6632 4.70107 87.746 4.49167 88.0151 4.49167C88.5119 4.38697 89.0294 4.28228 89.6297 4.17758C90.1264 4.1357 90.7888 4.28228 91.4512 4.07288C91.4926 4.07288 91.5961 4.11476 91.6996 4.11476C92.0101 4.07288 92.2585 4.01006 92.5483 3.90537C93.1486 3.80067 93.7075 3.65409 94.2664 3.65409C94.4734 3.65409 94.6183 3.61221 94.8253 3.54939C94.8253 3.50751 94.8253 3.50751 94.8253 3.4447C94.8667 3.48658 94.9702 3.48658 95.0323 3.48658C95.1772 3.48658 95.3428 3.4447 95.4877 3.38188C95.4877 3.38188 95.4877 3.38188 95.4463 3.34C95.5912 3.19342 95.7568 3.02591 95.9017 2.87933C95.9017 2.92121 95.9431 2.92121 95.9431 2.92121C95.9845 2.81651 95.9845 2.71181 96.0466 2.56524C95.7361 2.52336 95.5498 2.46054 95.2807 2.41866C95.0323 2.37678 94.7218 2.41866 94.5769 2.06269C94.5769 1.95799 94.432 1.91611 94.3285 1.85329C94.1215 1.81141 93.9145 1.7486 93.7282 1.70672C93.1279 1.66484 92.5069 1.49732 91.9066 1.45544C91.4926 1.41356 91.0579 1.45544 90.6439 1.45544C90.499 1.45544 90.292 1.49732 90.1471 1.49732C89.4848 1.49732 88.8431 1.49732 88.1807 1.5392C87.7253 1.5392 87.2699 1.6439 86.8145 1.68578C86.504 1.72766 86.1521 1.72766 85.8623 1.79047C85.4483 1.83235 84.848 2.14645 84.7445 2.71181C84.7031 3.17248 84.5996 3.57033 84.5375 3.98912C84.3305 5.30831 84.1856 6.64844 84.0407 8.03045C83.9372 8.88897 83.8958 9.76843 83.8337 10.627C83.7302 11.9461 83.6267 13.2863 83.5232 14.6055C83.4818 15.6315 83.4197 16.6575 83.3783 17.7254C83.3369 19.1493 83.3369 20.5942 83.2748 22.0599C83.2748 22.9184 83.2335 23.756 83.2335 24.6145C83.2335 24.8658 83.2748 25.1171 83.2748 25.3893C83.2334 26.206 83.1713 27.0854 83.13 27.9021C83.13 28.7187 83.13 29.5353 83.4404 30.352C83.5853 30.9592 83.6474 31.6293 83.9993 32.1947C84.3512 32.8019 84.7031 33.3673 85.1585 33.8908C85.262 33.9326 85.3034 34.1002 85.4069 34.142C85.5518 34.3514 85.7174 34.498 85.8209 34.6446C86.0279 34.7493 86.1314 34.7912 86.2763 34.8959C86.3798 34.9377 86.5247 35.0005 86.6903 35.1052C87.4562 35.6706 88.367 35.8172 89.2571 36.0266C89.6711 36.1313 90.0643 36.1313 90.4783 36.1732C90.7267 36.1732 91.0372 36.1732 91.2442 36.0685C91.5547 35.8172 91.9066 35.8172 92.2585 35.7544C93.0658 35.7125 93.7696 35.4403 94.5355 35.1471C95.0323 34.8959 95.3014 34.4771 95.3428 33.9745C95.3428 33.8698 95.3428 33.7651 95.3842 33.6604C95.5291 33.4091 95.4877 33.1579 95.2807 32.8857C95.0737 32.6763 94.8667 32.425 94.6183 32.1737C94.6597 32.069 94.7218 31.9224 94.7632 31.713C94.7218 31.6712 94.6597 31.6084 94.6597 31.5665C94.6597 31.4618 94.6597 31.4199 94.7011 31.2524C94.4527 31.2524 94.2457 31.2524 94.0387 31.2943C93.4798 31.5037 92.9209 31.713 92.3206 31.9015C91.3684 32.2575 90.4576 32.76 89.3813 32.3622C89.0294 32.2156 88.7189 32.1109 88.4291 32.0062C88.3256 32.1109 88.2842 32.0481 88.1807 31.9434ZM66.3839 8.09327H66.3425C66.3011 7.98857 66.3011 7.88387 66.239 7.7373C66.3425 7.69542 66.3839 7.6326 66.446 7.59072C66.4874 7.59072 66.4874 7.6326 66.5495 7.6326C66.4667 7.77918 66.4253 7.92575 66.3839 8.09327ZM66.0113 9.51716C65.9078 9.62185 65.8664 9.66373 65.7008 9.76843C65.7008 9.55904 65.7422 9.45434 65.7422 9.30776C65.8457 9.26588 65.8871 9.26588 65.9906 9.20306C66.0113 9.37058 66.0113 9.41246 66.0113 9.51716ZM65.4731 4.97328C65.6801 4.97328 65.7836 5.01516 65.9285 5.07798C65.825 5.22456 65.7836 5.28737 65.6801 5.43395C65.618 5.26643 65.5559 5.18268 65.4731 4.97328ZM65.5145 8.80521C65.2661 8.70051 65.3075 8.49112 65.3075 8.30266C65.204 8.34454 65.1005 8.40736 64.997 8.40736C64.997 8.44924 64.997 8.51206 65.0384 8.51206C64.997 8.51206 64.9349 8.47018 64.8314 8.47018C64.8728 8.36548 64.9349 8.26079 64.9763 8.15609C65.0798 8.11421 65.1833 8.11421 65.2868 8.05139C65.3282 8.05139 65.4317 8.05139 65.5973 8.05139C65.4938 8.15609 65.4524 8.19797 65.4524 8.26079C65.4938 8.30266 65.5559 8.36548 65.5973 8.40736C65.5559 8.55394 65.5559 8.65864 65.5145 8.80521ZM64.3553 6.39717C64.3553 6.35529 64.3139 6.29247 64.3139 6.25059C64.3553 6.20871 64.4174 6.14589 64.4588 6.14589C64.5002 6.18777 64.5623 6.18777 64.5623 6.18777C64.7072 6.22965 64.8107 6.22965 64.9142 6.22965C64.8728 6.27153 64.8728 6.37623 64.8107 6.43905C64.6658 6.45999 64.5623 6.39717 64.3553 6.39717ZM64.3967 4.09382C64.4381 4.09382 64.4381 4.09382 64.5002 4.09382C64.5002 4.19852 64.5416 4.3451 64.5416 4.44979L64.5002 4.49167C64.3967 4.44979 64.3553 4.38697 64.2932 4.3451C64.3553 4.26134 64.3553 4.15664 64.3967 4.09382ZM64.8107 5.18268C64.8521 5.1408 64.9556 5.1408 65.0177 5.07798C65.0591 5.11986 65.1212 5.18268 65.1626 5.22456C65.1212 5.32925 65.1212 5.37113 65.1212 5.43395C64.9142 5.53865 64.7072 5.64335 64.5623 5.74804C64.5209 5.64335 64.4174 5.49677 64.3553 5.28737C64.4588 5.28737 64.5002 5.24549 64.6037 5.24549C64.6037 5.1408 64.5623 5.09892 64.5623 4.99422C64.5623 4.99422 64.5623 4.99422 64.6037 4.95234C64.6658 5.01516 64.7486 5.07798 64.8107 5.18268ZM78.9072 2.52336C78.4518 2.20926 78.0585 1.91611 77.4375 1.85329C77.1891 1.85329 77.0856 1.89517 77.0235 2.16739C76.92 2.62805 76.8165 3.08872 76.7131 3.54939C76.5061 4.32416 76.299 5.0361 76.1542 5.78992C76.0093 6.35529 75.9058 6.92066 75.8023 7.4232C75.6988 7.92575 75.5953 8.44924 75.5539 9.01461C75.409 9.97783 75.3055 11.0039 75.1399 11.988C74.995 12.9512 74.788 13.8726 74.6431 14.8567C74.5396 15.6315 74.4361 16.3853 74.3326 17.0973C74.1256 18.4793 73.8772 19.7985 73.6702 21.1805C73.6702 21.327 73.6288 21.5364 73.5667 21.7458C73.4632 22.5625 73.3597 23.4419 73.2148 24.3005C73.1113 25.0752 73.0078 25.7872 72.9043 26.4991C72.8008 27.2739 72.6973 27.9858 72.5938 28.7396C72.5524 28.8862 72.5524 29.0956 72.4903 29.305C72.4903 29.3469 72.5317 29.4097 72.5317 29.4097C72.4903 29.5144 72.4282 29.6191 72.4282 29.7238C72.4696 29.7657 72.4696 29.8285 72.5317 29.8285C72.4282 29.9332 72.3247 29.9751 72.2212 30.0798C72.1177 29.9751 72.0763 29.8704 72.0142 29.7657C71.9107 29.4516 71.8072 29.1584 71.7037 28.8443C71.6623 28.6978 71.5588 28.5302 71.5588 28.3837C71.4553 27.7764 71.4139 27.1064 71.3518 26.4991C71.1034 26.3525 71.1034 26.1431 71.1034 25.829C71.1448 25.4731 71.1034 25.159 71.062 24.803C71.0206 24.5517 70.9171 24.3005 70.855 23.9864C70.8136 23.4838 70.7101 22.9603 70.6066 22.395C70.5652 22.1856 70.5031 21.9343 70.4617 21.7249C70.4203 21.4108 70.3582 21.1176 70.3168 20.8036C70.2754 20.5942 70.172 20.3848 70.1098 20.1963C70.0063 19.8403 69.965 19.4844 69.8615 19.1284C69.7579 18.7724 69.6131 18.3536 69.5096 17.9558C69.4682 17.8511 69.4682 17.7464 69.4061 17.6417C69.4061 17.4323 69.4061 17.2857 69.3647 17.0763C69.3233 16.825 69.2612 16.6157 69.2198 16.3016C69.1784 15.8409 69.2198 15.3383 68.9093 14.8149C68.7644 14.5636 68.7644 14.1448 68.7023 13.7888C68.5574 13.0769 68.3918 12.3649 68.2469 11.6949C68.0399 10.8782 67.895 10.0616 67.688 9.24494C67.5431 8.533 67.3361 7.86294 67.1291 7.19287C67.0877 6.9416 66.9842 6.7322 66.9221 6.52281C66.8186 6.20871 66.7772 5.91556 66.6737 5.60147C66.5702 5.35019 66.4667 5.18268 66.4253 4.99422C66.4253 4.95234 66.4667 4.95234 66.4667 4.95234C66.2597 4.53355 66.0113 4.17758 65.8043 3.82161C65.7629 3.71691 65.7629 3.57033 65.6594 3.50751C65.3075 3.29812 64.997 3.15154 64.6451 3.00497C64.2932 2.90027 63.9827 2.90027 63.6308 2.79557C63.2789 2.75369 63.072 2.83745 63.1341 3.21436C63.1341 3.77973 63.1754 4.3451 63.2375 4.84764C63.341 5.55959 63.4445 6.22965 63.5894 6.89972C63.7964 8.03045 64.0034 9.09837 64.2518 10.2291C64.4588 11.0039 64.7072 11.7577 64.9142 12.5743C65.1626 13.6422 65.3696 14.7102 65.5766 15.799C65.6801 16.2178 65.7836 16.6157 65.825 17.0344C65.8664 17.3485 65.8664 17.6417 65.9285 17.9558C65.9699 17.9558 66.032 17.9558 66.0734 17.9558C66.032 18.0605 65.9699 18.1024 65.9699 18.2071C66.0113 18.4583 66.0734 18.7724 66.1148 19.0237C66.2183 19.6309 66.3632 20.301 66.5288 20.9083C66.6737 21.7249 66.8393 22.5415 66.9842 23.3163C67.2326 24.4889 67.5431 25.6196 67.7915 26.7294C68.0399 27.9649 68.2883 29.1375 68.5574 30.3101C68.7644 31.1686 68.9714 32.0062 69.1163 32.8647C69.2612 33.5348 69.4268 34.1839 69.965 34.7493C70.1719 34.9587 70.3168 35.3146 70.4617 35.5659C70.5031 35.6078 70.5031 35.6706 70.5652 35.7125C71.062 36.2779 71.5795 36.8432 72.3247 37.0317C72.5317 37.0736 72.6766 37.0736 72.8836 37.0736C73.132 37.1154 73.9393 36.8223 74.1049 36.6129C74.1049 36.571 74.1463 36.571 74.1463 36.5082C74.2498 36.2988 74.3533 36.0894 74.4982 35.8381C74.4982 35.7963 74.5396 35.7334 74.5396 35.6916C74.6845 35.189 74.788 34.6236 74.8915 34.1002C75.0364 33.4301 75.202 32.7181 75.3469 32.0481C75.3883 31.6293 75.4918 31.2314 75.5539 30.8126C75.6574 30.2473 75.7609 29.7447 75.8644 29.1794C75.9679 28.6768 76.0093 28.1115 76.1749 27.588C76.2163 27.2739 76.4232 26.9807 76.4854 26.6247C76.6923 25.9547 76.5889 25.2427 76.7958 24.5727C76.9407 24.2167 76.8993 23.7979 76.9407 23.4419C77.0442 22.7719 77.0856 22.1646 77.1891 21.4946C77.2305 21.2433 77.2926 20.992 77.334 20.7198C77.3754 19.9032 77.4375 19.0865 77.6859 18.3118C77.6859 18.2071 77.6859 18.1652 77.6859 18.0605C77.7273 17.7464 77.7273 17.4532 77.7894 17.1391C77.8308 16.7832 77.9343 16.4691 77.9343 16.1131C78.0378 15.4012 78.0378 14.6892 78.1827 13.9773C78.3276 13.4119 78.3276 12.8465 78.3897 12.2812C78.4311 11.9671 78.3897 11.6739 78.4311 11.3598C78.5346 10.6479 78.6381 9.97783 78.7416 9.26588C78.8451 8.76333 78.8451 8.23985 78.8865 7.7373C78.9279 7.48602 78.99 7.27663 78.99 7.06723C79.0314 6.64844 79.0935 6.25059 79.197 5.8318C79.3419 5.32925 79.5075 4.76389 79.4454 4.2404C79.404 4.1357 79.4454 4.09382 79.4454 4.031C79.6524 3.69597 79.2591 2.71181 78.9072 2.52336ZM44.8976 14.3123C44.7941 14.3123 44.7527 14.3123 44.6492 14.3123C44.6078 14.417 44.6078 14.5217 44.6078 14.5636C44.7113 14.6055 44.8148 14.6055 44.9597 14.6683C44.9597 14.5217 44.8976 14.417 44.8976 14.3123ZM44.7941 15.2336C44.7527 15.0871 44.7527 14.9824 44.7527 14.8777C44.7113 14.8777 44.6492 14.8358 44.6078 14.8358C44.6078 14.7311 44.6078 14.6892 44.6078 14.6264C44.5664 14.8777 44.5043 15.1289 44.4629 15.4849C44.6492 15.3383 44.6906 15.2965 44.7941 15.2336ZM44.6078 14.5845C44.6078 14.5845 44.6078 14.5845 44.6078 14.6264V14.5845ZM58.6422 16.7204C58.6008 16.6785 58.5387 16.6157 58.4352 16.5738C58.5387 16.3644 58.5801 16.2178 58.6836 15.9665C58.6836 15.9665 58.6836 15.9246 58.6836 15.82H58.725C58.7664 16.0712 58.7664 16.3853 58.8285 16.6366C58.7871 16.6785 58.6836 16.6785 58.6422 16.7204ZM58.3317 18.7724C58.3317 19.0237 58.3317 19.2331 58.2903 19.4844C58.2489 19.6938 58.1868 19.945 58.0833 20.1544C57.8349 20.7617 57.8763 21.3899 57.9384 21.9971C57.9798 22.3112 57.9384 22.5625 57.9384 22.8556C57.9384 23.421 57.9384 23.9235 57.897 24.4889C57.897 24.803 57.897 25.0543 57.897 25.3474C57.897 25.8081 57.897 26.2688 57.9384 26.7294C57.897 26.7713 57.8349 26.8341 57.8349 26.8341C57.69 27.2948 57.5244 27.6508 57.4209 28.0696C57.3795 28.1743 57.3174 28.3208 57.276 28.4255C56.862 29.2003 56.9241 30.1635 56.2618 30.6661C56.2204 31.022 56.1583 31.2733 56.1169 31.5246C56.0755 31.4827 56.0134 31.4827 56.0134 31.4827C55.9099 31.6293 55.765 31.7968 55.6615 31.9015C55.3096 32.2575 54.9577 32.6763 54.5437 32.9694C54.5023 33.0741 54.3367 33.0113 54.1918 33.0113C54.1918 32.8647 54.1504 32.8019 54.1504 32.6553C53.902 32.8647 53.7364 32.6972 53.5915 32.5088C53.0947 31.7968 52.5358 31.1267 52.0183 30.4148C51.5215 29.7447 51.211 28.9281 51.004 28.1115C50.6935 27.0435 50.4037 25.9756 50.1553 24.9496C49.907 24.0282 49.7414 23.1069 49.5965 22.1856C49.5551 21.5155 49.5965 20.8664 49.5965 20.1963C49.5965 19.6938 49.6379 19.2331 49.5965 18.7096C49.4516 16.9297 49.5551 15.1918 50.0104 13.4957C50.3209 12.2184 50.5693 10.9829 50.8177 9.70561C50.9626 8.67958 51.2317 7.65354 51.7699 6.79502C52.0804 6.22965 52.4737 5.76898 52.8877 5.26643C52.9291 5.22456 53.0326 5.16174 53.1361 5.16174C54.0469 5.26643 54.8128 5.76898 55.3096 6.54375C55.6201 6.89972 55.9099 7.31851 56.1583 7.71636L56.1169 7.75824C56.1583 7.86293 56.2204 7.96763 56.2618 8.07233C56.4688 8.67958 56.7172 9.34964 56.9655 10.0197C57.1104 10.4385 57.3174 10.8363 57.5244 11.297C57.8349 12.009 57.9798 12.7209 58.0212 13.5375C58.0626 13.7469 58.0626 13.8935 58.1247 14.1029C58.1247 14.2495 58.1247 14.4589 58.1247 14.6055C58.1247 15.0243 58.1247 15.3802 58.1661 15.7781C58.0626 16.3434 58.1661 17.0135 58.311 17.1601C58.311 17.7254 58.2696 18.228 58.2696 18.7515H58.3317V18.7724ZM45.3116 13.4957C45.2081 13.4538 45.1667 13.391 45.1046 13.391C45.0632 13.4328 45.0011 13.4957 44.9597 13.4957C44.9183 13.4957 44.9183 13.4538 44.9183 13.4538C45.0218 13.3491 45.1667 13.3072 45.3323 13.2025C45.3116 13.3072 45.3116 13.391 45.3116 13.4957ZM61.5816 18.9609C61.5402 17.8301 61.4367 16.6575 61.2711 15.5477C61.1262 14.5845 60.9606 13.6004 60.7743 12.6371C60.4224 11.3598 60.0084 10.0825 59.6565 8.76333C59.1597 7.02535 58.1868 5.74804 56.6343 4.8267C55.7236 4.32416 54.7714 4.05194 53.7985 3.80067C52.9498 3.59127 52.039 3.69597 51.1282 3.80067C50.7763 3.84255 50.4658 3.94724 50.1139 3.90537C49.6172 3.86349 49.0997 4.01006 48.7064 4.21946C48.3959 4.36604 48.1475 4.72201 47.8991 5.0361C47.5886 5.39207 47.2367 5.81086 46.9883 6.20871C46.6778 6.6275 46.4915 7.13005 46.2224 7.59072C46.1189 7.90481 45.974 8.15609 45.8705 8.44924C45.6635 9.01461 45.5186 9.62185 45.3737 10.1872C45.2702 10.5013 45.2702 10.7945 45.1667 11.0457C45.1253 11.3598 44.9597 11.653 44.9183 11.9671C44.8148 12.3231 44.7734 12.7418 44.7734 13.1397C44.732 13.4538 44.525 13.8098 44.8769 14.1029C44.9183 14.1029 44.9804 14.1029 45.1253 14.061C45.0218 13.9145 44.9183 13.8098 44.8148 13.6422C44.8562 13.6422 44.8562 13.6004 44.9183 13.5375C45.0632 13.5794 45.2702 13.6422 45.4772 13.6841C45.4358 13.9982 45.4358 14.2495 45.3737 14.5426C45.3323 14.5426 45.3323 14.5426 45.3323 14.5426C45.3323 14.5845 45.3323 14.6892 45.3323 14.752C44.9183 14.8567 44.9183 15.108 44.9804 15.3593C44.939 15.4012 44.8769 15.5059 44.8355 15.5687C44.939 15.6106 44.939 15.6734 45.0425 15.7781C44.8976 15.82 44.8355 15.8828 44.6906 15.8828C44.6906 15.7781 44.6906 15.6734 44.6906 15.5687C44.6492 15.5687 44.5871 15.5687 44.4836 15.5268C44.4836 15.6734 44.4836 15.7781 44.4836 15.8828C44.525 15.9246 44.5871 15.9246 44.6285 15.9875C44.6285 16.0922 44.5871 16.1969 44.5871 16.2387C44.6285 16.2806 44.6906 16.3434 44.7941 16.4481C44.6906 16.4063 44.5871 16.4063 44.5457 16.4063L44.5043 16.4481C44.4629 16.49 44.4629 16.49 44.4629 16.5528C44.5043 16.5947 44.5043 16.6575 44.5664 16.6575C44.2145 17.1182 44.6078 17.5161 44.6078 17.893C44.5664 18.8562 44.5664 19.7775 44.5043 20.657C44.6492 20.7617 44.7113 20.8036 44.8562 20.8664C44.7113 20.9083 44.6492 20.9083 44.5457 20.9711C44.5871 21.013 44.6492 21.1176 44.6492 21.1176C44.4422 21.8296 44.8562 22.3531 44.9597 22.8975C44.9183 22.9394 44.8562 22.9394 44.8148 23.0022C44.8562 23.1488 44.9183 23.2535 44.9597 23.3582C45.1667 24.0282 45.3116 24.6774 45.56 25.3474C45.6014 25.5987 45.8084 25.85 45.8705 26.1222C46.0154 26.7294 46.1189 27.3576 46.4294 27.8602C46.5329 28.0696 46.5743 28.279 46.6778 28.4674C46.9262 29.3259 47.2367 30.2054 47.4851 31.0639C47.5265 31.0639 47.5265 31.1058 47.5265 31.1058C47.7749 31.5246 47.9405 31.9643 48.1889 32.3831C48.6029 32.9904 48.9548 33.7023 49.4102 34.2677C49.6586 34.6236 50.1139 34.8749 50.5279 35.189C51.2938 35.6916 52.2046 36.0056 53.0533 36.215C53.7571 36.4244 54.4609 36.3616 55.1647 36.3197C55.8685 36.215 56.3859 35.901 56.8827 35.4612C57.1932 35.2518 57.3795 34.9587 57.69 34.7493C58.2489 34.4352 58.6008 33.9326 58.8492 33.3254C59.2011 32.5087 59.5116 31.6293 59.8635 30.7708C60.3603 29.5982 60.7122 28.3627 60.8778 27.0854C61.0848 25.4521 61.3746 23.8188 61.5402 22.1856C61.5816 21.1176 61.623 20.0497 61.5816 18.9609ZM45.8291 33.4301C45.6842 33.3882 45.6221 33.3254 45.5186 33.3254C45.3116 33.2835 45.1046 33.2835 44.9183 33.2207C44.6078 33.2207 44.318 33.116 44.0075 33.2207C43.697 33.3254 43.4072 33.5767 43.0968 33.7232C42.5379 34.0373 41.979 34.2886 41.3787 34.5399C40.9233 34.6865 40.4265 34.6865 39.909 34.5818C39.1431 34.4771 38.6049 33.9745 38.046 33.4091C37.632 32.9485 37.1973 32.5506 36.7833 32.1318C36.7419 32.1737 36.7419 32.1737 36.7419 32.2365C36.7419 32.1318 36.7006 32.09 36.7006 31.9853C36.7006 32.0271 36.7006 32.0271 36.6591 32.0271C36.3073 31.6083 35.9554 31.1686 35.6035 30.7498C35.5621 30.6033 35.5 30.4986 35.3965 30.331C35.1895 29.9122 34.9411 29.5563 34.8376 29.1584C34.7341 28.6978 34.5892 28.3418 34.3822 28.1324C34.2787 27.7136 34.2373 27.4204 34.1752 27.1064C34.0717 26.6038 33.9682 26.0803 33.8647 25.5149C33.8233 25.3684 33.8233 25.2637 33.7612 25.0962C33.6577 24.6774 33.5128 24.2376 33.5128 23.8188C33.4714 23.0022 33.5128 22.2274 33.5128 21.3689C33.5542 21.1176 33.6577 20.7617 33.7198 20.3429C33.7612 19.8822 34.0303 19.4215 33.9268 18.919C33.8854 18.919 33.9268 18.8771 33.9268 18.8771C33.9682 18.5211 34.0717 18.1652 34.1338 17.8092C34.2373 17.3904 34.3408 17.0344 34.4443 16.6366C34.6927 15.7153 34.9411 14.7939 35.2102 13.8726C35.4172 12.9512 35.6242 12.0927 36.0175 11.2761C36.2659 10.7735 36.4314 10.25 36.6798 9.74749C36.9282 9.18212 37.1766 8.67958 37.4457 8.11421C37.4871 8.00951 37.5906 7.96763 37.5906 7.86293C37.9425 7.25569 38.253 6.6275 38.7498 6.16683C38.9568 5.95744 39.1638 5.70616 39.3501 5.45489C39.7641 5.09892 40.116 4.63825 40.5714 4.38697C41.1717 4.031 41.8341 3.71691 42.4965 3.46564C42.8484 3.31906 43.2002 3.21436 43.5107 3.21436C43.8626 3.17248 44.0696 3.00497 44.318 2.85839C44.4215 2.75369 44.525 2.71181 44.6285 2.64899C44.732 2.60712 44.939 2.60712 44.939 2.5443C44.939 2.39772 44.9804 2.12551 44.8976 2.04175C44.6906 1.79047 44.4422 1.58108 44.1317 1.4345C43.6349 1.12041 43.076 0.722559 42.4137 0.764438C42.0618 0.806317 41.6478 0.806317 41.2545 0.911014C41.0061 0.952894 40.6956 1.05759 40.4058 1.16229C39.909 1.37168 39.3501 1.51826 38.8947 1.83235C37.8804 2.50242 36.9282 3.25624 36.2245 4.28228C35.7691 4.95234 35.3758 5.60147 34.9204 6.27153C34.7755 6.58562 34.6099 6.9416 34.4236 7.33945C34.4236 7.38133 34.3201 7.48602 34.2787 7.59072C33.9682 8.15609 33.7198 8.72145 33.4714 9.3287C33.0574 10.1872 32.6227 11.1086 32.2501 12.0299C31.8982 13.0559 31.5877 14.1238 31.2979 15.1918C31.0909 15.8618 30.9874 16.511 30.8425 17.181C30.5941 18.2071 30.3871 19.275 30.3457 20.3429C30.3043 20.9501 30.2422 21.6202 30.3043 22.2903C30.3457 23.2535 30.5113 24.2376 30.6562 25.2009C30.8632 26.3316 31.153 27.4414 31.4635 28.5721C31.774 29.64 32.2708 30.5614 32.8711 31.378C33.5335 32.2994 34.2787 33.116 35.0446 33.9326C35.4586 34.3514 35.8933 34.6446 36.3487 35.0005C36.6591 35.2518 36.9489 35.5031 37.3008 35.7125C37.7562 35.9638 38.253 36.3197 38.7705 36.4873C39.7227 36.7385 40.737 36.906 41.7513 37.0526C41.8962 37.0945 42.1032 37.0526 42.2481 37.0526C42.807 36.906 43.3037 36.7385 43.7177 36.6338C44.318 36.5291 44.5664 36.1313 44.939 35.9638C45.0839 35.7544 45.1874 35.6497 45.2909 35.5031C45.2495 35.189 45.3323 34.9377 45.6428 34.833C46.1396 34.6865 46.2431 34.5818 46.2431 34.2258C45.8705 34.1002 45.6221 33.8908 45.8291 33.4301ZM19.0644 16.825C18.9609 16.7204 18.8574 16.6157 18.7539 16.4691C18.7539 16.4272 18.7539 16.3644 18.7953 16.2597C18.8988 16.4691 19.0023 16.6157 19.1058 16.7622L19.0644 16.825ZM20.6376 32.0062C20.679 31.7968 20.7411 31.6502 20.7825 31.5037C20.886 31.6083 20.9895 31.6502 21.093 31.7549C21.093 31.7549 21.093 31.7968 21.093 31.9015C20.9481 31.9434 20.7825 31.9434 20.6376 32.0062ZM19.6854 31.1267C19.644 31.1686 19.644 31.2314 19.644 31.2733C19.6854 31.3152 19.6854 31.4199 19.7889 31.4827C19.7889 31.4827 19.8924 31.4827 19.9338 31.5246C19.8924 31.5665 19.8924 31.6293 19.8924 31.6712C19.7475 31.6293 19.644 31.5665 19.5405 31.5246L19.4991 31.5665C19.3956 31.4618 19.2921 31.3571 19.2507 31.3152C19.3749 31.2943 19.5198 31.1896 19.6854 31.1267ZM21.3 31.9434C21.3 31.9434 21.3414 31.8387 21.3 31.7968C21.1965 31.5455 21.093 31.2314 21.0516 30.9802C20.9481 30.4776 20.9067 29.9541 20.8446 29.4516C20.8032 29.3469 20.7411 29.2422 20.7411 29.1375C20.6997 29.1375 20.6997 29.1375 20.6376 29.1375C20.6376 28.6768 20.6376 28.2161 20.6376 27.7136C20.5962 27.6717 20.5962 27.6089 20.5341 27.567C20.5755 27.2111 20.679 26.8551 20.4306 26.6457C20.3892 25.0543 20.3271 23.5885 20.2857 22.1018H20.3271C20.3271 22.0599 20.2857 21.9971 20.2857 21.9552C20.2857 21.5364 20.2443 21.1805 20.2443 20.7826H20.2857C20.2857 20.7407 20.2857 20.6779 20.2443 20.5732C20.3478 20.4685 20.4927 20.3219 20.5962 20.2591C20.9067 20.2591 21.1965 20.2591 21.4449 20.2591C22.5006 20.3638 23.6183 20.5104 24.674 20.2172C25.1708 20.0707 25.6262 20.2173 26.1437 20.0707C26.6405 19.9241 26.8475 19.5053 27.1994 19.254V19.2122C27.1994 19.1703 27.158 19.0656 27.158 19.0028C27.2615 18.8981 27.365 18.7934 27.4685 18.6887C27.572 18.4793 27.6755 18.2699 27.8204 18.1233C28.0688 17.9139 28.1309 17.7045 28.0274 17.4532C27.572 17.3485 27.0752 17.2438 26.6198 17.1391C26.0195 17.0344 25.3985 16.9926 24.7568 16.9297C24.3014 16.8879 23.8046 16.825 23.2871 16.8879C22.5213 16.9297 21.714 17.1391 20.9688 17.2438C20.8653 17.2438 20.7618 17.2438 20.6583 17.202C20.3478 17.0973 19.9959 17.0554 19.9545 16.5947C20.1615 16.5947 20.3064 17.0135 20.5548 16.5947C20.5548 16.49 20.5962 16.2387 20.5962 16.0293C20.5962 15.3174 20.5962 14.5426 20.5962 13.8307C20.5548 13.726 20.5962 13.6213 20.5962 13.5166C20.5962 13.1606 20.5548 12.8047 20.5548 12.4487C20.5548 12.1974 20.6583 11.9461 20.6583 11.6739C20.6583 11.1086 20.6169 10.606 20.5548 10.0825C20.5548 9.72655 20.5548 9.41246 20.5134 9.05649C20.5134 8.95179 20.4099 8.80521 20.4099 8.6377C20.4513 8.3236 20.4513 8.07233 20.5134 7.77918C20.5548 7.46508 20.5548 7.17193 20.6169 6.85784C20.7204 6.18777 20.9274 5.58053 20.8239 4.91046C20.7825 4.70107 20.8653 4.49167 21.1344 4.49167C21.6312 4.38697 22.1487 4.28228 22.749 4.17758C23.2458 4.1357 23.9081 4.28228 24.5705 4.07288C24.6119 4.07288 24.7154 4.11476 24.8189 4.11476C25.1294 4.07288 25.3778 4.01006 25.6676 3.90537C26.2679 3.80067 26.8268 3.65409 27.3857 3.65409C27.5927 3.65409 27.7376 3.61221 27.9446 3.54939C27.9446 3.50751 27.9446 3.50751 27.9446 3.4447C27.986 3.48658 28.0895 3.48658 28.1516 3.48658C28.2965 3.48658 28.4621 3.4447 28.607 3.38188C28.607 3.38188 28.607 3.38188 28.5656 3.34C28.7105 3.19342 28.8761 3.02591 29.021 2.87933C29.021 2.92121 29.0624 2.92121 29.0624 2.92121C29.1038 2.81651 29.1038 2.71181 29.1659 2.56524C28.8554 2.52336 28.6691 2.46054 28.4 2.41866C28.1516 2.37678 27.8411 2.41866 27.6962 2.06269C27.6962 1.95799 27.5513 1.91611 27.4478 1.85329C27.2408 1.81141 27.0338 1.7486 26.8475 1.70672C26.2472 1.66484 25.6262 1.49732 25.0259 1.45544C24.6119 1.41356 24.1772 1.45544 23.7632 1.45544C23.6183 1.45544 23.4113 1.49732 23.2665 1.49732C22.6041 1.49732 21.9624 1.49732 21.3 1.5392C20.8446 1.5392 20.3892 1.6439 19.9338 1.68578C19.6233 1.72766 19.2714 1.72766 18.9816 1.79047C18.5676 1.83235 17.9673 2.14645 17.8638 2.71181C17.8224 3.17248 17.7189 3.57033 17.6568 3.98912C17.4498 5.30831 17.3049 6.64844 17.16 8.03045C17.0565 8.88897 17.0151 9.76843 16.953 10.627C16.8495 11.9461 16.746 13.2863 16.6425 14.6055C16.6012 15.6315 16.5391 16.6575 16.4977 17.7254C16.4563 19.1493 16.4563 20.5942 16.3942 22.0599C16.3942 22.9184 16.3528 23.756 16.3528 24.6145C16.3528 24.8658 16.3942 25.1171 16.3942 25.3893C16.3528 26.206 16.2907 27.0854 16.2493 27.9021C16.2493 28.7187 16.2493 29.5353 16.5598 30.352C16.7046 30.9592 16.7667 31.6293 17.1186 32.1947C17.4705 32.8019 17.8224 33.3673 18.2778 33.8908C18.3813 33.9326 18.4227 34.1002 18.5262 34.142C18.6711 34.3514 18.8367 34.498 18.9402 34.6446C19.1472 34.7493 19.2507 34.7912 19.3956 34.8959C19.4991 34.9377 19.644 35.0005 19.8096 35.1052C20.5755 35.6706 21.4863 35.8172 22.3764 36.0266C22.7904 36.1313 23.1837 36.1313 23.5976 36.1732C23.846 36.1732 24.1565 36.1732 24.3635 36.0685C24.674 35.8172 25.0259 35.8172 25.3778 35.7544C26.1851 35.7125 26.8889 35.4403 27.6548 35.1471C28.1516 34.8959 28.4207 34.4771 28.4621 33.9745C28.4621 33.8698 28.4621 33.7651 28.5035 33.6604C28.6484 33.4091 28.607 33.1579 28.4 32.8857C28.193 32.6763 27.986 32.425 27.7376 32.1737C27.779 32.069 27.8411 31.9224 27.8825 31.713C27.8411 31.6712 27.779 31.6084 27.779 31.5665C27.779 31.4618 27.779 31.4199 27.8204 31.2524C27.572 31.2524 27.365 31.2524 27.158 31.2943C26.5991 31.5037 26.0402 31.713 25.4399 31.9015C24.4877 32.2575 23.5769 32.76 22.5006 32.3622C22.1487 32.2156 21.8382 32.1109 21.5484 32.0062C21.4449 32.1109 21.4035 32.0481 21.3 31.9434ZM3.68454 17.4951C3.64315 17.5998 3.53965 17.6417 3.43615 17.8092C3.33265 17.6626 3.29125 17.5579 3.29125 17.4951C3.24985 16.7832 3.24985 16.1131 3.18775 15.443C3.08425 14.5217 3.22915 13.5585 3.22915 12.6371C3.18775 11.9252 3.27055 11.2551 3.27055 10.5432C3.31195 9.76843 3.22915 9.01461 3.27055 8.30266C3.27055 7.7373 3.41545 7.17193 3.47755 6.60656C3.51895 6.25059 3.51895 5.89462 3.89154 5.78992C4.24344 5.64335 4.59533 5.53865 4.94723 5.43395C5.25772 5.39207 5.60962 5.32925 5.89941 5.22456C6.7481 4.97328 7.51399 5.11986 8.17638 5.78992C8.38337 5.99932 8.52827 6.35529 8.63177 6.71126C8.83877 7.13005 8.77667 7.56978 8.73527 8.03045C8.69387 8.49112 8.69387 9.05649 8.59037 9.51716C8.48687 10.2919 8.23848 11.0039 7.78308 11.653C7.12069 12.5743 6.5204 13.6004 5.85801 14.5217C5.15422 15.5477 4.45043 16.511 3.68454 17.4951ZM15.2971 35.0634C15.0487 34.7074 14.8003 34.3933 14.5933 34.0373C14.3449 33.6185 14.0965 33.1788 13.8274 32.76C13.372 32.1528 12.8131 31.5246 12.4198 30.9173C11.923 30.2054 11.509 29.4306 11.1157 28.7187C10.9708 28.5093 10.7638 28.258 10.8052 28.0486C10.8466 27.6298 10.5982 27.4833 10.4533 27.2739C10.2049 26.8551 9.89445 26.5619 9.64605 26.1431C9.54256 25.8919 9.50116 25.5778 9.33556 25.3684C8.88017 24.5936 8.38337 23.8817 7.86588 23.1278C7.51399 22.6253 7.20349 22.0599 6.8102 21.5364C6.4583 21.0758 6.04431 20.7617 5.65101 20.3638C5.60962 20.3219 5.54752 20.2591 5.44402 20.2172C5.65101 20.0079 5.85801 19.8613 6.00291 19.7147C6.25131 19.4634 6.4997 19.1493 6.8516 18.8981C7.26559 18.584 7.70028 18.2908 8.11428 18.0395C8.21778 17.9977 8.21778 17.893 8.25918 17.8301C8.36267 17.7254 8.40407 17.6208 8.50757 17.5789C8.54897 17.4742 8.61107 17.4323 8.65247 17.3276C8.85947 16.9716 9.00436 16.5528 9.21136 16.1969C9.41836 15.8828 9.66675 15.5268 9.87375 15.1708C9.97725 15.0242 10.0807 14.752 10.1842 14.5636C10.3291 14.2495 10.4947 13.8935 10.5982 13.6004C10.7431 13.1397 10.8466 12.679 10.9501 12.2184C11.095 11.7158 11.302 11.2551 11.4469 10.7945C11.4883 10.5432 11.4055 10.2919 11.4883 10.0197C11.7367 9.24494 11.6332 8.4283 11.6332 7.67448C11.6332 7.36039 11.5297 7.06723 11.5297 6.75314C11.5711 6.29247 11.3848 5.89462 10.9708 5.62241C10.8673 5.51771 10.7638 5.37113 10.7224 5.20362C10.5775 4.95234 10.5154 4.59637 10.3705 4.3451C9.81165 3.67503 9.06646 3.27718 8.30058 3.02591C7.74168 2.87933 7.14139 2.71181 6.5825 2.60712C5.52682 2.39772 4.51253 2.56524 3.56035 3.06778C3.45685 3.10966 3.31195 3.10966 3.20845 3.17248C2.54606 2.46054 1.73877 2.25114 0.827988 2.04175C0.786588 2.25114 0.724489 2.46054 0.724489 2.64899C0.68309 3.36094 0.620991 4.1357 0.579591 4.84764C0.558892 5.64335 0.413994 6.39717 0.351895 7.10911C0.310495 8.17703 0.310495 9.20306 0.310495 10.271C0.248396 12.0299 0.248396 13.8098 0.206997 15.5477C0.206997 16.0503 0.165598 16.511 0.165598 17.0344C0.103498 17.7883 0 18.563 0 19.3378C0 20.1126 0.103498 20.8245 0.103498 21.5364C0.0413994 22.395 0 23.2116 0 24.0911C0 24.6983 0.103498 25.3684 0.103498 25.9756C0.144898 26.5829 0.0620991 27.1482 0.0620991 27.7136C0.103498 28.9909 0.165598 30.2682 0.165598 31.5037C0.206997 32.2784 0.269096 33.0951 0.269096 33.8489C0.269096 34.5189 0.269096 35.1681 0.620991 35.7963C0.724489 36.0056 0.931486 36.215 1.17988 36.2569C1.49038 36.3616 1.78017 36.2988 2.09067 36.2988C2.40116 36.0475 2.13207 35.4822 2.69096 35.4403C2.73236 35.545 2.83586 35.6916 2.89796 35.7963C3.00145 35.4822 3.04285 35.189 3.14635 34.833C3.18775 34.7283 3.24985 34.5818 3.24985 34.4771C3.35335 33.4091 3.39475 32.2784 3.45685 31.2105C3.45685 30.1845 3.35335 29.2212 3.35335 28.2371C3.31195 27.6717 3.35335 27.1692 3.39475 26.6457C3.43615 25.6196 3.49825 24.5936 3.53965 23.6304C3.53965 23.4838 3.58105 23.3163 3.68454 23.1278C3.78804 23.2744 3.93294 23.3372 3.99504 23.4419C4.40903 24.112 4.76093 24.7611 5.15422 25.4312C5.75451 26.3944 6.4583 27.3157 6.9758 28.2999C7.67958 29.5353 8.34198 30.708 9.19066 31.8177C9.85305 32.7391 10.4533 33.6604 11.1157 34.5189C11.8195 35.4403 12.6889 36.215 13.8481 36.571C14.2621 36.6757 14.6554 36.7176 15.0694 36.8223C15.1729 36.8223 15.2764 36.7804 15.3178 36.7804C15.3178 36.5291 15.3178 36.3197 15.3592 36.1103C15.4006 35.7334 15.5041 35.3775 15.2971 35.0634Z" fill="white"/>
</svg>
