<?xml version="1.0" encoding="UTF-8"?>
<svg id="svg4136" xmlns="http://www.w3.org/2000/svg" xmlns:svg="http://www.w3.org/2000/svg" xmlns:sodipodi="http://sodipodi.sourceforge.net/DTD/sodipodi-0.dtd" xmlns:rdf="http://www.w3.org/1999/02/22-rdf-syntax-ns#" xmlns:inkscape="http://www.inkscape.org/namespaces/inkscape" xmlns:dc="http://purl.org/dc/elements/1.1/" xmlns:cc="http://creativecommons.org/ns#" version="1.1" viewBox="0 0 372.4 372.6">
  <defs>
    <style>
      .cls-1 {
        fill: #fff;
        stroke-width: 0px;
      }
    </style>
  </defs>
  <sodipodi:namedview id="namedview4138" bordercolor="#666666" borderopacity="1" fit-margin-bottom="0" fit-margin-left="0" fit-margin-right="0" fit-margin-top="0" gridtolerance="10" guidetolerance="10" inkscape:current-layer="g4146" inkscape:cx="120.11921" inkscape:cy="190.18765" inkscape:pageopacity="0" inkscape:pageshadow="2" inkscape:window-height="1017" inkscape:window-maximized="1" inkscape:window-width="1920" inkscape:window-x="-8" inkscape:window-y="-8" inkscape:zoom="2.2378738" objecttolerance="10" pagecolor="#ffffff" showgrid="false"/>
  <g id="g4146">
    <path id="path4148" class="cls-1" d="M167.6,371.8c-28.7-2.7-57.7-13-82.7-29.3-20.9-13.6-25.6-19.2-25.6-30.4,0-22.5,24.7-61.8,67-106.7,24-25.5,57.5-55.4,61.1-54.6,7,1.6,63.3,56.4,84.3,82.2,33.3,40.8,48.6,74.2,40.8,89.1-5.9,11.3-42.6,33.5-69.5,42-22.2,7-51.4,10-75.4,7.7h0ZM31.1,288.7C13.7,262,4.9,235.8.7,197.8c-1.4-12.5-.9-19.7,3.2-45.4,5.1-32.1,23.3-69.1,45.3-92,9.3-9.7,10.2-10,21.6-6.1,13.8,4.7,28.6,14.9,51.5,35.6l13.4,12.1-7.3,9c-33.9,41.6-69.6,100.6-83.1,137.1-7.3,19.8-10.3,39.8-7.1,48,2.1,5.6.2,3.5-7-7.4ZM336,293.2c1.7-8.4-.5-23.8-5.5-39.3-11-33.6-47.8-96.1-81.7-138.6l-10.6-13.4,11.5-10.6c15-13.8,25.5-22.1,36.7-29.1,8.9-5.5,21.6-10.4,27.1-10.4s15.2,12.3,24.8,25.7c14.8,20.8,25.7,46,31.2,72.2,3.6,16.9,3.9,53.2.6,70.1-2.7,13.9-8.4,31.9-14,44.1-4.2,9.1-14.5,26.9-19.1,32.7q-2.3,3-1-3.4h0ZM170.7,45.5c-15.6-7.9-39.7-16.4-53-18.7-4.7-.8-12.6-1.2-17.7-1-11,.6-10.5,0,7.1-8.3,14.6-6.9,26.8-11,43.4-14.5,18.6-3.9,53.7-4,72,0,19.8,4.2,43.1,12.9,56.3,20.9l3.9,2.4-9-.5c-17.8-.9-43.8,6.3-71.6,19.9-8.4,4.1-15.7,7.4-16.2,7.3-.5,0-7.4-3.4-15.2-7.4Z" inkscape:connector-curvature="0"/>
  </g>
</svg>