<svg width="24" height="17" viewBox="0 0 24 17" fill="none" xmlns="http://www.w3.org/2000/svg">
<path d="M24 1.18069C24 1.17717 24 1.17014 24 1.16662C24 1.14904 23.9967 1.13146 23.9967 1.11388C23.9967 1.11036 23.9967 1.10685 23.9967 1.10333C23.9933 1.08575 23.9933 1.06817 23.99 1.05059V1.04707C23.9867 1.02597 23.9833 1.00839 23.9766 0.990812C23.9766 0.990812 23.9766 0.990812 23.9766 0.987296C23.9666 0.948618 23.9532 0.90994 23.9365 0.874779V0.871262C23.9298 0.853682 23.9198 0.836101 23.9097 0.81852C23.8997 0.800939 23.893 0.786874 23.883 0.77281C23.883 0.769294 23.8796 0.769294 23.8796 0.765777C23.8696 0.751713 23.8596 0.737648 23.8495 0.723583C23.8462 0.720067 23.8462 0.716551 23.8428 0.713035C23.8328 0.69897 23.8228 0.688422 23.8127 0.677873L23.8094 0.674357C23.7994 0.660292 23.786 0.649744 23.776 0.635679C23.7726 0.632163 23.7693 0.628647 23.7659 0.628647C23.7525 0.618098 23.7425 0.604034 23.7291 0.593485C23.7158 0.582937 23.7024 0.572388 23.689 0.56184C23.6857 0.56184 23.6857 0.558324 23.6823 0.558324C23.6689 0.547775 23.6522 0.537227 23.6388 0.526678C23.6221 0.51613 23.6054 0.509097 23.5887 0.498549C23.5719 0.491516 23.5552 0.480968 23.5385 0.473936C23.5051 0.459871 23.4683 0.445806 23.4315 0.438774H23.4281C23.3947 0.431742 23.3579 0.424709 23.3211 0.421193C23.3178 0.421193 23.3144 0.421193 23.3111 0.421193C23.2843 0.410645 23.2676 0.410645 23.2475 0.410645H1.72625C1.70953 0.410645 1.68946 0.410645 1.67274 0.414161C1.66939 0.414161 1.66605 0.414161 1.6627 0.414161C1.62592 0.417677 1.59247 0.424709 1.55568 0.431742H1.55234C1.51555 0.44229 1.47876 0.452839 1.44532 0.466903C1.42859 0.473936 1.41187 0.480968 1.39515 0.491516C1.37843 0.498549 1.36171 0.509097 1.34498 0.519646C1.32492 0.530194 1.31154 0.540743 1.29816 0.551291C1.29482 0.551291 1.29482 0.554807 1.29147 0.554807C1.2781 0.565356 1.26472 0.575904 1.25134 0.589969C1.23796 0.600518 1.22459 0.614582 1.21455 0.625131C1.20786 0.628647 1.20452 0.632163 1.20117 0.632163C1.19114 0.646228 1.17776 0.656776 1.16773 0.670841L1.16439 0.674357C1.15435 0.684906 1.14432 0.69897 1.13429 0.709519C1.13429 0.716551 1.13094 0.720067 1.1276 0.723583C1.11756 0.737648 1.10753 0.751713 1.0975 0.765777C1.0975 0.769294 1.09415 0.769294 1.09415 0.77281C1.08412 0.786874 1.07409 0.804455 1.0674 0.81852C1.05737 0.836101 1.05068 0.853682 1.04064 0.871262V0.874779C1.02392 0.90994 1.01054 0.948618 1.00051 0.987296C1.00051 0.987296 1.00051 0.987296 1.00051 0.990812C0.997166 1.00839 0.990477 1.02949 0.987133 1.04707V1.05059C0.983788 1.06817 0.980444 1.08575 0.980444 1.10333C0.980444 1.10685 0.980444 1.11036 0.980444 1.11388C0.977099 1.13146 0.973755 1.14904 0.973755 1.16662C0.973755 1.17014 0.973755 1.17717 0.973755 1.18069C0.973755 1.18772 0.973755 1.19475 0.973755 1.20178V15.4423C0.973755 15.8783 1.31154 16.2334 1.72625 16.2334H23.2475C23.6622 16.2334 24 15.8783 24 15.4423V1.20178C24 1.19475 24 1.18772 24 1.18069ZM21.1773 1.99292L12.4886 9.64762L3.79644 1.99292H21.1773ZM2.47874 14.6511V2.89657L12.0036 11.2861C12.1441 11.4092 12.3147 11.4725 12.4852 11.4725C12.6558 11.4725 12.8297 11.4092 12.9668 11.2861L22.495 2.89657V14.6511H2.47874Z" fill="white"/>
</svg>
