<svg width="36" height="18" viewBox="0 0 64 32" fill="none" xmlns="http://www.w3.org/2000/svg">
<path fill-rule="evenodd" clip-rule="evenodd" d="M0 4C0 1.79086 1.79086 0 4 0H60C62.2091 0 64 1.79086 64 4V28C64 30.2091 62.2091 32 60 32H4C1.79086 32 0 30.2091 0 28V4ZM8 25H13V7H8V25ZM22.5535 15.4085L23.6725 7H30V25H25.7707L25.7584 12.8518L24.0634 25H21.0436L19.2581 13.1138L19.2416 25H15V7H21.2781C21.4632 8.09175 21.6566 9.37009 21.8582 10.835L22.5535 15.4085ZM32 25V7H39.8046C41.5694 7 43 8.41994 43 10.1766V21.8234C43 23.5778 41.5717 25 39.8046 25H32ZM37.8322 10.2395C37.6339 10.1323 37.2545 10.0807 36.7027 10.0807V21.8915C37.4313 21.8915 37.8797 21.7605 38.0478 21.4865C38.216 21.2166 38.3022 20.4861 38.3022 19.2872V12.3079C38.3022 11.494 38.272 10.974 38.216 10.7437C38.1599 10.5135 38.0349 10.3467 37.8322 10.2395ZM52.7495 11.5069H52.4299C51.3552 11.5069 50.4025 12.0102 49.7843 12.7805V7H45V24.7688H49.4839L49.7719 23.6683C50.3603 24.4737 51.3315 25 52.4299 25H52.7495C54.5452 25 56 23.5951 56 21.862V14.6449C56 12.9127 54.5447 11.5069 52.7495 11.5069ZM51.4056 16.0191V20.2842C51.4056 21.0881 51.3641 21.5983 51.2812 21.8075C51.1982 22.0167 50.8031 22.1274 50.5317 22.1274C50.2602 22.1274 49.8721 22.013 49.7816 21.8075V20.4208V16.0191V14.5877C49.8608 14.4005 50.2678 14.2894 50.5317 14.2894C50.7956 14.2894 51.1718 14.4261 51.2661 14.639C51.3603 14.8519 51.4056 15.3143 51.4056 16.0191Z" fill="white"/>
</svg>
