<svg width="22" height="22" viewBox="0 0 22 22" fill="none" xmlns="http://www.w3.org/2000/svg">
<path fill-rule="evenodd" clip-rule="evenodd" d="M10.6418 0.0795898C7.75044 0.0795898 7.39005 0.0921744 6.25503 0.142512C5.12001 0.19285 4.34952 0.377423 3.67017 0.641698C2.96596 0.918558 2.3736 1.2877 1.78123 1.88757C1.18887 2.48743 0.824338 3.08729 0.555082 3.79622C0.289968 4.47998 0.111845 5.26441 0.062136 6.4138C0.00828481 7.56318 0 7.93233 0 10.8561C0 13.7841 0.0124272 14.1491 0.062136 15.2985C0.111845 16.4479 0.294111 17.2281 0.555082 17.916C0.828481 18.625 1.19301 19.2248 1.78123 19.8247C2.3736 20.4246 2.96596 20.7937 3.66603 21.0664C4.34124 21.3348 5.11587 21.5152 6.25089 21.5656C7.3859 21.6201 7.75044 21.6285 10.6377 21.6285C13.5291 21.6285 13.8895 21.6159 15.0245 21.5656C16.1595 21.5152 16.93 21.3306 17.6094 21.0664C18.3094 20.7895 18.9018 20.4204 19.4942 19.8247C20.0865 19.2248 20.451 18.625 20.7203 17.916C20.9854 17.2323 21.1635 16.4479 21.2132 15.2985C21.2671 14.1491 21.2754 13.7799 21.2754 10.8561C21.2754 7.92813 21.263 7.56318 21.2132 6.4138C21.1635 5.26441 20.9813 4.48417 20.7203 3.79622C20.4469 3.08729 20.0824 2.48743 19.4942 1.88757C18.9018 1.2877 18.3094 0.918558 17.6094 0.645893C16.9341 0.377423 16.1595 0.197045 15.0245 0.146707C13.8936 0.0921743 13.5291 0.0795898 10.6418 0.0795898ZM10.6418 2.0218C13.4835 2.0218 13.8191 2.03438 14.9416 2.08472C15.9814 2.13087 16.5448 2.30705 16.9176 2.45387C17.4147 2.65103 17.7709 2.88174 18.1396 3.25928C18.5124 3.63681 18.7444 3.99757 18.9349 4.49676C19.0799 4.87849 19.2539 5.44898 19.2995 6.49769C19.3492 7.63449 19.3616 7.97428 19.3616 10.8519C19.3616 13.7296 19.3492 14.0694 19.2995 15.2062C19.2539 16.2591 19.0799 16.8296 18.9349 17.2071C18.7402 17.7105 18.5124 18.0713 18.1396 18.4446C17.7668 18.8221 17.4105 19.057 16.9176 19.25C16.5406 19.3968 15.9773 19.573 14.9416 19.6192C13.8191 19.6695 13.4835 19.6821 10.6418 19.6821C7.80015 19.6821 7.46461 19.6695 6.34202 19.6192C5.30228 19.573 4.73891 19.3968 4.36609 19.25C3.869 19.0528 3.51276 18.8221 3.14408 18.4446C2.77127 18.0671 2.53929 17.7063 2.34874 17.2071C2.20376 16.8254 2.02978 16.2549 1.98421 15.2062C1.92622 14.0778 1.91379 13.7338 1.91379 10.8561C1.91379 7.97847 1.92622 7.63869 1.97593 6.50189C2.02149 5.44898 2.19547 4.87849 2.34046 4.50095C2.53515 3.99757 2.76298 3.63681 3.1358 3.26347C3.50862 2.88594 3.86486 2.65103 4.35781 2.45806C4.73477 2.31124 5.29813 2.13506 6.33373 2.08892C7.46047 2.03019 7.796 2.0218 10.6418 2.0218ZM10.6419 14.452C8.6825 14.452 7.09182 12.8454 7.09182 10.8571C7.09182 8.8729 8.67836 7.26208 10.6419 7.26208C12.6012 7.26208 14.1919 8.8687 14.1919 10.8571C14.1878 12.8412 12.6012 14.452 10.6419 14.452ZM10.6419 5.32407C7.62205 5.32407 5.17389 7.80322 5.17389 10.8613C5.17389 13.9193 7.62205 16.3984 10.6419 16.3984C13.6617 16.3984 16.1098 13.9193 16.1098 10.8613C16.1057 7.79902 13.6575 5.32407 10.6419 5.32407ZM16.3252 6.39737C17.0294 6.39737 17.6011 5.81848 17.6011 5.10536C17.6011 4.38804 17.0294 3.80915 16.3252 3.81335C15.621 3.81335 15.0494 4.39223 15.0494 5.10536C15.0494 5.81848 15.621 6.39737 16.3252 6.39737Z" fill="white"/>
</svg>
