<svg width="33" height="14" viewBox="0 0 33 14" fill="none" xmlns="http://www.w3.org/2000/svg">
<path fill-rule="evenodd" clip-rule="evenodd" d="M21.0066 6.99095C21.0066 5.81234 21.3413 4.71847 21.9118 3.79408C22.4823 4.71847 22.817 5.82005 22.817 6.99095C22.817 8.16956 22.4823 9.26343 21.9118 10.1878C21.3413 9.26343 21.0066 8.16956 21.0066 6.99095ZM21.9118 10.1878C22.9692 11.898 24.8481 13.0381 26.9857 13.0381C30.2871 13.0381 32.9648 10.3342 32.9648 6.99095C32.9648 3.64771 30.2947 0.943848 26.9857 0.943848C24.8481 0.943848 22.9692 2.08394 21.9118 3.79408C20.8544 2.08394 18.9831 0.943848 16.8379 0.943848C14.6927 0.943848 12.8214 2.08394 11.764 3.79408C12.3346 4.71847 12.6693 5.82005 12.6693 6.99095C12.6693 8.16956 12.3346 9.26343 11.764 10.1878C12.8214 11.898 14.7004 13.0381 16.8379 13.0381C18.9755 13.0381 20.8544 11.898 21.9118 10.1878ZM10.8588 6.99144C10.8588 5.81283 11.1935 4.71896 11.7641 3.79456C10.7067 2.08443 8.83536 0.944336 6.69018 0.944336C3.38873 0.944336 0.71106 3.6482 0.71106 6.99144C0.71106 10.3347 3.38873 13.0385 6.69018 13.0385C8.82776 13.0385 10.7067 11.8985 11.7641 10.1883C11.1935 9.26392 10.8588 8.17005 10.8588 6.99144Z" fill="white"/>
</svg>
