<svg width="22" height="22" viewBox="0 0 22 22" fill="none" xmlns="http://www.w3.org/2000/svg">
<path d="M20.1549 0.440918C21.0281 0.440918 21.7371 1.11427 21.7371 1.94065V19.7572C21.7371 20.587 21.0281 21.2603 20.1549 21.2603H1.93417C1.06103 21.2603 0.35553 20.587 0.35553 19.7572V1.94065C0.35553 1.11427 1.06103 0.440918 1.93417 0.440918H20.1549ZM18.5728 18.1792V12.7312C18.5728 10.0548 17.9791 7.99739 14.7694 7.99739C13.2257 7.99739 12.1919 8.82037 11.7693 9.60255H11.7274V8.24565H8.68881V18.1792H11.8566V13.2652C11.8566 11.9695 12.108 10.7146 13.76 10.7146C15.3876 10.7146 15.4085 12.1973 15.4085 13.3502V18.1826H18.5728V18.1792ZM6.69804 8.24565H3.52329V18.1792H6.69804V8.24565ZM5.11241 3.30775C4.09258 3.30775 3.27183 4.11033 3.27183 5.09655C3.27183 6.08617 4.09258 6.88875 5.11241 6.88875C6.12526 6.88875 6.94951 6.08617 6.94951 5.09655C6.94951 4.11033 6.12526 3.30775 5.11241 3.30775Z" fill="white"/>
</svg>
